<?xml version="1.0" encoding="utf-8"?>
<!-- Generator: Adobe Illustrator 21.0.2, SVG Export Plug-In . SVG Version: 6.00 Build 0)  -->
<svg version="1.1" id="Layer_1" xmlns="http://www.w3.org/2000/svg" xmlns:xlink="http://www.w3.org/1999/xlink" x="0px" y="0px"
	 viewBox="0 0 65 61.1" style="enable-background:new 0 0 65 61.1;" xml:space="preserve">
<style type="text/css">
	.st0{fill:#666666;}
	.st1{fill:#F1D585;}
	.st2{fill:#B5A064;}
	.st3{fill:#CCCCCC;}
	.st4{fill:#B3B3B3;}
	.st5{fill:#E6E6E6;}
</style>
<g id="SD_CARD_SLOT">
	<path id="path17_2_" class="st0" d="M54.1,50.2c0.4,0,0.7-0.3,0.7-0.7v-2.2c0-0.4-0.3-0.7-0.7-0.7h-3.4c-0.4,0-0.7-0.3-0.7-0.7
		V19.2c0-0.4,0.3-0.7,0.7-0.7h3.4c0.4,0,0.7-0.3,0.7-0.7v-5.4c0-0.4-0.3-0.7-0.7-0.7h-41c-0.4,0-0.7,0.3-0.7,0.7v37.1
		c0,0.4,0.3,0.7,0.7,0.7H54.1L54.1,50.2z"/>
	<path id="path19_2_" class="st1" d="M22,16.2l0.4,0.8c-1.8,0.9-3.7,1.8-5.5,2.5c-0.7,0.1-0.7,0-0.8-0.2c-0.2-0.4,0-0.9,0.4-1.2l0,0
		c-0.1,0.3-0.1,0.6,0,1h0.2C18.4,18.3,20.2,17.3,22,16.2z"/>
	<path id="path21_2_" class="st2" d="M22,16.5c-1.8,1.1-3.6,2.1-5.6,2.8h-0.3c-0.2-0.4-0.2-0.8,0-1.2c-0.1,0.3-0.1,0.6,0,1h0.2
		c1.9-0.8,3.8-1.7,5.6-2.8L22,16.5L22,16.5z"/>
	<rect id="rect25_2_" x="49" y="19.8" class="st3" width="5.8" height="0.2"/>
	<rect id="rect29_2_" x="49" y="20.4" class="st4" width="4.9" height="0.1"/>
	<rect id="rect31_2_" x="49" y="23.3" class="st5" width="5.8" height="2.5"/>
	<rect id="rect33_2_" x="49" y="23.3" class="st3" width="5.8" height="0.2"/>
	<rect id="rect39_2_" x="49" y="26.9" class="st5" width="5.8" height="2.5"/>
	<rect id="rect41_2_" x="49" y="26.9" class="st3" width="5.8" height="0.2"/>
	<rect id="rect47_2_" x="49" y="30.5" class="st5" width="5.8" height="2.5"/>
	<rect id="rect49_2_" x="49" y="30.5" class="st3" width="5.8" height="0.2"/>
	<rect id="rect55_2_" x="49" y="34.1" class="st5" width="5.8" height="2.5"/>
	<rect id="rect57_2_" x="49" y="34.1" class="st3" width="5.8" height="0.2"/>
	<rect id="rect63_2_" x="49" y="37.6" class="st5" width="5.8" height="2.5"/>
	<rect id="rect65_2_" x="49" y="37.6" class="st3" width="5.8" height="0.2"/>
	<rect id="rect71_2_" x="49" y="41.3" class="st5" width="5.8" height="2.5"/>
	<rect id="rect73_2_" x="49" y="41.3" class="st3" width="5.8" height="0.2"/>
	<rect id="rect79_2_" x="49" y="44.8" class="st5" width="5.8" height="2.5"/>
	<rect id="rect81_2_" x="49" y="44.8" class="st3" width="5.8" height="0.2"/>
	<polygon id="polygon87_2_" class="st1" points="22.2,14.6 22.6,15.3 16.1,17.1 16.1,16.8 	"/>
	<polygon id="polygon89_2_" class="st2" points="22.6,15.3 22.2,14.7 16.2,16.9 16.1,17.1 16.1,16.8 22.2,14.6 	"/>
	<polygon id="polygon91_2_" class="st1" points="32,14 32.1,14.2 25.5,14.2 25.5,14 	"/>
	<polygon id="polygon93_2_" class="st2" points="32.1,14.2 32,14.1 25.6,14.1 25.5,14.2 25.5,14 32,14 	"/>
	<path id="path95_2_" class="st1" d="M25.4,45.4c0-0.1-0.1-0.2-0.2-0.2H24c-0.1,0-0.2,0.1-0.2,0.2v1.2c0,0.1,0.1,0.2,0.2,0.2h1.2
		c0.1,0,0.2-0.1,0.2-0.2L25.4,45.4L25.4,45.4z"/>
	<path id="path97_2_" class="st1" d="M25.4,41.8c0-0.1-0.1-0.2-0.2-0.2H24c-0.1,0-0.2,0.1-0.2,0.2V43c0,0.1,0.1,0.2,0.2,0.2h1.2
		c0.1,0,0.2-0.1,0.2-0.2L25.4,41.8L25.4,41.8z"/>
	<path id="path99_2_" class="st1" d="M26.1,38c0-0.1-0.1-0.2-0.2-0.2h-1.8c-0.1,0-0.2,0.1-0.2,0.2v1.2c0,0.1,0.1,0.2,0.2,0.2h1.8
		c0.1,0,0.2-0.1,0.2-0.2V38L26.1,38z"/>
	<path id="path101_2_" class="st1" d="M25.4,34.1c0-0.1-0.1-0.2-0.2-0.2H24c-0.1,0-0.2,0.1-0.2,0.2v1.2c0,0.1,0.1,0.2,0.2,0.2h1.2
		c0.1,0,0.2-0.1,0.2-0.2L25.4,34.1L25.4,34.1z"/>
	<path id="path103_2_" class="st1" d="M25.4,27c0-0.1-0.1-0.2-0.2-0.2H24c-0.1,0-0.2,0.1-0.2,0.2v1.2c0,0.1,0.1,0.2,0.2,0.2h1.2
		c0.1,0,0.2-0.1,0.2-0.2L25.4,27L25.4,27z"/>
	<path id="path105_2_" class="st1" d="M25.4,19.8c0-0.1-0.1-0.2-0.2-0.2H24c-0.1,0-0.2,0.1-0.2,0.2V21c0,0.1,0.1,0.2,0.2,0.2h1.2
		c0.1,0,0.2-0.1,0.2-0.2L25.4,19.8L25.4,19.8z"/>
	<path id="path107_2_" class="st1" d="M24.6,23.4c0-0.1-0.1-0.2-0.2-0.2h-1.2c-0.1,0-0.2,0.1-0.2,0.2v1.2c0,0.1,0.1,0.2,0.2,0.2h1.2
		c0.1,0,0.2-0.1,0.2-0.2V23.4L24.6,23.4z"/>
	<path id="path109_2_" class="st1" d="M26.1,30.3c0-0.1-0.1-0.2-0.2-0.2h-1.8c-0.1,0-0.2,0.1-0.2,0.2v1.2c0,0.1,0.1,0.2,0.2,0.2h1.8
		c0.1,0,0.2-0.1,0.2-0.2V30.3L26.1,30.3z"/>
	<path id="path111_2_" class="st3" d="M54.8,49.4c0,0.4-0.3,0.7-0.7,0.7h-41c-0.4,0-0.7-0.3-0.7-0.7v0.1c0,0.4,0.3,0.7,0.7,0.7h41
		C54.6,50.1,54.9,49.8,54.8,49.4L54.8,49.4L54.8,49.4z"/>
	<path id="path113_2_" class="st3" d="M54.8,17.7c0,0.4-0.3,0.7-0.7,0.7h-3.4c-0.4,0-0.7,0.3-0.7,0.7v0.1c0-0.4,0.3-0.7,0.7-0.7h3.4
		C54.5,18.4,54.8,18.1,54.8,17.7L54.8,17.7z"/>
	<rect id="rect117_2_" x="10.1" y="42.1" class="st5" width="2.3" height="0.1"/>
	<rect id="rect121_2_" x="10.1" y="24.1" class="st5" width="2.3" height="0.1"/>
	<rect id="rect125_2_" x="20.4" y="9.4" class="st5" width="0.1" height="2.2"/>
	<rect id="rect129_2_" x="48.2" y="9.4" class="st5" width="0.1" height="2.2"/>
	<rect id="rect133_2_" x="20.4" y="50.2" class="st5" width="0.1" height="2.2"/>
	<rect id="rect137_2_" x="48.2" y="50.2" class="st5" width="0.1" height="2.2"/>
	<g id="sdio_2_">
		<rect id="rect23_2_" x="49" y="19.8" class="st5" width="5.8" height="2.5"/>
		<rect id="rect27_2_" x="49" y="20.4" class="st3" width="4.9" height="1.2"/>
		<rect id="rect35_2_" x="49" y="23.9" class="st3" width="4.9" height="1.2"/>
		<rect id="rect37_2_" x="49" y="23.9" class="st4" width="4.9" height="0.2"/>
		<rect id="rect43_2_" x="49" y="27.6" class="st3" width="4.9" height="1.2"/>
		<rect id="rect45_2_" x="49" y="27.6" class="st4" width="4.9" height="0.2"/>
		<rect id="rect51_2_" x="49" y="31.1" class="st3" width="4.9" height="1.2"/>
		<rect id="rect53_2_" x="49" y="31.1" class="st4" width="4.9" height="0.2"/>
		<rect id="rect59_2_" x="49" y="34.7" class="st3" width="4.9" height="1.2"/>
		<rect id="rect61_2_" x="49" y="34.7" class="st4" width="4.9" height="0.1"/>
		<rect id="rect67_2_" x="49" y="38.3" class="st3" width="4.9" height="1.2"/>
		<rect id="rect69_2_" x="49" y="38.3" class="st4" width="4.9" height="0.1"/>
		<rect id="rect75_2_" x="49" y="41.9" class="st3" width="4.9" height="1.2"/>
		<rect id="rect77_2_" x="49" y="41.9" class="st4" width="4.9" height="0.2"/>
		<rect id="rect83_2_" x="49" y="45.4" class="st3" width="4.9" height="1.2"/>
		<rect id="rect85_2_" x="49" y="45.4" class="st4" width="4.9" height="0.2"/>
		<rect id="rect115_2_" x="10.1" y="37.6" class="st3" width="2.3" height="4.6"/>
		<rect id="rect119_2_" x="10.1" y="19.6" class="st3" width="2.3" height="4.6"/>
		<rect id="rect123_2_" x="20.4" y="9.4" class="st3" width="4.6" height="2.2"/>
		<rect id="rect127_2_" x="48.2" y="9.4" class="st3" width="4.6" height="2.2"/>
		<rect id="rect131_2_" x="20.4" y="50.2" class="st3" width="4.6" height="2.2"/>
		<rect id="rect135_2_" x="48.2" y="50.2" class="st3" width="4.6" height="2.2"/>
		<path id="path139_2_" class="st4" d="M13.1,50.2h41c0.4,0,0.7-0.3,0.7-0.7v-2.2c0-0.4-0.3-0.7-0.7-0.7h-3.4
			c-0.4,0-0.7-0.3-0.7-0.7V19.2c0-0.4,0.3-0.7,0.7-0.7h3.4c0.4,0,0.7-0.3,0.7-0.7v-5.4c0-0.4-0.3-0.7-0.7-0.7h-41
			c-0.4,0-0.7,0.3-0.7,0.7v37.1C12.5,49.8,12.8,50.1,13.1,50.2z M25.8,46.6c0,0.4-0.3,0.7-0.7,0.7h-1.2c-0.4,0-0.7-0.3-0.7-0.7v-1.2
			c0-0.4,0.3-0.7,0.7-0.7h1.2c0.4,0,0.7,0.3,0.7,0.7V46.6z M25.8,43c0,0.4-0.3,0.7-0.7,0.7h-1.2c-0.4,0-0.7-0.3-0.7-0.7v-1.2
			c0-0.4,0.3-0.7,0.7-0.7h1.2c0.4,0,0.7,0.3,0.7,0.7V43z M26.6,39.2c0,0.4-0.3,0.7-0.7,0.7h-2c-0.4,0-0.7-0.3-0.7-0.7V38
			c0-0.4,0.3-0.7,0.7-0.7h2c0.4,0,0.7,0.3,0.7,0.7V39.2L26.6,39.2z M23.3,35.3v-1.2c0-0.4,0.3-0.7,0.7-0.7h1.1
			c0.4,0,0.7,0.3,0.7,0.7v1.2c0,0.4-0.3,0.7-0.7,0.7H24c-0.3,0-0.7-0.2-0.7-0.6V35.3L23.3,35.3z M42.7,13.4c0-0.4,0.3-0.7,0.7-0.7
			h1.8c0.4,0,0.7,0.3,0.7,0.7V14c0,0.4-0.3,0.7-0.7,0.7h-1.8c-0.4,0-0.7-0.3-0.7-0.7V13.4z M26.6,14.4c0-0.4,0.3-0.7,0.7-0.7h2.1
			c0.4,0,0.7,0.3,0.7,0.7V15c0,0.4-0.3,0.7-0.7,0.7h-2.1c-0.4,0-0.7-0.3-0.7-0.7V14.4L26.6,14.4z M26.6,30.4v1.2
			c0,0.4-0.3,0.7-0.7,0.7h-2c-0.4,0-0.7-0.3-0.7-0.7v-1.2c0-0.4,0.3-0.7,0.7-0.7h2C26.2,29.7,26.5,29.9,26.6,30.4L26.6,30.4z
			 M23.3,28.2V27c0-0.4,0.3-0.7,0.7-0.7h1.2c0.4,0,0.7,0.3,0.7,0.7v1.2c0,0.4-0.3,0.7-0.7,0.7H24C23.6,28.9,23.3,28.7,23.3,28.2
			C23.3,28.3,23.3,28.2,23.3,28.2L23.3,28.2z M23.3,19.8c0-0.4,0.3-0.7,0.7-0.7h1.2c0.4,0,0.7,0.3,0.7,0.7V21c0,0.4-0.3,0.7-0.7,0.7
			H24c-0.4,0-0.7-0.3-0.7-0.7V19.8L23.3,19.8z M22.4,23.5c0-0.4,0.3-0.7,0.7-0.7h1.2c0.4,0,0.7,0.3,0.7,0.7v1.2
			c0,0.4-0.3,0.7-0.7,0.7h-1.2c-0.4,0-0.7-0.3-0.7-0.7V23.5L22.4,23.5z M14.5,14.4c0-0.4,0.3-0.7,0.7-0.7H21c0.4,0,0.7,0.3,0.7,0.7
			v5c0,0.4-0.3,0.7-0.7,0.7h-5.8c-0.4,0-0.7-0.3-0.7-0.7V14.4z"/>
	</g>
</g>
</svg>
