<?xml version="1.0" encoding="utf-8"?>
<!-- Generator: Adobe Illustrator 21.1.0, SVG Export Plug-In . SVG Version: 6.00 Build 0)  -->
<svg version="1.1" id="Layer_1" xmlns="http://www.w3.org/2000/svg" xmlns:xlink="http://www.w3.org/1999/xlink" x="0px" y="0px"
	 viewBox="0 0 46 57.8" style="enable-background:new 0 0 46 57.8;" xml:space="preserve">
<style type="text/css">
	.st0{fill:none;}
	.st1{font-family:'ArialMT';}
	.st2{font-size:3px;}
	.st3{font-size:2px;}
	.st4{fill:#B3B3B3;}
	.st5{fill:#EFEFEF;}
</style>
<rect x="2" y="38.6" class="st0" width="42" height="19.2"/>
<text transform="matrix(1 0 0 1 2 40.8147)" class="st1 st2">Copyright (C) </text>
<text transform="matrix(1 0 0 1 2 44.4148)" class="st1 st2">2017 Intel Corporation.</text>
<text transform="matrix(1 0 0 1 2 48.4148)" class="st1 st3">This document is licensed under the Creative </text>
<text transform="matrix(1 0 0 1 2 50.8147)" class="st1 st3">Commons Attribution 3.0 Unported License </text>
<text transform="matrix(1 0 0 1 2 53.2147)" class="st1 st3">(“CC-BY-3.0”):https://creativecommons.org/ </text>
<text transform="matrix(1 0 0 1 2 55.6147)" class="st1 st3">licenses/by/3.0/legalcode</text>
<g id="SMD_ANTENNA">
	<rect id="rect5722" x="25.2" y="24.7" class="st4" width="6.8" height="5.6"/>
	<rect id="rect5726" x="14" y="24.7" class="st4" width="6.8" height="5.6"/>
	<rect id="rect5796" x="19.6" y="5.5" class="st4" width="6.8" height="5.6"/>
	<g id="BV_SMD_ANTENNA">
		<path id="path6303" class="st5" d="M33.6,31.9H12.4V3.8h21.1v28.1H33.6z M13.1,31.2h19.8V4.3H13.1V31.2z"/>
	</g>
	<polygon id="polygon6305" class="st5" points="17.4,31.4 14.5,34.3 20.6,34.3 	"/>
</g>
</svg>
