<?xml version="1.0" encoding="utf-8"?>
<!-- Generator: Adobe Illustrator 21.1.0, SVG Export Plug-In . SVG Version: 6.00 Build 0)  -->
<svg version="1.1" id="Layer_1" xmlns="http://www.w3.org/2000/svg" xmlns:xlink="http://www.w3.org/1999/xlink" x="0px" y="0px"
	 viewBox="0 0 46 42" style="enable-background:new 0 0 46 42;" xml:space="preserve">
<style type="text/css">
	.st0{fill:none;}
	.st1{font-family:'ArialMT';}
	.st2{font-size:3px;}
	.st3{font-size:2px;}
	.st4{fill:#333333;}
	.st5{fill:#FFFFFF;}
	.st6{fill:#E6E7E8;}
	.st7{fill:#D1D3D4;}
	.st8{fill:#BCBEC0;}
	.st9{fill:#A7A9AC;}
	.st10{fill:#939598;}
	.st11{font-family:'OCRA';}
	.st12{font-size:2.793px;}
</style>
<rect x="2" y="22.8" class="st0" width="42" height="19.2"/>
<text transform="matrix(1 0 0 1 2 24.9814)"><tspan x="0" y="0" class="st1 st2">Copyright (C) </tspan><tspan x="0" y="3.6" class="st1 st2">2017 Intel Corporation.</tspan><tspan x="0" y="7.6" class="st1 st3">This document is licensed under the Creative </tspan><tspan x="0" y="10" class="st1 st3">Commons Attribution 3.0 Unported License </tspan><tspan x="0" y="12.4" class="st1 st3">(“CC-BY-3.0”):https://creativecommons.org/ </tspan><tspan x="0" y="14.8" class="st1 st3">licenses/by/3.0/legalcode</tspan></text>
<g id="ASEL">
	<g id="BV_ASEL_2_">
		<g id="BV_ASELPin1_2_">
			<rect id="rect5554_2_" x="35.2" y="6.6" class="st4" width="8.2" height="9.7"/>
			<rect id="rect5556_2_" x="37.7" y="12.1" class="st5" width="3.1" height="3.2"/>
			<rect id="rect5558_2_" x="37.7" y="11.4" class="st6" width="3.1" height="0.6"/>
			<rect id="rect5560_2_" x="37.7" y="10.8" class="st7" width="3.1" height="0.6"/>
			<rect id="rect5562_2_" x="37.7" y="10.1" class="st8" width="3.1" height="0.6"/>
			<rect id="rect5564_2_" x="37.7" y="9.5" class="st9" width="3.1" height="0.6"/>
			<rect id="rect5566_2_" x="37.7" y="8.8" class="st10" width="3.1" height="0.6"/>
		</g>
		<g id="BV_ASELPin2_2_">
			<rect id="rect5570_2_" x="27" y="6.6" class="st4" width="8.2" height="9.7"/>
			<rect id="rect5572_2_" x="29.5" y="12.1" class="st5" width="3.1" height="3.2"/>
			<rect id="rect5574_2_" x="29.5" y="11.4" class="st6" width="3.1" height="0.6"/>
			<rect id="rect5576_2_" x="29.5" y="10.8" class="st7" width="3.1" height="0.6"/>
			<rect id="rect5578_2_" x="29.5" y="10.1" class="st8" width="3.1" height="0.6"/>
			<rect id="rect5580_2_" x="29.5" y="9.5" class="st9" width="3.1" height="0.6"/>
			<rect id="rect5582_2_" x="29.5" y="8.8" class="st10" width="3.1" height="0.6"/>
		</g>
		<g id="BV_ASELPin3_2_">
			<rect id="rect5586_2_" x="18.8" y="6.6" class="st4" width="8.2" height="9.7"/>
			<rect id="rect5588_2_" x="21.4" y="12.1" class="st5" width="3.1" height="3.2"/>
			<rect id="rect5590_2_" x="21.4" y="11.4" class="st6" width="3.1" height="0.6"/>
			<rect id="rect5592_2_" x="21.4" y="10.8" class="st7" width="3.1" height="0.6"/>
			<rect id="rect5594_2_" x="21.4" y="10.1" class="st8" width="3.1" height="0.6"/>
			<rect id="rect5596_2_" x="21.4" y="9.5" class="st9" width="3.1" height="0.6"/>
			<rect id="rect5598_2_" x="21.4" y="8.8" class="st10" width="3.1" height="0.6"/>
		</g>
		<g id="BV_ASELPin4_2_">
			<rect id="rect5602_2_" x="10.8" y="6.6" class="st4" width="8.2" height="9.7"/>
			<rect id="rect5604_2_" x="13.2" y="12.1" class="st5" width="3.1" height="3.2"/>
			<rect id="rect5606_2_" x="13.2" y="11.4" class="st6" width="3.1" height="0.6"/>
			<rect id="rect5608_2_" x="13.2" y="10.8" class="st7" width="3.1" height="0.6"/>
			<rect id="rect5610_2_" x="13.2" y="10.1" class="st8" width="3.1" height="0.6"/>
			<rect id="rect5612_2_" x="13.2" y="9.5" class="st9" width="3.1" height="0.6"/>
			<rect id="rect5614_2_" x="13.2" y="8.8" class="st10" width="3.1" height="0.6"/>
		</g>
		<g id="g5616_2_">
			<rect id="rect5618_2_" x="2.6" y="6.6" class="st4" width="8.2" height="9.7"/>
		</g>
	</g>
	<text id="_x30_.1.0.2.21.0.0.0_50_" transform="matrix(-1 0 0 -1 43.063 8.834)" class="st5 st11 st12">1</text>
	<text id="_x30_.1.0.2.21.0.0.0_51_" transform="matrix(-1 0 0 -1 34.939 8.834)" class="st5 st11 st12">2</text>
	<text id="_x30_.1.0.2.21.0.0.0_52_" transform="matrix(-1 0 0 -1 26.8199 8.834)" class="st5 st11 st12">3</text>
	<text id="_x30_.1.0.2.21.0.0.0_53_" transform="matrix(-1 0 0 -1 18.6978 8.834)" class="st5 st11 st12">4</text>
	<text transform="matrix(-1 0 0 -1 9.6236 13.1501)" class="st5 st11 st12">ST4</text>
	<text transform="matrix(-1 0 0 -1 9.6236 9.8053)" class="st5 st11 st12">5B</text>
</g>
</svg>
