<?xml version="1.0" encoding="utf-8"?>
<!-- Generator: Adobe Illustrator 21.1.0, SVG Export Plug-In . SVG Version: 6.00 Build 0)  -->
<svg version="1.1" id="Layer_1" xmlns="http://www.w3.org/2000/svg" xmlns:xlink="http://www.w3.org/1999/xlink" x="0px" y="0px"
	 viewBox="0 0 46 46" style="enable-background:new 0 0 46 46;" xml:space="preserve">
<style type="text/css">
	.st0{fill:none;}
	.st1{font-family:'ArialMT';}
	.st2{font-size:3px;}
	.st3{font-size:2px;}
	.st4{fill:#FDBE10;}
</style>
<rect x="2" y="26.8" class="st0" width="42" height="19.2"/>
<text transform="matrix(1 0 0 1 2 28.9814)"><tspan x="0" y="0" class="st1 st2">Copyright (C) </tspan><tspan x="0" y="3.6" class="st1 st2">2017 Intel Corporation.</tspan><tspan x="0" y="7.6" class="st1 st3">This document is licensed under the Creative </tspan><tspan x="0" y="10" class="st1 st3">Commons Attribution 3.0 Unported License </tspan><tspan x="0" y="12.4" class="st1 st3">(“CC-BY-3.0”):https://creativecommons.org/ </tspan><tspan x="0" y="14.8" class="st1 st3">licenses/by/3.0/legalcode</tspan></text>
<path id="whole" class="st4" d="M13.9,12.8c0,5,4.1,9.1,9.1,9.1s9.1-4.1,9.1-9.1c0-5-4.1-9.1-9.1-9.1S13.9,7.8,13.9,12.8L13.9,12.8z
	 M28.5,12.8c0,3.1-2.5,5.5-5.5,5.5s-5.5-2.5-5.5-5.5s2.5-5.5,5.5-5.5l0,0C26.1,7.3,28.5,9.8,28.5,12.8z"/>
</svg>
