<?xml version="1.0" encoding="utf-8"?>
<!-- Generator: Adobe Illustrator 21.0.2, SVG Export Plug-In . SVG Version: 6.00 Build 0)  -->
<svg version="1.1" id="Layer_1" xmlns="http://www.w3.org/2000/svg" xmlns:xlink="http://www.w3.org/1999/xlink" x="0px" y="0px"
	 viewBox="0 0 46 32" style="enable-background:new 0 0 46 32;" xml:space="preserve">
<style type="text/css">
	.st0{fill:#404040;}
	.st1{fill:#8D8C8C;}
	.st2{fill:#8C8663;}
	.st3{fill:#B8AF82;}
	.st4{fill:#80795B;}
	.st5{fill:#5E5B43;}
	.st6{fill:#9A916C;}
	.st7{fill:#2A2A29;}
</style>
<g id="VOLTAGE">
	<g id="g4748">
		<polygon id="polygon4750" class="st0" points="25.1,27.5 26.7,25.9 26.7,6.2 25.1,4.6 20.9,4.6 19.3,6.2 19.3,25.9 20.9,27.5 		
			"/>
		<g id="g4752">
			<rect id="_x30_.1.2.0.0.0.0.7.0_86_" x="21.8" y="14.8" class="st1" width="2.5" height="2.5"/>
			<rect id="_x30_.1.2.0.0.0.0.32.0_86_" x="22.4" y="15.3" class="st2" width="1.3" height="1.3"/>
			<polygon id="_x30_.1.2.0.0.0.0.33_86_" class="st3" points="22.4,15.3 21.9,14.8 21.9,17.3 22.4,16.6 			"/>
			<polygon id="_x30_.1.2.0.0.0.0.34_86_" class="st4" points="21.9,14.8 24.3,14.8 23.7,15.3 22.4,15.3 			"/>
			<polygon id="_x30_.1.2.0.0.0.0.35_86_" class="st5" points="24.3,14.8 24.3,17.3 23.7,16.6 23.7,15.3 			"/>
			<polygon id="_x30_.1.2.0.0.0.0.36_86_" class="st6" points="23.7,16.6 24.3,17.3 21.9,17.3 22.4,16.6 			"/>
		</g>
		<g id="g4760">
			<rect id="_x30_.1.2.0.0.0.0.6.0_68_" x="21.8" y="22.4" class="st1" width="2.5" height="2.5"/>
			<rect id="_x30_.1.2.0.0.0.0.37.0_68_" x="22.4" y="23" class="st2" width="1.3" height="1.3"/>
			<polygon id="_x30_.1.2.0.0.0.0.38_68_" class="st3" points="22.4,23 21.9,22.4 21.9,24.9 22.4,24.2 			"/>
			<polygon id="_x30_.1.2.0.0.0.0.39_68_" class="st4" points="21.9,22.4 24.3,22.4 23.7,23 22.4,23 			"/>
			<polygon id="_x30_.1.2.0.0.0.0.40_68_" class="st5" points="24.3,22.4 24.3,24.9 23.7,24.2 23.7,23 			"/>
			<polygon id="_x30_.1.2.0.0.0.0.41_68_" class="st6" points="23.7,24.2 24.3,24.9 21.9,24.9 22.4,24.2 			"/>
		</g>
		<g id="g4768">
			<rect id="_x30_.1.2.0.0.0.0.7.0_85_" x="21.8" y="7" class="st1" width="2.5" height="2.5"/>
			<rect id="_x30_.1.2.0.0.0.0.32.0_85_" x="22.4" y="7.6" class="st2" width="1.3" height="1.3"/>
			<polygon id="_x30_.1.2.0.0.0.0.33_85_" class="st3" points="22.4,7.7 21.9,7 21.9,9.5 22.4,8.9 			"/>
			<polygon id="_x30_.1.2.0.0.0.0.34_85_" class="st4" points="21.9,7 24.3,7 23.7,7.7 22.4,7.7 			"/>
			<polygon id="_x30_.1.2.0.0.0.0.35_85_" class="st5" points="24.3,7 24.3,9.5 23.7,8.9 23.7,7.7 			"/>
			<polygon id="_x30_.1.2.0.0.0.0.36_85_" class="st6" points="23.7,8.9 24.3,9.5 21.9,9.5 22.4,8.9 			"/>
		</g>
	</g>
	<g id="g4776">
		<polygon id="polygon4778" class="st7" points="19.3,17.3 19.3,17.8 19.3,19.7 26.7,19.7 26.7,17.8 26.7,17.3 26.7,14.8 24.3,14.8 
			24.3,17.3 21.8,17.3 21.8,14.8 19.3,14.8 		"/>
		<polygon id="polygon4780" class="st7" points="26.7,7 26.7,6.5 26.7,4.6 19.3,4.6 19.3,6.5 19.3,7 19.3,9.5 21.8,9.5 21.8,7 
			24.3,7 24.3,9.5 26.7,9.5 		"/>
		<g id="g4782">
			<rect id="rect4784" x="21.1" y="7.7" class="st3" width="0.6" height="8.9"/>
			<rect id="rect4786" x="21.1" y="7" class="st6" width="0.6" height="0.6"/>
			<rect id="rect4788" x="21.1" y="16.6" class="st6" width="0.6" height="0.6"/>
		</g>
		<rect id="rect4790" x="19.3" y="9.3" class="st7" width="1.8" height="5.5"/>
		<rect id="rect4792" x="24.3" y="9.5" class="st7" width="2.5" height="5.3"/>
		<rect id="rect4794" x="21.8" y="9.5" width="2.5" height="5.3"/>
	</g>
</g>
</svg>
