<?xml version="1.0" encoding="utf-8"?>
<!-- Generator: Adobe Illustrator 21.0.2, SVG Export Plug-In . SVG Version: 6.00 Build 0)  -->
<svg version="1.1" id="Layer_1" xmlns="http://www.w3.org/2000/svg" xmlns:xlink="http://www.w3.org/1999/xlink" x="0px" y="0px"
	 viewBox="0 0 65 69.6" style="enable-background:new 0 0 65 69.6;" xml:space="preserve">
<style type="text/css">
	.st0{fill:#999999;}
	.st1{fill:#CCCCCC;}
	.st2{fill:#1A1A1A;}
	.st3{fill:#B3B3B3;}
	.st4{fill:#E6E6E6;}
	.st5{fill:#F2F2F2;}
	.st6{fill:#333333;}
	.st7{font-family:'OCRA';}
	.st8{font-size:3.34px;}
	.st9{font-size:1.9372px;}
	.st10{font-size:2px;}
</style>
<g id="ETHERNET">
	<path id="path1132_1_" class="st0" d="M27.6,6.3c-1.9,0.4-3.9,0.5-5.8,0.3c-0.6-0.1-1.2-0.2-1.8-0.3c-2.5-0.4-5-0.2-7.4,0.6
		c-2.9,0.8-4.8,4-4.8,4.1H6.9C7,10.8,9,6.8,12.3,6c2.5-0.8,5.2-1.1,7.8-0.6c0.7,0.1,1.3,0.2,1.8,0.3C23.8,5.9,25.7,6.1,27.6,6.3
		L27.6,6.3z"/>
	<path id="path1134_1_" class="st1" d="M27.6,5.9v0.4c-1.9,0.2-3.9,0.2-5.8,0C21.2,6.2,20.6,6.1,20,6c-2.5-0.4-5-0.2-7.4,0.6
		c-2.9,0.8-4.8,4-4.8,4.1L6.9,11h0.9c0,0,1.9-3.3,4.8-4.1c2.4-0.8,4.9-1,7.4-0.6c0.6,0.1,1.2,0.2,1.8,0.3c1.9,0.2,3.9,0.1,5.8-0.3
		l0,0L27.6,5.9z"/>
	<path id="path1136_1_" class="st0" d="M27.6,63.6c-1.9-0.4-3.9-0.5-5.8-0.3c-0.6,0.1-1.2,0.2-1.8,0.3c-2.5,0.4-5,0.2-7.4-0.6
		c-2.9-0.8-4.8-4-4.8-4.1H6.9c0.1,0.2,2.1,4.2,5.4,5c2.5,0.8,5.2,1.1,7.8,0.6c0.7-0.1,1.3-0.2,1.8-0.3C23.8,64,25.7,63.8,27.6,63.6
		L27.6,63.6L27.6,63.6z"/>
	<path id="path1138_1_" class="st1" d="M27.6,64v-0.4c-1.9-0.2-3.9-0.2-5.8,0c-0.6,0.1-1.2,0.2-1.8,0.3c-2.5,0.4-5,0.2-7.4-0.6
		c-2.9-0.8-4.8-4-4.8-4.1L7,58.9h0.9c0,0,1.9,3.3,4.8,4.1c2.4,0.8,4.9,1,7.4,0.6c0.6-0.1,1.2-0.2,1.8-0.3c1.9-0.2,3.9-0.1,5.8,0.3
		v0.1L27.6,64z"/>
	<rect id="rect1140_1_" x="6.2" y="10.4" class="st2" width="53.5" height="49.3"/>
	<path id="path1142_1_" class="st3" d="M16.8,22.6c0.4,0,0.8,0.4,0.8,0.8l0,0v3c0,0.4-0.4,0.8-0.8,0.8H6.1c-0.4,0-0.8-0.4-0.8-0.8
		v-3c0-0.4,0.4-0.8,0.8-0.8H16.8z"/>
	<path id="path1144_1_" class="st3" d="M16.8,42.9c0.4,0,0.8,0.4,0.8,0.8l0,0v3c0,0.4-0.4,0.8-0.8,0.8H6.1c-0.4,0-0.8-0.4-0.8-0.8
		v-3c0-0.4,0.4-0.8,0.8-0.8H16.8z"/>
	<path id="path1146_1_" class="st1" d="M16.8,22.6c0.4,0,0.8,0.4,0.8,0.8l0,0v3c0,0.4-0.4,0.8-0.8,0.8h-1.3v-4.6L16.8,22.6
		L16.8,22.6z"/>
	<path id="path1148_1_" class="st1" d="M16.8,42.9c0.4,0,0.8,0.4,0.8,0.8l0,0v3c0,0.4-0.4,0.8-0.8,0.8h-1.3v-4.6H16.8L16.8,42.9z"/>
	<rect id="rect1150_1_" x="11.1" y="22.6" class="st0" width="4.6" height="4.6"/>
	<rect id="rect1152_1_" x="11.1" y="42.9" class="st0" width="4.6" height="4.6"/>
	<rect id="rect1154_1_" x="8.4" y="22.6" class="st3" width="4.4" height="4.6"/>
	<rect id="rect1156_1_" x="8.4" y="42.9" class="st3" width="4.4" height="4.6"/>
	<rect id="rect1158_1_" x="9.1" y="22.6" class="st1" width="1.6" height="4.6"/>
	<rect id="rect1160_1_" x="9.1" y="42.9" class="st1" width="1.6" height="4.6"/>
	<rect id="rect1162_1_" x="15.5" y="22.6" class="st4" width="0.4" height="4.6"/>
	<rect id="rect1164_1_" x="15.9" y="22.6" class="st5" width="0.5" height="4.6"/>
	<text id="text1168_1_" transform="matrix(0 1 -1 0 48.8906 25.2118)" class="st6 st7 st8">LINK-PP</text>
	<text id="text1170_1_" transform="matrix(0 1 -1 0 50.0039 41.932)" class="st6 st7 st9">TM</text>
	<text id="text1172_1_" transform="matrix(0 1 -1 0 44.8906 25.6719)" class="st6 st7 st10">LPJG16314A4NL</text>
</g>
</svg>
