<?xml version="1.0" encoding="utf-8"?>
<!-- Generator: Adobe Illustrator 21.1.0, SVG Export Plug-In . SVG Version: 6.00 Build 0)  -->
<svg version="1.1" id="Layer_1" xmlns="http://www.w3.org/2000/svg" xmlns:xlink="http://www.w3.org/1999/xlink" x="0px" y="0px"
	 viewBox="0 0 48 53" style="enable-background:new 0 0 48 53;" xml:space="preserve">
<style type="text/css">
	.st0{fill:none;}
	.st1{font-family:'ArialMT';}
	.st2{font-size:3px;}
	.st3{font-size:2px;}
	.st4{fill:#232323;}
	.st5{fill:#494949;}
	.st6{fill:#3D3D3D;fill-opacity:0.3;}
	.st7{fill:#0F0F0F;fill-opacity:0.4;}
	.st8{fill:#6D6D6D;}
</style>
<rect x="2" y="33.8" class="st0" width="42" height="19.2"/>
<text transform="matrix(1 0 0 1 2 35.9814)"><tspan x="0" y="0" class="st1 st2">Copyright (C) </tspan><tspan x="0" y="3.6" class="st1 st2">2017 Intel Corporation.</tspan><tspan x="0" y="7.6" class="st1 st3">This document is licensed under the Creative </tspan><tspan x="0" y="10" class="st1 st3">Commons Attribution 3.0 Unported License </tspan><tspan x="0" y="12.4" class="st1 st3">(“CC-BY-3.0”):https://creativecommons.org/ </tspan><tspan x="0" y="14.8" class="st1 st3">licenses/by/3.0/legalcode</tspan></text>
<g id="power_1_">
	<g id="powersupply_dc-21mm_1_">
		<g id="_0.1.13.0.0_1_">
			<g id="_0.1.13.0.0.0_1_">
				<g id="_0.1.13.0.0.0.0_1_">
					<g id="dc-21mm_1_">
						<g id="_0.1.13.0.0.0.0.0.0_1_">
							<g id="_0.1.13.0.0.0.0.0.0.0_1_">
								<g id="_0.1.13.0.0.0.0.0.0.0.0_1_">
									<g id="_0.1.13.0.0.0.0.0.0.0.0.0_1_">
										<rect id="_0.1.13.0.0.0.0.0.0.0.0.0.0_1_" x="7.5" y="4.2" class="st4" width="35.8" height="23.7"/>
										<rect id="_0.1.13.0.0.0.0.0.0.0.0.0.1_1_" x="8.1" y="4.8" class="st5" width="34.7" height="1.6"/>
										<rect id="_0.1.13.0.0.0.0.0.0.0.0.0.2_1_" x="8.1" y="6.5" class="st6" width="34.7" height="5.4"/>
										<rect id="_0.1.13.0.0.0.0.0.0.0.0.0.3_1_" x="7.1" y="25.8" width="35.8" height="1.6"/>
										<rect id="_0.1.13.0.0.0.0.0.0.0.0.0.4_1_" x="7.1" y="20.1" class="st7" width="35.8" height="5.8"/>
									</g>
								</g>
								<g id="_0.1.13.0.0.0.0.0.0.0.3_1_">
									<path id="_0.1.13.0.0.0.0.0.0.0.3.0_1_" class="st4" d="M10,8.6v15.1h13.3c4.2,0,7.5-3.4,7.5-7.5c0-4.2-3.4-7.5-7.5-7.5H10
										z"/>
									<rect id="_0.1.13.0.0.0.0.0.0.0.3.1_1_" x="3" y="3.3" class="st4" width="7.7" height="25.5"/>
								</g>
								<rect id="_0.1.13.0.0.0.0.0.0.0.4_1_" x="43.3" y="13.2" class="st8" width="1.7" height="5.7"/>
								<rect id="_0.1.13.0.0.0.0.0.0.0.5_1_" x="43.3" y="10.5" class="st5" width="1" height="11.2"/>
								<rect id="_0.1.13.0.0.0.0.0.0.0.6_1_" x="3.7" y="3.8" class="st5" width="6.3" height="1.1"/>
								<rect id="_0.1.13.0.0.0.0.0.0.0.7_1_" x="3.7" y="27.4" width="6.3" height="1.1"/>
							</g>
						</g>
					</g>
				</g>
			</g>
		</g>
	</g>
</g>
</svg>
