<?xml version="1.0" encoding="utf-8"?>
<!-- Generator: Adobe Illustrator 21.1.0, SVG Export Plug-In . SVG Version: 6.00 Build 0)  -->
<svg version="1.1" id="Layer_1" xmlns="http://www.w3.org/2000/svg" xmlns:xlink="http://www.w3.org/1999/xlink" x="0px" y="0px"
	 viewBox="0 0 44 42" style="enable-background:new 0 0 44 42;" xml:space="preserve">
<style type="text/css">
	.st0{fill:none;}
	.st1{font-family:'ArialMT';}
	.st2{font-size:3px;}
	.st3{font-size:2px;}
	.st4{fill:#F2F2F2;}
	.st5{fill:#FFFFFF;}
	.st6{fill:#D1C690;}
	.st7{fill:#9D956C;}
</style>
<rect x="2" y="22.8" class="st0" width="42" height="19.2"/>
<text transform="matrix(1 0 0 1 2 24.9814)"><tspan x="0" y="0" class="st1 st2">Copyright (C) </tspan><tspan x="0" y="3.6" class="st1 st2">2017 Intel Corporation.</tspan><tspan x="0" y="7.6" class="st1 st3">This document is licensed under the Creative </tspan><tspan x="0" y="10" class="st1 st3">Commons Attribution 3.0 Unported License </tspan><tspan x="0" y="12.4" class="st1 st3">(“CC-BY-3.0”):https://creativecommons.org/ </tspan><tspan x="0" y="14.8" class="st1 st3">licenses/by/3.0/legalcode</tspan></text>
<g id="VOLTAGE_INDICATOR">
	<g id="BV_D3">
		<rect id="_x30_.1.10.0.0.0.0.0.1.0_5_" x="16" y="9.5" class="st4" width="12.1" height="4.3"/>
		<rect id="_x30_.1.10.0.0.0.0.0.3.0.0_5_" x="21.2" y="11.1" class="st5" width="1.4" height="1.1"/>
		<polygon id="_x30_.1.10.0.0.0.0.0.4.0_5_" class="st6" points="24.6,12.7 24.6,13.4 26.2,13.4 26.2,12.7 		"/>
		<path id="_x30_.1.10.0.0.0.0.0.4.1.0_5_" class="st6" d="M24.8,13.1L24.8,13.1c-0.4,0-0.7-0.2-1.1-0.2c-0.4-0.2-0.9-0.9-1.4-0.7
			h-0.2l0,0c0.5-0.2,1.1,0.7,1.4,0.7C24.1,12.9,24.4,12.9,24.8,13.1L24.8,13.1L24.8,13.1L24.8,13.1z"/>
		<polygon id="_x30_.1.10.0.0.0.0.0.4.2_5_" class="st6" points="19,10.7 19,10.2 17.4,10 17.4,10.9 		"/>
		<path id="_x30_.1.10.0.0.0.0.0.4.3.0_5_" class="st6" d="M21.7,11.8L21.7,11.8c-0.2-0.4-1.8-1.3-3.2-1.3h-0.2c0,0,0,0,0.2,0l0,0
			C19.7,10.4,21.7,11.3,21.7,11.8C21.9,11.8,21.7,11.8,21.7,11.8L21.7,11.8z"/>
		<path id="_x30_.1.10.0.0.0.0.0.4.4_5_" class="st6" d="M22.5,11.8c0,0-0.5,0-0.5,0.4c0.2,0,0.5,0,0.5,0V11.8z"/>
		<path id="_x30_.1.10.0.0.0.0.0.4.5_5_" class="st6" d="M21.7,11.4c0,0,0.2,0.4,0,0.4s-0.4,0-0.4,0L21.7,11.4z"/>
		<path id="_x30_.1.10.0.0.0.0.0.4.6_5_" class="st7" d="M22.5,12.2c0.4-0.2,1.1,0.7,1.4,0.7c0.2,0,0.5,0.2,0.9,0.2l0,0
			c-0.4,0-0.7-0.2-0.9-0.2C23.4,12.9,22.8,12,22.5,12.2L22.5,12.2z"/>
		<polygon id="_x30_.1.10.0.0.0.0.0.4.7_5_" class="st7" points="19,10.7 17.4,10.9 17.4,10.9 		"/>
		<path id="_x30_.1.10.0.0.0.0.0.4.8_5_" class="st7" d="M21.7,11.8c-0.2-0.4-1.8-1.4-3.1-1.3l0,0C19.9,10.4,21.5,11.4,21.7,11.8
			L21.7,11.8z"/>
		<path id="_x30_.1.10.0.0.0.0.0.4.10_5_" class="st7" d="M21.5,12c0.2,0.2,0.2,0,0.4,0l0,0C21.7,12,21.5,12,21.5,12L21.5,12
			L21.5,12z"/>
		<path id="_x30_.1.10.0.0.0.0.0.9_5_" class="st6" d="M16,13.8h1.3v-0.5c0-0.2,0.2-0.2,0.4-0.4V9.5H16V13.8L16,13.8"/>
		<path id="_x30_.1.10.0.0.0.0.0.11_5_" class="st6" d="M28,13.8L28,13.8V9.5h-1.8v3.8c0.2,0,0.4,0.2,0.4,0.4v0.2L28,13.8"/>
	</g>
</g>
</svg>
