<?xml version="1.0" encoding="utf-8"?>
<!-- Generator: Adobe Illustrator 21.0.2, SVG Export Plug-In . SVG Version: 6.00 Build 0)  -->
<svg version="1.1" id="Layer_1" xmlns="http://www.w3.org/2000/svg" xmlns:xlink="http://www.w3.org/1999/xlink" x="0px" y="0px"
	 viewBox="0 0 47 31.5" style="enable-background:new 0 0 47 31.5;" xml:space="preserve">
<style type="text/css">
	.st0{fill:#666666;}
	.st1{fill:#999999;}
	.st2{fill:#B3B3B3;}
	.st3{fill:#333333;}
	.st4{fill:#CCCCCC;}
	.st5{fill:#E6E6E6;}
	.st6{fill:#F2F2F2;}
</style>
<g id="microHDMI_2_">
	<g id="mcr-ab1-s-ra-smt_2_">
		<g id="_0.2.49.0.0_2_">
			<g id="_0.1.49.0_2_">
				<g id="_0.1.49.0.0_2_">
					<g id="_0.2.49.0.0.0.0.0_2_">
						<g id="_0.1.49.0.0.0_2_">
							<rect id="_0.1.49.0.0.0.0_2_" x="19.4" y="5.8" class="st0" width="1" height="0.7"/>
						</g>
					</g>
					<g id="_0.2.49.0.0.0.0.1_2_">
						<g id="_0.1.49.0.0.1_2_">
							<rect id="_0.1.49.0.0.1.0_2_" x="19.4" y="5.8" class="st1" width="0.1" height="0.5"/>
						</g>
					</g>
				</g>
				<g id="_0.1.49.0.1_2_">
					<g id="_0.2.49.0.0.0.1.0_2_">
						<g id="_0.1.49.0.1.0_2_">
							<rect id="_0.1.49.0.1.0.0_2_" x="21.3" y="5.8" class="st0" width="1" height="0.7"/>
						</g>
					</g>
					<g id="_0.2.49.0.0.0.1.1_2_">
						<g id="_0.1.49.0.1.1_2_">
							<rect id="_0.1.49.0.1.1.0_2_" x="21.3" y="5.8" class="st1" width="0.1" height="0.5"/>
						</g>
					</g>
				</g>
				<g id="_0.1.49.0.2_2_">
					<g id="_0.2.49.0.0.0.2.0_2_">
						<g id="_0.1.49.0.2.0_2_">
							<rect id="_0.1.49.0.2.0.0_2_" x="23.1" y="5.8" class="st0" width="1" height="0.7"/>
						</g>
					</g>
					<g id="_0.2.49.0.0.0.2.1_2_">
						<g id="_0.1.49.0.2.1_2_">
							<rect id="_0.1.49.0.2.1.0_2_" x="23.1" y="5.8" class="st1" width="0.1" height="0.5"/>
						</g>
					</g>
				</g>
				<g id="_0.1.49.0.3_2_">
					<g id="_0.2.49.0.0.0.3.0_2_">
						<g id="_0.1.49.0.3.0_2_">
							<rect id="_0.1.49.0.3.0.0_2_" x="25" y="5.8" class="st0" width="1" height="0.7"/>
						</g>
					</g>
					<g id="_0.2.49.0.0.0.3.1_2_">
						<g id="_0.1.49.0.3.1_2_">
							<rect id="_0.1.49.0.3.1.0_2_" x="25" y="5.8" class="st1" width="0.1" height="0.5"/>
						</g>
					</g>
				</g>
				<g id="_0.1.49.0.4_2_">
					<g id="_0.2.49.0.0.0.4.0_2_">
						<g id="_0.1.49.0.4.0_2_">
							<rect id="_0.1.49.0.4.0.0_2_" x="26.8" y="5.8" class="st0" width="1" height="0.7"/>
						</g>
					</g>
					<g id="_0.2.49.0.0.0.4.1_2_">
						<g id="_0.1.49.0.4.1_2_">
							<rect id="_0.1.49.0.4.1.0_2_" x="26.8" y="5.8" class="st1" width="0.1" height="0.5"/>
						</g>
					</g>
				</g>
				<g id="_0.1.49.0.5_2_">
					<polygon id="_0.1.49.0.5.0_2_" class="st2" points="33.1,21.3 33,23.2 14.3,23.2 14.2,21.5 14.2,6.2 33.1,6.2 					"/>
					<g id="_0.2.49.0.0.0.5.1_2_">
						<g id="_0.1.49.0.5.1_2_">
							<rect id="_0.1.49.0.5.1.0_2_" x="33.3" y="12.8" class="st0" width="1.8" height="3"/>
						</g>
					</g>
					<g id="_0.2.49.0.0.0.5.2_2_">
						<g id="_0.1.49.0.5.2_2_">
							<rect id="_0.1.49.0.5.2.0_2_" x="12.1" y="12.8" class="st0" width="1.8" height="3"/>
						</g>
					</g>
					<g id="_0.2.49.0.0.0.5.3_2_">
						<g id="_0.1.49.0.5.3_2_">
							<rect id="_0.1.49.0.5.3.0_2_" x="18.5" y="6.2" class="st3" width="10.3" height="18.6"/>
						</g>
					</g>
					<g id="_0.2.49.0.0.0.5.4_2_">
						<g id="_0.1.49.0.5.4_2_">
							<rect id="_0.1.49.0.5.4.0_2_" x="13" y="24" class="st2" width="1" height="1.1"/>
						</g>
					</g>
					<g id="_0.2.49.0.0.0.5.5_2_">
						<g id="_0.1.49.0.5.5_2_">
							<rect id="_0.1.49.0.5.5.0_2_" x="13.3" y="24" class="st4" width="0.6" height="1.1"/>
						</g>
					</g>
					<g id="_0.2.49.0.0.0.5.6_2_">
						<g id="_0.1.49.0.5.6_2_">
							<rect id="_0.1.49.0.5.6.0_2_" x="33.3" y="24" class="st2" width="1" height="1.1"/>
						</g>
					</g>
					<g id="_0.2.49.0.0.0.5.7_2_">
						<g id="_0.1.49.0.5.7_2_">
							<rect id="_0.1.49.0.5.7.0_2_" x="33.3" y="24" class="st4" width="0.6" height="1.1"/>
						</g>
					</g>
					<path id="_0.1.49.0.5.8_2_" class="st5" d="M29.9,6.2v1.6h-1.6V6.2h-0.5v0.6h-8.4V6.2h-0.5v1.6h-1.6V6.2H14V25h19.3V6.2H29.9z
						 M18.9,20v0.8h-1.6V20c-0.4-0.3-0.7-0.8-0.7-1.3c0-0.6,0.2-1.1,0.7-1.4v-4.5h1.6v4.5c0.8,0.4,1,1.3,0.6,2.1
						C19.4,19.7,19.2,19.9,18.9,20z M29.8,20v0.8h-1.6V20c-0.4-0.3-0.7-0.8-0.7-1.3c0-0.6,0.2-1.1,0.7-1.4v-4.5h1.6v4.5
						c0.8,0.4,1,1.3,0.6,2.1C30.3,19.7,30.1,19.9,29.8,20z"/>
					<polygon id="_0.1.49.0.5.9_2_" class="st6" points="14.4,25 14,25 14,6.2 15.5,6.2 					"/>
					<polygon id="_0.1.49.0.5.10_2_" class="st1" points="33.3,25 32.7,12.2 32.1,6.2 33.3,6.2 					"/>
					<g id="_0.2.49.0.0.0.5.11_2_">
						<g id="_0.1.49.0.5.11_2_">
							<rect id="_0.1.49.0.5.11.0_2_" x="17.3" y="12.8" class="st4" width="1.6" height="0.1"/>
						</g>
					</g>
					<g id="_0.2.49.0.0.0.5.12_2_">
						<g id="_0.1.49.0.5.12_2_">
							<rect id="_0.1.49.0.5.12.0_2_" x="28.2" y="12.8" class="st4" width="1.6" height="0.1"/>
						</g>
					</g>
				</g>
			</g>
		</g>
	</g>
</g>
</svg>
