<?xml version="1.0" encoding="utf-8"?>
<!-- Generator: Adobe Illustrator 21.1.0, SVG Export Plug-In . SVG Version: 6.00 Build 0)  -->
<svg version="1.1" id="Layer_1" xmlns="http://www.w3.org/2000/svg" xmlns:xlink="http://www.w3.org/1999/xlink" x="0px" y="0px"
	 viewBox="0 0 44 46" style="enable-background:new 0 0 44 46;" xml:space="preserve">
<style type="text/css">
	.st0{fill:none;}
	.st1{font-family:'ArialMT';}
	.st2{font-size:3px;}
	.st3{font-size:2px;}
	.st4{fill:#999999;}
	.st5{fill:#3F3F3F;}
	.st6{fill:#FFFFFF;}
	.st7{fill:#2D2D2D;}
</style>
<rect x="2" y="26.8" class="st0" width="42" height="19.2"/>
<text transform="matrix(1 0 0 1 2 28.9814)"><tspan x="0" y="0" class="st1 st2">Copyright (C) </tspan><tspan x="0" y="3.6" class="st1 st2">2017 Intel Corporation.</tspan><tspan x="0" y="7.6" class="st1 st3">This document is licensed under the Creative </tspan><tspan x="0" y="10" class="st1 st3">Commons Attribution 3.0 Unported License </tspan><tspan x="0" y="12.4" class="st1 st3">(“CC-BY-3.0”):https://creativecommons.org/ </tspan><tspan x="0" y="14.8" class="st1 st3">licenses/by/3.0/legalcode</tspan></text>
<g id="Reset_button">
	<path id="path1224_1_" class="st4" d="M13.5,6.6c0-0.8,0.6-1.4,1.4-1.4h14.2c0.8,0,1.4,0.6,1.4,1.4v14.2c0,0.8-0.6,1.4-1.4,1.4
		H14.9c-0.8,0-1.4-0.6-1.4-1.4V6.6L13.5,6.6z"/>
	<circle id="circle1226_1_" cx="28" cy="19.8" r="1.5"/>
	<circle id="circle1228_1_" cx="15.9" cy="19.7" r="1.5"/>
	<circle id="circle1230_1_" cx="16" cy="7.6" r="1.5"/>
	<circle id="circle1232_1_" cx="28.1" cy="7.7" r="1.5"/>
	<circle id="circle1234_1_" class="st5" cx="22" cy="13.7" r="5"/>
	<circle id="circle1236_1_" class="st6" cx="22" cy="13.7" r="5"/>
	<circle id="circle1238_1_" class="st7" cx="22" cy="13.5" r="4.4"/>
	<circle id="circle1240_1_" class="st6" cx="22" cy="13.7" r="4.2"/>
	<path id="path1242_1_" class="st4" d="M20.5,17.7c0.3,0.1,0.7,0.2,1,0.3c0.9,0.1,1.8-0.1,2.5-0.5l0.1-0.2c-0.9,0.5-1.8,0.7-2.8,0.5
		c-0.3,0-0.6-0.1-0.9-0.2L20.5,17.7z"/>
</g>
</svg>
