<?xml version="1.0" encoding="utf-8"?>
<!-- Generator: Adobe Illustrator 21.0.2, SVG Export Plug-In . SVG Version: 6.00 Build 0)  -->
<!-- Copyright (C) 2017 Intel Corporation. These files are licensed under the Creative Commons Attribution 3.0 Unported License (CC-BY-3.0) -->
<svg version="1.1" id="Layer_1" xmlns="http://www.w3.org/2000/svg" xmlns:xlink="http://www.w3.org/1999/xlink" x="0px" y="0px"
	 viewBox="0 0 44 31" style="enable-background:new 0 0 44 31;" xml:space="preserve">
		 <metadata id="license"
		xmlns:rdf="http://www.w3.org/1999/02/22-rdf-syntax-ns#"
		xmlns:dc="http://purl.org/dc/elements/1.1/"
    xmlns:cc="http://creativecommons.org/ns#">
	  <rdf:RDF>
	    <cc:Work rdf:about="">
	    	<cc:license rdf:resource="https://creativecommons.org/licenses/by/3.0/" />
			</cc:Work>
	    <cc:License rdf:about="https://creativecommons.org/licenses/by/3.0/">
	    </cc:License>
	  </rdf:RDF>
	</metadata>
<style type="text/css">
	.st0{fill:#999999;}
	.st1{fill:#3F3F3F;}
	.st2{fill:#FFFFFF;}
	.st3{fill:#2D2D2D;}
</style>
<g id="SW1_1_" transform="translate(212.26938,60.528949)">
	<g id="g1593_1_" transform="matrix(-1,0,0,-1,34.0157,34.0157)">
		<g id="g1595_1_">
			<path id="path1597_1_" class="st0" d="M233.5,86.8c0,0.9-0.6,1.5-1.5,1.5h-15.4c-0.9,0-1.5-0.6-1.5-1.5V71.2
				c0-0.9,0.6-1.5,1.5-1.5H232c0.9,0,1.5,0.6,1.5,1.5V86.8L233.5,86.8z"/>
			<circle id="circle1599_1_" cx="217.7" cy="72.4" r="2.3"/>
			<circle id="circle1601_1_" cx="230.9" cy="72.4" r="2.3"/>
			<circle id="circle1603_1_" cx="230.8" cy="85.6" r="2.3"/>
			<circle id="circle1605_1_" cx="217.6" cy="85.6" r="2.3"/>
			<circle id="circle1607_1_" class="st1" cx="224.3" cy="78.9" r="7.6"/>
			<circle id="circle1609_1_" class="st2" cx="224.3" cy="78.9" r="7.6"/>
			<circle id="circle1611_1_" class="st3" cx="224.3" cy="79.2" r="6.7"/>
			<circle id="circle1613_1_" class="st2" cx="224.3" cy="79" r="6.5"/>
			<path id="path1615_1_" class="st0" d="M225.9,74.7c-0.3-0.1-0.8-0.2-1.1-0.3c-1-0.1-2,0.1-2.7,0.5l-0.2,0.3c0.9-0.5,2-0.8,3-0.5
				c0.3,0,0.6,0.1,1,0.2V74.7z"/>
		</g>
	</g>
</g>
</svg>
