<?xml version="1.0" encoding="utf-8"?>
<!-- Generator: Adobe Illustrator 21.1.0, SVG Export Plug-In . SVG Version: 6.00 Build 0)  -->
<svg version="1.1" id="Layer_1" xmlns="http://www.w3.org/2000/svg" xmlns:xlink="http://www.w3.org/1999/xlink" x="0px" y="0px"
	 viewBox="0 0 44 49" style="enable-background:new 0 0 44 49;" xml:space="preserve">
<style type="text/css">
	.st0{fill:none;}
	.st1{font-family:'ArialMT';}
	.st2{font-size:3px;}
	.st3{font-size:2px;}
	.st4{fill:#999999;}
	.st5{fill:#3F3F3F;}
	.st6{fill:#FFFFFF;}
	.st7{fill:#2D2D2D;}
</style>
<rect x="2" y="29.8" class="st0" width="42" height="19.2"/>
<text transform="matrix(1 0 0 1 2 31.9814)"><tspan x="0" y="0" class="st1 st2">Copyright (C) </tspan><tspan x="0" y="3.6" class="st1 st2">2017 Intel Corporation.</tspan><tspan x="0" y="7.6" class="st1 st3">This document is licensed under the Creative </tspan><tspan x="0" y="10" class="st1 st3">Commons Attribution 3.0 Unported License </tspan><tspan x="0" y="12.4" class="st1 st3">(“CC-BY-3.0”):https://creativecommons.org/ </tspan><tspan x="0" y="14.8" class="st1 st3">licenses/by/3.0/legalcode</tspan></text>
<g id="SW1_1_" transform="translate(212.26938,60.528949)">
	<g id="g1593_1_" transform="matrix(-1,0,0,-1,34.0157,34.0157)">
		<g id="g1595_1_">
			<path id="path1597_1_" class="st4" d="M233.5,86.8c0,0.9-0.6,1.5-1.5,1.5h-15.4c-0.9,0-1.5-0.6-1.5-1.5V71.2
				c0-0.9,0.6-1.5,1.5-1.5H232c0.9,0,1.5,0.6,1.5,1.5V86.8L233.5,86.8z"/>
			<circle id="circle1599_1_" cx="217.7" cy="72.4" r="2.3"/>
			<circle id="circle1601_1_" cx="230.9" cy="72.4" r="2.3"/>
			<circle id="circle1603_1_" cx="230.8" cy="85.6" r="2.3"/>
			<circle id="circle1605_1_" cx="217.6" cy="85.6" r="2.3"/>
			<circle id="circle1607_1_" class="st5" cx="224.3" cy="78.9" r="7.6"/>
			<circle id="circle1609_1_" class="st6" cx="224.3" cy="78.9" r="7.6"/>
			<circle id="circle1611_1_" class="st7" cx="224.3" cy="79.2" r="6.7"/>
			<circle id="circle1613_1_" class="st6" cx="224.3" cy="79" r="6.5"/>
			<path id="path1615_1_" class="st4" d="M225.9,74.7c-0.3-0.1-0.8-0.2-1.1-0.3c-1-0.1-2,0.1-2.7,0.5l-0.2,0.3c0.9-0.5,2-0.8,3-0.5
				c0.3,0,0.6,0.1,1,0.2V74.7z"/>
		</g>
	</g>
</g>
</svg>
