<?xml version="1.0" encoding="utf-8"?>
<!-- Generator: Adobe Illustrator 21.0.2, SVG Export Plug-In . SVG Version: 6.00 Build 0)  -->
<!-- Copyright (C) 2017 Intel Corporation. These files are licensed under the Creative Commons Attribution 3.0 Unported License (CC-BY-3.0) -->
<svg version="1.1" id="Layer_1" xmlns="http://www.w3.org/2000/svg" xmlns:xlink="http://www.w3.org/1999/xlink" x="0px" y="0px"
	 viewBox="0 0 44 27" style="enable-background:new 0 0 44 27;" xml:space="preserve">
		 <metadata id="license"
		xmlns:rdf="http://www.w3.org/1999/02/22-rdf-syntax-ns#"
		xmlns:dc="http://purl.org/dc/elements/1.1/"
    xmlns:cc="http://creativecommons.org/ns#">
	  <rdf:RDF>
	    <cc:Work rdf:about="">
	    	<cc:license rdf:resource="https://creativecommons.org/licenses/by/3.0/" />
			</cc:Work>
	    <cc:License rdf:about="https://creativecommons.org/licenses/by/3.0/">
	    </cc:License>
	  </rdf:RDF>
	</metadata>
<style type="text/css">
	.st0{fill:#999999;}
	.st1{fill:#3F3F3F;}
	.st2{fill:#FFFFFF;}
	.st3{fill:#2D2D2D;}
</style>
<g id="Reset_button">
	<path id="path1224_1_" class="st0" d="M13.5,6.6c0-0.8,0.6-1.4,1.4-1.4h14.2c0.8,0,1.4,0.6,1.4,1.4v14.2c0,0.8-0.6,1.4-1.4,1.4
		H14.9c-0.8,0-1.4-0.6-1.4-1.4V6.6L13.5,6.6z"/>
	<circle id="circle1226_1_" cx="28" cy="19.8" r="1.5"/>
	<circle id="circle1228_1_" cx="15.9" cy="19.7" r="1.5"/>
	<circle id="circle1230_1_" cx="16" cy="7.6" r="1.5"/>
	<circle id="circle1232_1_" cx="28.1" cy="7.7" r="1.5"/>
	<circle id="circle1234_1_" class="st1" cx="22" cy="13.7" r="5"/>
	<circle id="circle1236_1_" class="st2" cx="22" cy="13.7" r="5"/>
	<circle id="circle1238_1_" class="st3" cx="22" cy="13.5" r="4.4"/>
	<circle id="circle1240_1_" class="st2" cx="22" cy="13.7" r="4.2"/>
	<path id="path1242_1_" class="st0" d="M20.5,17.7c0.3,0.1,0.7,0.2,1,0.3c0.9,0.1,1.8-0.1,2.5-0.5l0.1-0.2c-0.9,0.5-1.8,0.7-2.8,0.5
		c-0.3,0-0.6-0.1-0.9-0.2L20.5,17.7z"/>
</g>
</svg>
