<?xml version="1.0" encoding="utf-8"?>
<!-- Generator: Adobe Illustrator 21.1.0, SVG Export Plug-In . SVG Version: 6.00 Build 0)  -->
<svg version="1.1" id="Layer_1" xmlns="http://www.w3.org/2000/svg" xmlns:xlink="http://www.w3.org/1999/xlink" x="0px" y="0px"
	 viewBox="0 0 44 49" style="enable-background:new 0 0 44 49;" xml:space="preserve">
<style type="text/css">
	.st0{fill:none;}
	.st1{font-family:'ArialMT';}
	.st2{font-size:3px;}
	.st3{font-size:2px;}
	.st4{fill:#CCCCCC;}
	.st5{fill:#641D1C;}
	.st6{opacity:0.2;enable-background:new    ;}
	.st7{fill:#852725;}
	.st8{opacity:0.1;enable-background:new    ;}
	.st9{opacity:0.2;fill:#FFFFFF;enable-background:new    ;}
	.st10{fill:#E6E6E6;}
</style>
<rect x="2" y="29.8" class="st0" width="42" height="19.2"/>
<text transform="matrix(1 0 0 1 2 31.9814)"><tspan x="0" y="0" class="st1 st2">Copyright (C) </tspan><tspan x="0" y="3.6" class="st1 st2">2017 Intel Corporation.</tspan><tspan x="0" y="7.6" class="st1 st3">This document is licensed under the Creative </tspan><tspan x="0" y="10" class="st1 st3">Commons Attribution 3.0 Unported License </tspan><tspan x="0" y="12.4" class="st1 st3">(“CC-BY-3.0”):https://creativecommons.org/ </tspan><tspan x="0" y="14.8" class="st1 st3">licenses/by/3.0/legalcode</tspan></text>
<g id="_x30_.1.15" transform="matrix(1, 0, 0, 1, 8.7817, 8.95615)">
	<g id="smd_157sw">
		<g id="_x30_.1.15.0.0" transform="matrix(0, -1, 1, 0, 0.777996, 13.82)">
			<g id="_x30_.1.15.0.0.0">
				<polygon id="_x30_.1.15.0.0.0.0" class="st4" points="-2,8.2 -1.6,8.2 -1.6,16.5 -2,16.5 -2,22.7 14,22.7 14,2 -2,2 				"/>
				<polygon id="_x30_.1.15.0.0.0.1" class="st4" points="16.5,16.5 16.2,16.5 16.2,8.2 16.5,8.2 16.5,2 0.7,2 0.7,22.7 16.5,22.7 
									"/>
				<circle id="_x30_.1.15.0.0.0.2" class="st5" cx="7.3" cy="12.3" r="5.1"/>
				<path id="_x30_.1.15.0.0.0.3" class="st6" d="M7.5,17.5c2.8,0,5.1-2.3,5.1-5.1s-2.3-5.1-5.1-5.1H7.3c2.8,0,5.1,2.3,5.1,5.1
					s-2.3,5.1-5.1,5.1H7.5z"/>
				<circle id="_x30_.1.15.0.0.0.4" class="st7" cx="7.3" cy="12.3" r="4.9"/>
				<circle id="_x30_.1.15.0.0.0.5" class="st7" cx="7.2" cy="12.3" r="4.9"/>
				<g id="_x30_.1.15.0.0.0.6">
					<path id="_x30_.1.15.0.0.0.6.0" class="st8" d="M2.3,12.5c0,2.7,2.2,4.9,4.9,4.9s4.9-2.2,4.9-4.9v-0.2c0,2.7-2.2,4.9-4.9,4.9
						S2.3,15,2.3,12.3C2.3,12.2,2.3,12.5,2.3,12.5z"/>
					<path id="_x30_.1.15.0.0.0.6.1" class="st9" d="M12.2,12.5c0-2.7-2.2-4.9-4.9-4.9s-4.9,2.2-4.9,4.9v-0.2c0-2.7,2.2-4.9,4.9-4.9
						s4.9,2.2,4.9,4.9V12.5z"/>
				</g>
				<g id="_x30_.1.15.0.0.0.7" transform="matrix(-2.547107e-006 -1 1 -2.547107e-006 -14.7248 21.5506)">
					<rect id="_x30_.1.15.0.0.0.7.0" x="13.3" y="12.7" class="st9" width="6.2" height="0.4"/>
				</g>
				<g id="_x30_.1.15.0.0.0.8" transform="matrix(-2.547107e-006 -1 1 -2.547107e-006 -29.2355 36.0623)">
					<rect id="_x30_.1.15.0.0.0.8.0" x="13.3" y="27.2" class="st9" width="6.2" height="0.4"/>
				</g>
				<g id="_x30_.1.15.0.0.0.9" transform="matrix(-2.547107e-006 -1 1 -2.547107e-006 -21.6146 29.1724)">
					<rect id="_x30_.1.15.0.0.0.9.0" x="12.7" y="20" class="st9" width="8.3" height="0.4"/>
				</g>
				<g id="_x30_.1.15.0.0.0.10" transform="matrix(-2.547107e-006 -1 1 -2.547107e-006 3.4298 39.7056)">
					<rect id="_x30_.1.15.0.0.0.10.0" x="31.5" y="12.7" class="st6" width="6.2" height="0.4"/>
				</g>
				<g id="_x30_.1.15.0.0.0.11" transform="matrix(-2.547107e-006 -1 1 -2.547107e-006 -11.0816 54.2142)">
					<rect id="_x30_.1.15.0.0.0.11.0" x="31.5" y="27.2" class="st6" width="6.2" height="0.4"/>
				</g>
				<g id="_x30_.1.15.0.0.0.12" transform="matrix(-2.547107e-006 -1 1 -2.547107e-006 -4.1966 46.5918)">
					<rect id="_x30_.1.15.0.0.0.12.0" x="30.1" y="20" class="st6" width="8.3" height="0.4"/>
				</g>
			</g>
		</g>
		<g id="_x30_.1.15.0.1">
			<rect id="_x30_.1.15.0.1.0" x="23.5" y="11.5" class="st10" width="2.8" height="2.3"/>
			<rect id="_x30_.1.15.0.1.1" x="23.5" y="-0.7" class="st10" width="2.8" height="2.3"/>
			<rect id="_x30_.1.15.0.1.2" x="0.1" y="4.8" class="st10" width="2.8" height="3.4"/>
			<rect id="_x30_.1.15.0.1.3" x="0.1" y="11.5" class="st10" width="2.8" height="2.3"/>
			<rect id="_x30_.1.15.0.1.4" x="0.1" y="-0.7" class="st10" width="2.8" height="2.3"/>
			<rect id="_x30_.1.15.0.1.5" x="0.1" y="4.8" class="st9" width="0.3" height="3.4"/>
			<rect id="_x30_.1.15.0.1.6" x="0.1" y="11.5" class="st9" width="0.3" height="2.3"/>
			<rect id="_x30_.1.15.0.1.7" x="0.1" y="-0.7" class="st9" width="0.3" height="2.3"/>
			<rect id="_x30_.1.15.0.1.8" x="26.2" y="11.5" class="st6" width="0.1" height="2.3"/>
			<rect id="_x30_.1.15.0.1.9" x="26.2" y="-0.7" class="st6" width="0.1" height="2.3"/>
			<rect id="_x30_.1.15.0.1.10" x="23.5" y="11.6" class="st8" width="0.3" height="2.3"/>
			<rect id="_x30_.1.15.0.1.11" x="23.5" y="-0.7" class="st8" width="0.3" height="2.3"/>
		</g>
	</g>
</g>
</svg>
