<?xml version="1.0" encoding="utf-8"?>
<!-- Generator: Adobe Illustrator 21.0.2, SVG Export Plug-In . SVG Version: 6.00 Build 0)  -->
<svg version="1.1" id="Layer_1" xmlns="http://www.w3.org/2000/svg" xmlns:xlink="http://www.w3.org/1999/xlink" x="0px" y="0px"
	 viewBox="0 0 101 49.5" style="enable-background:new 0 0 101 49.5;" xml:space="preserve">
<style type="text/css">
	.st0{fill:#404040;}
	.st1{fill:#8D8C8C;}
	.st2{fill:#8C8663;}
	.st3{fill:#B8AF82;}
	.st4{fill:#80795B;}
	.st5{fill:#5E5B43;}
	.st6{fill:#9A916C;}
</style>
<g>
	<polygon id="polygon795_1_" class="st0" points="95.8,31.4 97.3,29.9 97.3,26 95.8,24.5 5.4,24.5 3.9,26 3.9,29.9 5.4,31.4 	"/>
	<rect id="_0.1.2.0.0.0.0.7.0-5_1_" x="13.4" y="26.8" class="st1" width="2.3" height="2.3"/>
	<g id="lsePin3_1_">
		<rect id="_0.1.2.0.0.0.0.32.0-5_1_" x="13.9" y="27.3" class="st2" width="1.2" height="1.2"/>
		<polygon id="_0.1.2.0.0.0.0.33-5_1_" class="st3" points="15.7,29 15.1,28.5 13.9,28.5 13.4,29 		"/>
		<polygon id="_0.1.2.0.0.0.0.34-5_1_" class="st4" points="13.9,27.3 13.9,28.5 13.4,29 13.4,26.8 		"/>
		<polygon id="_0.1.2.0.0.0.0.35-5_1_" class="st5" points="15.1,27.3 13.9,27.3 13.4,26.8 15.7,26.8 		"/>
		<polygon id="_0.1.2.0.0.0.0.36-5_1_" class="st6" points="15.7,29 15.1,28.5 15.1,27.3 15.7,26.8 		"/>
	</g>
	<rect id="_0.1.2.0.0.0.0.6.0-5_1_" x="20.6" y="26.8" class="st1" width="2.3" height="2.3"/>
	<g id="lsePin5_1_">
		<rect id="_0.1.2.0.0.0.0.37.0-5_1_" x="21.1" y="27.3" class="st2" width="1.2" height="1.2"/>
		<polygon id="_0.1.2.0.0.0.0.38-5_1_" class="st3" points="22.9,29 22.3,28.5 21.1,28.5 20.6,29 		"/>
		<polygon id="_0.1.2.0.0.0.0.39-5_1_" class="st4" points="21.1,27.3 21.1,28.5 20.6,29 20.6,26.8 		"/>
		<polygon id="_0.1.2.0.0.0.0.40-5_1_" class="st5" points="22.3,27.3 21.1,27.3 20.6,26.8 22.9,26.8 		"/>
		<polygon id="_0.1.2.0.0.0.0.41-5_1_" class="st6" points="22.9,29 22.3,28.5 22.3,27.3 22.9,26.8 		"/>
	</g>
	<rect id="_0.1.2.0.0.0.0.6.0-6_1_" x="92.6" y="26.8" class="st1" width="2.3" height="2.3"/>
	<g id="lsePin25_1_">
		<rect id="_0.1.2.0.0.0.0.37.0-6_1_" x="93.1" y="27.3" class="st2" width="1.2" height="1.2"/>
		<polygon id="_0.1.2.0.0.0.0.38-6_1_" class="st3" points="94.9,29 94.3,28.5 93.1,28.5 92.6,29 		"/>
		<polygon id="_0.1.2.0.0.0.0.39-6_1_" class="st4" points="93.1,27.3 93.1,28.5 92.6,29 92.6,26.8 		"/>
		<polygon id="_0.1.2.0.0.0.0.40-6_1_" class="st5" points="94.3,27.3 93.1,27.3 92.6,26.8 94.9,26.8 		"/>
		<polygon id="_0.1.2.0.0.0.0.41-6_1_" class="st6" points="94.9,29 94.3,28.5 94.3,27.3 94.9,26.8 		"/>
	</g>
	<rect id="_0.1.2.0.0.0.0.7.0-6_1_" x="6.2" y="26.8" class="st1" width="2.3" height="2.3"/>
	<g id="lsePin1_1_">
		<rect id="_0.1.2.0.0.0.0.32.0-6_1_" x="6.7" y="27.3" class="st2" width="1.2" height="1.2"/>
		<polygon id="_0.1.2.0.0.0.0.33-6_1_" class="st3" points="8.5,29 7.9,28.5 6.8,28.5 6.2,29 		"/>
		<polygon id="_0.1.2.0.0.0.0.34-6_1_" class="st4" points="6.8,27.3 6.8,28.5 6.2,29 6.2,26.8 		"/>
		<polygon id="_0.1.2.0.0.0.0.35-6_1_" class="st5" points="7.9,27.3 6.8,27.3 6.2,26.8 8.5,26.8 		"/>
		<polygon id="_0.1.2.0.0.0.0.36-6_1_" class="st6" points="8.5,29 7.9,28.5 7.9,27.3 8.5,26.8 		"/>
	</g>
	<rect id="_0.1.2.0.0.0.0.7.0-7_1_" x="27.8" y="26.8" class="st1" width="2.3" height="2.3"/>
	<g id="lsePin7_1_">
		<rect id="_0.1.2.0.0.0.0.32.0-7_1_" x="28.3" y="27.3" class="st2" width="1.2" height="1.2"/>
		<polygon id="_0.1.2.0.0.0.0.33-7_1_" class="st3" points="30.1,29 29.5,28.5 28.3,28.5 27.8,29 		"/>
		<polygon id="_0.1.2.0.0.0.0.34-7_1_" class="st4" points="28.3,27.3 28.3,28.5 27.8,29 27.8,26.8 		"/>
		<polygon id="_0.1.2.0.0.0.0.35-7_1_" class="st5" points="29.5,27.3 28.3,27.3 27.8,26.8 30.1,26.8 		"/>
		<polygon id="_0.1.2.0.0.0.0.36-7_1_" class="st6" points="30.1,29 29.5,28.5 29.5,27.3 30.1,26.8 		"/>
	</g>
	<rect id="_0.1.2.0.0.0.0.6.0-7_1_" x="35" y="26.8" class="st1" width="2.3" height="2.3"/>
	<g id="lsePin9_1_">
		<rect id="_0.1.2.0.0.0.0.37.0-7_1_" x="35.5" y="27.3" class="st2" width="1.2" height="1.2"/>
		<polygon id="_0.1.2.0.0.0.0.38-7_1_" class="st3" points="37.3,29 36.7,28.5 35.5,28.5 35,29 		"/>
		<polygon id="_0.1.2.0.0.0.0.39-7_1_" class="st4" points="35.5,27.3 35.5,28.5 35,29 35,26.8 		"/>
		<polygon id="_0.1.2.0.0.0.0.40-7_1_" class="st5" points="36.7,27.3 35.5,27.3 35,26.8 37.3,26.8 		"/>
		<polygon id="_0.1.2.0.0.0.0.41-7_1_" class="st6" points="37.3,29 36.7,28.5 36.7,27.3 37.3,26.8 		"/>
	</g>
	<rect id="_0.1.2.0.0.0.0.7.0-8_1_" x="42.2" y="26.8" class="st1" width="2.3" height="2.3"/>
	<g id="lsePin11_1_">
		<rect id="_0.1.2.0.0.0.0.32.0-8_1_" x="42.7" y="27.3" class="st2" width="1.2" height="1.2"/>
		<polygon id="_0.1.2.0.0.0.0.33-8_1_" class="st3" points="44.5,29 43.9,28.5 42.7,28.5 42.2,29 		"/>
		<polygon id="_0.1.2.0.0.0.0.34-8_1_" class="st4" points="42.7,27.3 42.7,28.5 42.2,29 42.2,26.8 		"/>
		<polygon id="_0.1.2.0.0.0.0.35-8_1_" class="st5" points="43.9,27.3 42.7,27.3 42.2,26.8 44.5,26.8 		"/>
		<polygon id="_0.1.2.0.0.0.0.36-8_1_" class="st6" points="44.5,29 43.9,28.5 43.9,27.3 44.5,26.8 		"/>
	</g>
	<rect id="_0.1.2.0.0.0.0.6.0-8_1_" x="49.4" y="26.8" class="st1" width="2.3" height="2.3"/>
	<g id="lsePin13_1_">
		<rect id="_0.1.2.0.0.0.0.37.0-8_1_" x="49.9" y="27.3" class="st2" width="1.2" height="1.2"/>
		<polygon id="_0.1.2.0.0.0.0.38-8_1_" class="st3" points="51.7,29 51.1,28.5 49.9,28.5 49.4,29 		"/>
		<polygon id="_0.1.2.0.0.0.0.39-8_1_" class="st4" points="49.9,27.3 49.9,28.5 49.4,29 49.4,26.8 		"/>
		<polygon id="_0.1.2.0.0.0.0.40-8_1_" class="st5" points="51.1,27.3 49.9,27.3 49.4,26.8 51.7,26.8 		"/>
		<polygon id="_0.1.2.0.0.0.0.41-8_1_" class="st6" points="51.7,29 51.1,28.5 51.1,27.3 51.7,26.8 		"/>
	</g>
	<rect id="_0.1.2.0.0.0.0.7.0-9_1_" x="56.6" y="26.8" class="st1" width="2.3" height="2.3"/>
	<g id="lsePin15_1_">
		<rect id="_0.1.2.0.0.0.0.32.0-9_1_" x="57.1" y="27.3" class="st2" width="1.2" height="1.2"/>
		<polygon id="_0.1.2.0.0.0.0.33-9_1_" class="st3" points="58.9,29 58.3,28.5 57.1,28.5 56.6,29 		"/>
		<polygon id="_0.1.2.0.0.0.0.34-9_1_" class="st4" points="57.1,27.3 57.1,28.5 56.6,29 56.6,26.8 		"/>
		<polygon id="_0.1.2.0.0.0.0.35-9_1_" class="st5" points="58.3,27.3 57.1,27.3 56.6,26.8 58.9,26.8 		"/>
		<polygon id="_0.1.2.0.0.0.0.36-9_1_" class="st6" points="58.9,29 58.3,28.5 58.3,27.3 58.9,26.8 		"/>
	</g>
	<rect id="_0.1.2.0.0.0.0.6.0-9_1_" x="63.8" y="26.8" class="st1" width="2.3" height="2.3"/>
	<g id="lsePin17_1_">
		<rect id="_0.1.2.0.0.0.0.37.0-9_1_" x="64.3" y="27.3" class="st2" width="1.2" height="1.2"/>
		<polygon id="_0.1.2.0.0.0.0.38-9_1_" class="st3" points="66.1,29 65.5,28.5 64.3,28.5 63.8,29 		"/>
		<polygon id="_0.1.2.0.0.0.0.39-9_1_" class="st4" points="64.3,28.4 63.8,28.9 63.8,26.7 64.3,27.2 64.3,27.2 		"/>
		<polygon id="_0.1.2.0.0.0.0.40-9_1_" class="st5" points="65.5,27.3 64.3,27.3 63.8,26.8 66.1,26.8 		"/>
		<polygon id="_0.1.2.0.0.0.0.41-9_1_" class="st6" points="66.1,29 65.5,28.5 65.5,27.3 66.1,26.8 		"/>
	</g>
	<rect id="_0.1.2.0.0.0.0.7.0-10_1_" x="71" y="26.8" class="st1" width="2.3" height="2.3"/>
	<g id="lsePin19_1_">
		<rect id="_0.1.2.0.0.0.0.32.0-10_1_" x="71.5" y="27.3" class="st2" width="1.2" height="1.2"/>
		<polygon id="_0.1.2.0.0.0.0.33-10_1_" class="st3" points="73.3,29 72.7,28.5 71.5,28.5 71,29 		"/>
		<polygon id="_0.1.2.0.0.0.0.34-10_1_" class="st4" points="71.5,27.3 71.5,28.5 71,29 71,26.8 		"/>
		<polygon id="_0.1.2.0.0.0.0.35-10_1_" class="st5" points="72.7,27.3 71.5,27.3 71,26.8 73.3,26.8 		"/>
		<polygon id="_0.1.2.0.0.0.0.36-10_1_" class="st6" points="73.3,29 72.7,28.5 72.7,27.3 73.3,26.8 		"/>
	</g>
	<rect id="_0.1.2.0.0.0.0.6.0-10_1_" x="78.2" y="26.8" class="st1" width="2.3" height="2.3"/>
	<g id="lsePin21_1_">
		<rect id="_0.1.2.0.0.0.0.37.0-10_1_" x="78.7" y="27.3" class="st2" width="1.2" height="1.2"/>
		<polygon id="_0.1.2.0.0.0.0.38-10_1_" class="st3" points="80.5,29 79.9,28.5 78.7,28.5 78.2,29 		"/>
		<polygon id="_0.1.2.0.0.0.0.39-10_1_" class="st4" points="78.7,27.3 78.7,28.5 78.2,29 78.2,26.8 		"/>
		<polygon id="_0.1.2.0.0.0.0.40-10_1_" class="st5" points="79.9,27.3 78.7,27.3 78.2,26.8 80.5,26.8 		"/>
		<polygon id="_0.1.2.0.0.0.0.41-10_1_" class="st6" points="80.5,29 79.9,28.5 79.9,27.3 80.5,26.8 		"/>
	</g>
	<rect id="_0.1.2.0.0.0.0.7.0-11_1_" x="85.4" y="26.8" class="st1" width="2.3" height="2.3"/>
	<g id="lsePin23_1_">
		<rect id="_0.1.2.0.0.0.0.32.0-11_1_" x="85.9" y="27.3" class="st2" width="1.2" height="1.2"/>
		<polygon id="_0.1.2.0.0.0.0.33-11_1_" class="st3" points="87.7,29 87.1,28.5 85.9,28.5 85.4,29 		"/>
		<polygon id="_0.1.2.0.0.0.0.34-11_1_" class="st4" points="85.9,27.3 85.9,28.5 85.4,29 85.4,26.8 		"/>
		<polygon id="_0.1.2.0.0.0.0.35-11_1_" class="st5" points="87.1,27.3 85.9,27.3 85.4,26.8 87.7,26.8 		"/>
		<polygon id="_0.1.2.0.0.0.0.36-11_1_" class="st6" points="87.7,29 87.1,28.5 87.1,27.3 87.7,26.8 		"/>
	</g>
	<polygon id="polygon875_1_" class="st0" points="95.8,24.2 97.3,22.7 97.3,18.8 95.8,17.3 5.4,17.3 3.9,18.8 3.9,22.7 5.4,24.2 	
		"/>
	<rect id="_0.1.2.0.0.0.0.7.0-12_1_" x="13.4" y="19.6" class="st1" width="2.3" height="2.3"/>
	<g id="lsePin4_1_">
		<rect id="_0.1.2.0.0.0.0.32.0-12_1_" x="13.9" y="20.1" class="st2" width="1.2" height="1.2"/>
		<polygon id="_0.1.2.0.0.0.0.33-12_1_" class="st3" points="15.7,21.8 15.1,21.3 13.9,21.3 13.4,21.8 		"/>
		<polygon id="_0.1.2.0.0.0.0.34-12_1_" class="st4" points="13.9,20.1 13.9,21.3 13.4,21.8 13.4,19.6 		"/>
		<polygon id="_0.1.2.0.0.0.0.35-12_1_" class="st5" points="15.1,20.1 13.9,20.1 13.4,19.6 15.7,19.6 		"/>
		<polygon id="_0.1.2.0.0.0.0.36-12_1_" class="st6" points="15.7,21.8 15.1,21.3 15.1,20.1 15.7,19.6 		"/>
	</g>
	<rect id="_0.1.2.0.0.0.0.6.0-11_1_" x="20.6" y="19.6" class="st1" width="2.3" height="2.3"/>
	<g id="lsePin6_1_">
		<rect id="_0.1.2.0.0.0.0.37.0-11_1_" x="21.1" y="20.1" class="st2" width="1.2" height="1.2"/>
		<polygon id="_0.1.2.0.0.0.0.38-11_1_" class="st3" points="22.9,21.8 22.3,21.3 21.1,21.3 20.6,21.8 		"/>
		<polygon id="_0.1.2.0.0.0.0.39-11_1_" class="st4" points="21.1,20.1 21.1,21.3 20.6,21.8 20.6,19.6 		"/>
		<polygon id="_0.1.2.0.0.0.0.40-11_1_" class="st5" points="22.3,20.1 21.1,20.1 20.6,19.6 22.9,19.6 		"/>
		<polygon id="_0.1.2.0.0.0.0.41-11_1_" class="st6" points="22.9,21.8 22.3,21.3 22.3,20.1 22.9,19.6 		"/>
	</g>
	<rect id="_0.1.2.0.0.0.0.6.0-12_1_" x="92.6" y="19.6" class="st1" width="2.3" height="2.3"/>
	<g id="lsePin26_1_">
		<rect id="_0.1.2.0.0.0.0.37.0-12_1_" x="93.1" y="20.1" class="st2" width="1.2" height="1.2"/>
		<polygon id="_0.1.2.0.0.0.0.38-12_1_" class="st3" points="94.9,21.8 94.3,21.3 93.1,21.3 92.6,21.8 		"/>
		<polygon id="_0.1.2.0.0.0.0.39-12_1_" class="st4" points="93.1,20.1 93.1,21.3 92.6,21.8 92.6,19.6 		"/>
		<polygon id="_0.1.2.0.0.0.0.40-12_1_" class="st5" points="94.3,20.1 93.1,20.1 92.6,19.6 94.9,19.6 		"/>
		<polygon id="_0.1.2.0.0.0.0.41-12_1_" class="st6" points="94.9,21.8 94.3,21.3 94.3,20.1 94.9,19.6 		"/>
	</g>
	<rect id="_0.1.2.0.0.0.0.7.0-13_1_" x="6.2" y="19.6" class="st1" width="2.3" height="2.3"/>
	<g id="lsePin2_1_">
		<rect id="_0.1.2.0.0.0.0.32.0-13_1_" x="6.7" y="20.1" class="st2" width="1.2" height="1.2"/>
		<polygon id="_0.1.2.0.0.0.0.33-13_1_" class="st3" points="8.5,21.8 7.9,21.3 6.8,21.3 6.2,21.8 		"/>
		<polygon id="_0.1.2.0.0.0.0.34-13_1_" class="st4" points="6.8,20.1 6.8,21.3 6.2,21.8 6.2,19.6 		"/>
		<polygon id="_0.1.2.0.0.0.0.35-13_1_" class="st5" points="7.9,20.1 6.8,20.1 6.2,19.6 8.5,19.6 		"/>
		<polygon id="_0.1.2.0.0.0.0.36-13_1_" class="st6" points="8.5,21.8 7.9,21.3 7.9,20.1 8.5,19.6 		"/>
	</g>
	<rect id="_0.1.2.0.0.0.0.7.0-14_1_" x="27.8" y="19.6" class="st1" width="2.3" height="2.3"/>
	<g id="lsePin8_1_">
		<rect id="_0.1.2.0.0.0.0.32.0-14_1_" x="28.3" y="20.1" class="st2" width="1.2" height="1.2"/>
		<polygon id="_0.1.2.0.0.0.0.33-14_1_" class="st3" points="30.1,21.8 29.5,21.3 28.3,21.3 27.8,21.8 		"/>
		<polygon id="_0.1.2.0.0.0.0.34-14_1_" class="st4" points="28.3,20.1 28.3,21.3 27.8,21.8 27.8,19.6 		"/>
		<polygon id="_0.1.2.0.0.0.0.35-14_1_" class="st5" points="29.5,20.1 28.3,20.1 27.8,19.6 30.1,19.6 		"/>
		<polygon id="_0.1.2.0.0.0.0.36-14_1_" class="st6" points="30.1,21.8 29.5,21.3 29.5,20.1 30.1,19.6 		"/>
	</g>
	<rect id="_0.1.2.0.0.0.0.6.0-13_1_" x="35" y="19.6" class="st1" width="2.3" height="2.3"/>
	<g id="lsePin10_1_">
		<rect id="_0.1.2.0.0.0.0.37.0-13_1_" x="35.5" y="20.1" class="st2" width="1.2" height="1.2"/>
		<polygon id="_0.1.2.0.0.0.0.38-13_1_" class="st3" points="37.3,21.8 36.7,21.3 35.5,21.3 35,21.8 		"/>
		<polygon id="_0.1.2.0.0.0.0.39-13_1_" class="st4" points="35.5,20.1 35.5,21.3 35,21.8 35,19.6 		"/>
		<polygon id="_0.1.2.0.0.0.0.40-13_1_" class="st5" points="36.7,20.1 35.5,20.1 35,19.6 37.3,19.6 		"/>
		<polygon id="_0.1.2.0.0.0.0.41-13_1_" class="st6" points="37.3,21.8 36.7,21.3 36.7,20.1 37.3,19.6 		"/>
	</g>
	<rect id="_0.1.2.0.0.0.0.7.0-15_1_" x="42.2" y="19.6" class="st1" width="2.3" height="2.3"/>
	<g id="lsePin12_1_">
		<rect id="_0.1.2.0.0.0.0.32.0-15_1_" x="42.7" y="20.1" class="st2" width="1.2" height="1.2"/>
		<polygon id="_0.1.2.0.0.0.0.33-15_1_" class="st3" points="44.5,21.8 43.9,21.3 42.7,21.3 42.2,21.8 		"/>
		<polygon id="_0.1.2.0.0.0.0.34-15_1_" class="st4" points="42.7,20.1 42.7,21.3 42.2,21.8 42.2,19.6 		"/>
		<polygon id="_0.1.2.0.0.0.0.35-15_1_" class="st5" points="43.9,20.1 42.7,20.1 42.2,19.6 44.5,19.6 		"/>
		<polygon id="_0.1.2.0.0.0.0.36-15_1_" class="st6" points="44.5,21.8 43.9,21.3 43.9,20.1 44.5,19.6 		"/>
	</g>
	<rect id="_0.1.2.0.0.0.0.6.0-14_1_" x="49.4" y="19.6" class="st1" width="2.3" height="2.3"/>
	<g id="lsePin14_1_">
		<rect id="_0.1.2.0.0.0.0.37.0-14_1_" x="49.9" y="20.1" class="st2" width="1.2" height="1.2"/>
		<polygon id="_0.1.2.0.0.0.0.38-14_1_" class="st3" points="51.7,21.8 51.1,21.3 49.9,21.3 49.4,21.8 		"/>
		<polygon id="_0.1.2.0.0.0.0.39-14_1_" class="st4" points="49.9,20.1 49.9,21.3 49.4,21.8 49.4,19.6 		"/>
		<polygon id="_0.1.2.0.0.0.0.40-14_1_" class="st5" points="51.1,20.1 49.9,20.1 49.4,19.6 51.7,19.6 		"/>
		<polygon id="_0.1.2.0.0.0.0.41-14_1_" class="st6" points="51.7,21.8 51.1,21.3 51.1,20.1 51.7,19.6 		"/>
	</g>
	<rect id="_0.1.2.0.0.0.0.7.0-16_1_" x="56.6" y="19.6" class="st1" width="2.3" height="2.3"/>
	<g id="lsePin16_1_">
		<rect id="_0.1.2.0.0.0.0.32.0-16_1_" x="57.1" y="20.1" class="st2" width="1.2" height="1.2"/>
		<polygon id="_0.1.2.0.0.0.0.33-16_1_" class="st3" points="58.9,21.8 58.3,21.3 57.1,21.3 56.6,21.8 		"/>
		<polygon id="_0.1.2.0.0.0.0.34-16_1_" class="st4" points="57.1,20.1 57.1,21.3 56.6,21.8 56.6,19.6 		"/>
		<polygon id="_0.1.2.0.0.0.0.35-16_1_" class="st5" points="58.3,20.1 57.1,20.1 56.6,19.6 58.9,19.6 		"/>
		<polygon id="_0.1.2.0.0.0.0.36-16_1_" class="st6" points="58.9,21.8 58.3,21.3 58.3,20.1 58.9,19.6 		"/>
	</g>
	<rect id="_0.1.2.0.0.0.0.6.0-15_1_" x="63.8" y="19.6" class="st1" width="2.3" height="2.3"/>
	<g id="lsePin18_1_">
		<rect id="_0.1.2.0.0.0.0.37.0-15_1_" x="64.3" y="20.1" class="st2" width="1.2" height="1.2"/>
		<polygon id="_0.1.2.0.0.0.0.38-15_1_" class="st3" points="66.1,21.8 65.5,21.3 64.3,21.3 63.8,21.8 		"/>
		<polygon id="_0.1.2.0.0.0.0.39-15_1_" class="st4" points="64.3,20.1 64.3,21.3 63.8,21.8 63.8,19.6 		"/>
		<polygon id="_0.1.2.0.0.0.0.40-15_1_" class="st5" points="65.5,20.1 64.3,20.1 63.8,19.6 66.1,19.6 		"/>
		<polygon id="_0.1.2.0.0.0.0.41-15_1_" class="st6" points="66.1,21.8 65.5,21.3 65.5,20.1 66.1,19.6 		"/>
	</g>
	<rect id="_0.1.2.0.0.0.0.7.0-17_1_" x="71" y="19.6" class="st1" width="2.3" height="2.3"/>
	<g id="lsePin20_1_">
		<rect id="_0.1.2.0.0.0.0.32.0-17_1_" x="71.5" y="20.1" class="st2" width="1.2" height="1.2"/>
		<polygon id="_0.1.2.0.0.0.0.33-17_1_" class="st3" points="73.3,21.8 72.7,21.3 71.5,21.3 71,21.8 		"/>
		<polygon id="_0.1.2.0.0.0.0.34-17_1_" class="st4" points="71.5,20.1 71.5,21.3 71,21.8 71,19.6 		"/>
		<polygon id="_0.1.2.0.0.0.0.35-17_1_" class="st5" points="72.7,20.1 71.5,20.1 71,19.6 73.3,19.6 		"/>
		<polygon id="_0.1.2.0.0.0.0.36-17_1_" class="st6" points="73.3,21.8 72.7,21.3 72.7,20.1 73.3,19.6 		"/>
	</g>
	<rect id="_0.1.2.0.0.0.0.6.0-16_1_" x="78.2" y="19.6" class="st1" width="2.3" height="2.3"/>
	<g id="lsePin22_1_">
		<rect id="_0.1.2.0.0.0.0.37.0-16_1_" x="78.7" y="20.1" class="st2" width="1.2" height="1.2"/>
		<polygon id="_0.1.2.0.0.0.0.38-16_1_" class="st3" points="80.5,21.8 79.9,21.3 78.7,21.3 78.2,21.8 		"/>
		<polygon id="_0.1.2.0.0.0.0.39-16_1_" class="st4" points="78.7,20.1 78.7,21.3 78.2,21.8 78.2,19.6 		"/>
		<polygon id="_0.1.2.0.0.0.0.40-16_1_" class="st5" points="79.9,20.1 78.7,20.1 78.2,19.6 80.5,19.6 		"/>
		<polygon id="_0.1.2.0.0.0.0.41-16_1_" class="st6" points="80.5,21.8 79.9,21.3 79.9,20.1 80.5,19.6 		"/>
	</g>
	<rect id="_0.1.2.0.0.0.0.7.0-18_1_" x="85.4" y="19.6" class="st1" width="2.3" height="2.3"/>
	<g id="lsePin24_1_" transform="translate(0.04404062,-0.02202031)">
		<rect id="_0.1.2.0.0.0.0.32.0-18_1_" x="85.9" y="20.1" class="st2" width="1.2" height="1.2"/>
		<polygon id="_0.1.2.0.0.0.0.33-18_1_" class="st3" points="87.1,21.3 85.9,21.3 85.4,21.8 87.7,21.8 87.7,21.8 		"/>
		<polygon id="_0.1.2.0.0.0.0.34-18_1_" class="st4" points="85.9,21.3 85.4,21.8 85.4,19.6 85.9,20.1 85.9,20.1 		"/>
		<polygon id="_0.1.2.0.0.0.0.35-18_1_" class="st5" points="85.9,20.1 85.4,19.6 87.7,19.6 87.1,20.1 87.1,20.1 		"/>
		<polygon id="_0.1.2.0.0.0.0.36-18_1_" class="st6" points="87.1,21.3 87.1,20.1 87.7,19.6 87.7,21.8 87.7,21.8 		"/>
	</g>
</g>
</svg>
