<?xml version="1.0" encoding="utf-8"?>
<!-- Generator: Adobe Illustrator 21.1.0, SVG Export Plug-In . SVG Version: 6.00 Build 0)  -->
<svg version="1.1" id="Layer_1" xmlns="http://www.w3.org/2000/svg" xmlns:xlink="http://www.w3.org/1999/xlink" x="0px" y="0px"
	 viewBox="0 0 51 63" style="enable-background:new 0 0 51 63;" xml:space="preserve">
<style type="text/css">
	.st0{fill:none;}
	.st1{font-family:'ArialMT';}
	.st2{font-size:3px;}
	.st3{font-size:2px;}
	.st4{fill:#404040;}
	.st5{fill:#B8AF82;}
	.st6{fill:#E2D6A1;}
	.st7{opacity:0.2;fill:#FFFFFF;enable-background:new    ;}
	.st8{opacity:0.1;enable-background:new    ;}
	.st9{fill:#9A916C;}
	.st10{fill:#474747;}
	.st11{fill:#373737;}
</style>
<rect x="2" y="43.8" class="st0" width="42" height="19.2"/>
<text transform="matrix(1 0 0 1 2 45.9814)"><tspan x="0" y="0" class="st1 st2">Copyright (C) </tspan><tspan x="0" y="3.6" class="st1 st2">2017 Intel Corporation.</tspan><tspan x="0" y="7.6" class="st1 st3">This document is licensed under the Creative </tspan><tspan x="0" y="10" class="st1 st3">Commons Attribution 3.0 Unported License </tspan><tspan x="0" y="12.4" class="st1 st3">(“CC-BY-3.0”):https://creativecommons.org/li</tspan><tspan x="39.5" y="12.4" class="st1 st3">-</tspan><tspan x="0" y="14.8" class="st1 st3">censes/by/3.0/legalcode</tspan></text>
<g id="UARTO_PIN">
	<polygon id="polygon1002_1_" class="st4" points="45.1,39.5 46.6,38 46.6,34.1 45.1,32.6 5,32.6 3.5,34.1 3.5,38 5,39.5 	"/>
	<g id="ftdiPin1_1_">
		<g id="_0.2.0.0_1_">
			<rect id="_0.2.0.0.0_1_" x="3.4" y="26.1" width="7.2" height="6"/>
			<g id="_0.2.0.0.1_1_">
				<polygon id="connector64pin_1_" class="st5" points="5.9,6.6 6.4,4.3 7.6,4.3 8.2,6.6 8.2,27.5 5.9,27.5 				"/>
				<rect id="connector64terminal_1_" x="7" y="5.9" class="st0" width="0" height="0.1"/>
				<polygon id="_0.2.0.0.1.1_1_" class="st6" points="6.4,4.3 6.3,5 7.8,5 7.6,4.3 				"/>
				<polygon id="_0.2.0.0.1.2_1_" class="st7" points="7.9,27.5 7.9,6.6 7.3,4.3 7.6,4.3 8.2,6.6 8.2,27.5 				"/>
				<polygon id="_0.2.0.0.1.3_1_" class="st8" points="5.8,27.5 5.8,6.6 6.4,4.3 6.7,4.3 6.1,6.6 6.1,27.5 				"/>
			</g>
			<polygon id="_0.2.0.0.5_1_" class="st5" points="5.9,37.2 8.2,37.2 8.2,29.9 5.9,29.9 			"/>
			<polygon id="_0.2.0.0.6_1_" class="st9" points="5.9,37.2 8.2,37.2 8.2,36.8 5.9,36.8 			"/>
			<polygon id="_0.2.0.0.7_1_" class="st6" points="5.9,36.7 8.2,36.7 8.2,36.1 5.9,36.1 			"/>
			<rect id="_0.2.0.0.8_1_" x="4.4" y="26.1" class="st4" width="5.1" height="6"/>
			<polygon id="_0.2.0.0.9_1_" class="st10" points="4.4,26.1 3.4,26.1 3.4,32.1 4.4,32.1 			"/>
			<polygon id="_0.2.0.0.10_1_" class="st11" points="9.6,32.1 10.6,32.1 10.6,26.1 9.6,26.1 			"/>
			<polygon id="_0.2.0.0.11_1_" class="st7" points="8.2,32.1 8.2,37.2 7.9,37.2 7.9,32.1 			"/>
			<polygon id="_0.2.0.0.12_1_" class="st8" points="6.1,32.1 6.1,37.2 5.8,37.2 5.8,32.1 			"/>
		</g>
	</g>
	<g id="ftdiPin2_1_">
		<g id="_0.2.1.0_1_">
			<rect id="_0.2.1.0.0_1_" x="10.6" y="26.1" width="7.2" height="6"/>
			<g id="_0.2.1.0.1_1_">
				<polygon id="connector63pin_1_" class="st5" points="13.1,6.6 13.6,4.3 14.8,4.3 15.4,6.6 15.4,27.5 13.1,27.5 				"/>
				<rect id="connector63terminal_1_" x="14.2" y="5.9" class="st0" width="0" height="0.1"/>
				<polygon id="_0.2.1.0.1.1_1_" class="st6" points="13.6,4.3 13.5,5 15,5 14.8,4.3 				"/>
				<polygon id="_0.2.1.0.1.2_1_" class="st7" points="15.1,27.5 15.1,6.6 14.5,4.3 14.8,4.3 15.4,6.6 15.4,27.5 				"/>
				<polygon id="_0.2.1.0.1.3_1_" class="st8" points="13,27.5 13,6.6 13.6,4.3 13.9,4.3 13.3,6.6 13.3,27.5 				"/>
			</g>
			<polygon id="_0.2.1.0.5_1_" class="st5" points="13.1,37.2 15.4,37.2 15.4,29.9 13.1,29.9 			"/>
			<polygon id="_0.2.1.0.6_1_" class="st9" points="13.1,37.2 15.4,37.2 15.4,36.8 13.1,36.8 			"/>
			<polygon id="_0.2.1.0.7_1_" class="st6" points="13.1,36.7 15.4,36.7 15.4,36.1 13.1,36.1 			"/>
			<rect id="_0.2.1.0.8_1_" x="11.6" y="26.1" class="st4" width="5.1" height="6"/>
			<polygon id="_0.2.1.0.9_1_" class="st10" points="11.6,26.1 10.6,26.1 10.6,32.1 11.6,32.1 			"/>
			<polygon id="_0.2.1.0.10_1_" class="st11" points="16.8,32.1 17.8,32.1 17.8,26.1 16.8,26.1 			"/>
			<polygon id="_0.2.1.0.11_1_" class="st7" points="15.4,32.1 15.4,37.2 15.1,37.2 15.1,32.1 			"/>
			<polygon id="_0.2.1.0.12_1_" class="st8" points="13.3,32.1 13.3,37.2 13,37.2 13,32.1 			"/>
		</g>
	</g>
	<g id="ftdiPin3_1_">
		<g id="_0.2.2.0_1_">
			<rect id="_0.2.2.0.0_1_" x="17.8" y="26.1" width="7.2" height="6"/>
			<g id="_0.2.2.0.1_1_">
				<polygon id="connector62pin_1_" class="st5" points="20.3,6.6 20.8,4.3 22,4.3 22.6,6.6 22.6,27.5 20.3,27.5 				"/>
				<rect id="connector62terminal_1_" x="21.4" y="5.9" class="st0" width="0" height="0.1"/>
				<polygon id="_0.2.2.0.1.1_1_" class="st6" points="20.8,4.3 20.7,5 22.2,5 22,4.3 				"/>
				<polygon id="_0.2.2.0.1.2_1_" class="st7" points="22.3,27.5 22.3,6.6 21.7,4.3 22,4.3 22.6,6.6 22.6,27.5 				"/>
				<polygon id="_0.2.2.0.1.3_1_" class="st8" points="20.2,27.5 20.2,6.6 20.8,4.3 21.1,4.3 20.5,6.6 20.5,27.5 				"/>
			</g>
			<polygon id="_0.2.2.0.5_1_" class="st5" points="20.3,37.2 22.6,37.2 22.6,29.9 20.3,29.9 			"/>
			<polygon id="_0.2.2.0.6_1_" class="st9" points="20.3,37.2 22.6,37.2 22.6,36.8 20.3,36.8 			"/>
			<polygon id="_0.2.2.0.7_1_" class="st6" points="20.3,36.7 22.6,36.7 22.6,36.1 20.3,36.1 			"/>
			<rect id="_0.2.2.0.8_1_" x="18.8" y="26.1" class="st4" width="5.1" height="6"/>
			<polygon id="_0.2.2.0.9_1_" class="st10" points="18.8,26.1 17.8,26.1 17.8,32.1 18.8,32.1 			"/>
			<polygon id="_0.2.2.0.10_1_" class="st11" points="24,32.1 25,32.1 25,26.1 24,26.1 			"/>
			<polygon id="_0.2.2.0.11_1_" class="st7" points="22.6,32.1 22.6,37.2 22.3,37.2 22.3,32.1 			"/>
			<polygon id="_0.2.2.0.12_1_" class="st8" points="20.5,32.1 20.5,37.2 20.2,37.2 20.2,32.1 			"/>
		</g>
	</g>
	<g id="ftdiPin4_1_">
		<g id="_0.2.3.0_1_">
			<rect id="_0.2.3.0.0_1_" x="25" y="26.1" width="7.2" height="6"/>
			<g id="_0.2.3.0.1_1_">
				<polygon id="connector61pin_1_" class="st5" points="27.5,6.6 28,4.3 29.2,4.3 29.8,6.6 29.8,27.5 27.5,27.5 				"/>
				<rect id="connector61terminal_1_" x="28.6" y="5.9" class="st0" width="0" height="0.1"/>
				<polygon id="_0.2.3.0.1.1_1_" class="st6" points="28,4.3 27.9,5 29.4,5 29.2,4.3 				"/>
				<polygon id="_0.2.3.0.1.2_1_" class="st7" points="29.5,27.5 29.5,6.6 28.9,4.3 29.2,4.3 29.8,6.6 29.8,27.5 				"/>
				<polygon id="_0.2.3.0.1.3_1_" class="st8" points="27.4,27.5 27.4,6.6 28,4.3 28.3,4.3 27.7,6.6 27.7,27.5 				"/>
			</g>
			<polygon id="_0.2.3.0.5_1_" class="st5" points="27.5,37.2 29.8,37.2 29.8,29.9 27.5,29.9 			"/>
			<polygon id="_0.2.3.0.6_1_" class="st9" points="27.5,37.2 29.8,37.2 29.8,36.8 27.5,36.8 			"/>
			<polygon id="_0.2.3.0.7_1_" class="st6" points="27.5,36.7 29.8,36.7 29.8,36.1 27.5,36.1 			"/>
			<rect id="_0.2.3.0.8_1_" x="26" y="26.1" class="st4" width="5.1" height="6"/>
			<polygon id="_0.2.3.0.9_1_" class="st10" points="26,26.1 25,26.1 25,32.1 26,32.1 			"/>
			<polygon id="_0.2.3.0.10_1_" class="st11" points="31.2,32.1 32.2,32.1 32.2,26.1 31.2,26.1 			"/>
			<polygon id="_0.2.3.0.11_1_" class="st7" points="29.8,32.1 29.8,37.2 29.5,37.2 29.5,32.1 			"/>
			<polygon id="_0.2.3.0.12_1_" class="st8" points="27.7,32.1 27.7,37.2 27.4,37.2 27.4,32.1 			"/>
		</g>
	</g>
	<g id="ftdiPin5_1_">
		<g id="_0.2.4.0_1_">
			<rect id="_0.2.4.0.0_1_" x="32.2" y="26.1" width="7.2" height="6"/>
			<g id="_0.2.4.0.1_1_">
				<polygon id="connector60pin_1_" class="st5" points="34.7,6.6 35.2,4.3 36.4,4.3 37,6.6 37,27.5 34.7,27.5 				"/>
				<rect id="connector60terminal_1_" x="35.8" y="5.9" class="st0" width="0" height="0.1"/>
				<polygon id="_0.2.4.0.1.1_1_" class="st6" points="35.2,4.3 35.1,5 36.6,5 36.4,4.3 				"/>
				<polygon id="_0.2.4.0.1.2_1_" class="st7" points="36.7,27.5 36.7,6.6 36.1,4.3 36.4,4.3 37,6.6 37,27.5 				"/>
				<polygon id="_0.2.4.0.1.3_1_" class="st8" points="34.6,27.5 34.6,6.6 35.2,4.3 35.5,4.3 34.9,6.6 34.9,27.5 				"/>
			</g>
			<polygon id="_0.2.4.0.5_1_" class="st5" points="34.7,37.2 37,37.2 37,29.9 34.7,29.9 			"/>
			<polygon id="_0.2.4.0.6_1_" class="st9" points="34.7,37.2 37,37.2 37,36.8 34.7,36.8 			"/>
			<polygon id="_0.2.4.0.7_1_" class="st6" points="34.7,36.7 37,36.7 37,36.1 34.7,36.1 			"/>
			<rect id="_0.2.4.0.8_1_" x="33.2" y="26.1" class="st4" width="5.1" height="6"/>
			<polygon id="_0.2.4.0.9_1_" class="st10" points="33.2,26.1 32.2,26.1 32.2,32.1 33.2,32.1 			"/>
			<polygon id="_0.2.4.0.10_1_" class="st11" points="38.4,32.1 39.4,32.1 39.4,26.1 38.4,26.1 			"/>
			<polygon id="_0.2.4.0.11_1_" class="st7" points="37,32.1 37,37.2 36.7,37.2 36.7,32.1 			"/>
			<polygon id="_0.2.4.0.12_1_" class="st8" points="34.9,32.1 34.9,37.2 34.6,37.2 34.6,32.1 			"/>
		</g>
	</g>
	<g id="ftdiPin6_1_">
		<g id="_0.2.5.0_1_">
			<rect id="_0.2.5.0.0_1_" x="39.4" y="26.1" width="7.2" height="6"/>
			<g id="_0.2.5.0.1_1_">
				<polygon id="connector59pin_1_" class="st5" points="41.9,6.6 42.4,4.3 43.6,4.3 44.2,6.6 44.2,27.5 41.9,27.5 				"/>
				<rect id="connector59terminal_1_" x="43" y="5.9" class="st0" width="0" height="0.1"/>
				<polygon id="_0.2.5.0.1.1_1_" class="st6" points="42.4,4.3 42.3,5 43.8,5 43.6,4.3 				"/>
				<polygon id="_0.2.5.0.1.2_1_" class="st7" points="43.9,27.5 43.9,6.6 43.3,4.3 43.6,4.3 44.2,6.6 44.2,27.5 				"/>
				<polygon id="_0.2.5.0.1.3_1_" class="st8" points="41.8,27.5 41.8,6.6 42.4,4.3 42.7,4.3 42.1,6.6 42.1,27.5 				"/>
			</g>
			<polygon id="_0.2.5.0.5_1_" class="st5" points="41.9,37.2 44.2,37.2 44.2,29.9 41.9,29.9 			"/>
			<polygon id="_0.2.5.0.6_1_" class="st9" points="41.9,37.2 44.2,37.2 44.2,36.8 41.9,36.8 			"/>
			<polygon id="_0.2.5.0.7_1_" class="st6" points="41.9,36.7 44.2,36.7 44.2,36.1 41.9,36.1 			"/>
			<rect id="_0.2.5.0.8_1_" x="40.4" y="26.1" class="st4" width="5.1" height="6"/>
			<polygon id="_0.2.5.0.9_1_" class="st10" points="40.4,26.1 39.4,26.1 39.4,32.1 40.4,32.1 			"/>
			<polygon id="_0.2.5.0.10_1_" class="st11" points="45.6,32.1 46.6,32.1 46.6,26.1 45.6,26.1 			"/>
			<polygon id="_0.2.5.0.11_1_" class="st7" points="44.2,32.1 44.2,37.2 43.9,37.2 43.9,32.1 			"/>
			<polygon id="_0.2.5.0.12_1_" class="st8" points="42.1,32.1 42.1,37.2 41.8,37.2 41.8,32.1 			"/>
		</g>
	</g>
</g>
</svg>
