<?xml version="1.0" encoding="utf-8"?>
<!-- Generator: Adobe Illustrator 21.0.2, SVG Export Plug-In . SVG Version: 6.00 Build 0)  -->
<svg version="1.1" id="Layer_1" xmlns="http://www.w3.org/2000/svg" xmlns:xlink="http://www.w3.org/1999/xlink" x="0px" y="0px"
	 viewBox="0 0 46 49.5" style="enable-background:new 0 0 46 49.5;" xml:space="preserve">
<style type="text/css">
	.st0{fill:#404040;}
	.st1{fill:#8D8C8C;}
	.st2{fill:#8C8663;}
	.st3{fill:#B8AF82;}
	.st4{fill:#80795B;}
	.st5{fill:#5E5B43;}
	.st6{fill:#9A916C;}
</style>
<g id="PIN">
	<polygon id="polygon729_1_" class="st0" points="35.8,24 37.3,22.5 37.3,18.6 35.8,17.1 10.2,17.1 8.7,18.6 8.7,22.5 10.2,24 	"/>
	<rect id="_0.1.2.0.0.0.0.7.0_1_" x="18.2" y="19.4" class="st1" width="2.3" height="2.3"/>
	<g id="spiPin5_1_">
		<rect id="_0.1.2.0.0.0.0.32.0_1_" x="18.7" y="19.9" class="st2" width="1.2" height="1.2"/>
		<polygon id="_0.1.2.0.0.0.0.33_1_" class="st3" points="20.5,21.6 19.9,21.1 18.7,21.1 18.2,21.6 		"/>
		<polygon id="_0.1.2.0.0.0.0.34_1_" class="st4" points="18.7,19.9 18.7,21.1 18.2,21.6 18.2,19.4 		"/>
		<polygon id="_0.1.2.0.0.0.0.35_1_" class="st5" points="19.9,19.9 18.7,19.9 18.2,19.4 20.5,19.4 		"/>
		<polygon id="_0.1.2.0.0.0.0.36_1_" class="st6" points="20.5,21.6 19.9,21.1 19.9,19.9 20.5,19.4 		"/>
	</g>
	<rect id="_0.1.2.0.0.0.0.6.0_1_" x="25.4" y="19.4" class="st1" width="2.3" height="2.3"/>
	<g id="spiPin3_1_">
		<rect id="_0.1.2.0.0.0.0.37.0_1_" x="25.9" y="19.9" class="st2" width="1.2" height="1.2"/>
		<polygon id="_0.1.2.0.0.0.0.38_1_" class="st3" points="27.7,21.6 27.1,21.1 25.9,21.1 25.4,21.6 		"/>
		<polygon id="_0.1.2.0.0.0.0.39_1_" class="st4" points="25.9,19.9 25.9,21.1 25.4,21.6 25.4,19.4 		"/>
		<polygon id="_0.1.2.0.0.0.0.40_1_" class="st5" points="27.1,19.9 25.9,19.9 25.4,19.4 27.7,19.4 		"/>
		<polygon id="_0.1.2.0.0.0.0.41_1_" class="st6" points="27.7,21.6 27.1,21.1 27.1,19.9 27.7,19.4 		"/>
	</g>
	<rect id="_0.1.2.0.0.0.0.6.0-2_1_" x="32.6" y="19.4" class="st1" width="2.3" height="2.3"/>
	<g id="spiPin1_1_">
		<rect id="_0.1.2.0.0.0.0.37.0-2_1_" x="33.1" y="19.9" class="st2" width="1.2" height="1.2"/>
		<polygon id="_0.1.2.0.0.0.0.38-2_1_" class="st3" points="34.9,21.6 34.3,21.1 33.1,21.1 32.6,21.6 		"/>
		<polygon id="_0.1.2.0.0.0.0.39-2_1_" class="st4" points="33.1,19.9 33.1,21.1 32.6,21.6 32.6,19.4 		"/>
		<polygon id="_0.1.2.0.0.0.0.40-2_1_" class="st5" points="34.3,19.9 33.1,19.9 32.6,19.4 34.9,19.4 		"/>
		<polygon id="_0.1.2.0.0.0.0.41-2_1_" class="st6" points="34.9,21.6 34.3,21.1 34.3,19.9 34.9,19.4 		"/>
	</g>
	<rect id="_0.1.2.0.0.0.0.7.0-2_1_" x="11" y="19.4" class="st1" width="2.3" height="2.3"/>
	<g id="spiPin7_1_">
		<rect id="_0.1.2.0.0.0.0.32.0-2_1_" x="11.5" y="19.9" class="st2" width="1.2" height="1.2"/>
		<polygon id="_0.1.2.0.0.0.0.33-2_1_" class="st3" points="13.3,21.6 12.7,21.1 11.6,21.1 11,21.6 		"/>
		<polygon id="_0.1.2.0.0.0.0.34-2_1_" class="st4" points="11.6,19.9 11.6,21.1 11,21.6 11,19.4 		"/>
		<polygon id="_0.1.2.0.0.0.0.35-2_1_" class="st5" points="12.7,19.9 11.6,19.9 11,19.4 13.3,19.4 		"/>
		<polygon id="_0.1.2.0.0.0.0.36-2_1_" class="st6" points="13.3,21.6 12.7,21.1 12.7,19.9 13.3,19.4 		"/>
	</g>
	<polygon id="polygon755_1_" class="st0" points="35.8,31.2 37.3,29.7 37.3,25.8 35.8,24.3 10.2,24.3 8.7,25.8 8.7,29.7 10.2,31.2 	
		"/>
	<rect id="_0.1.2.0.0.0.0.7.0-3_1_" x="18.2" y="26.6" class="st1" width="2.3" height="2.3"/>
	<g id="spiPin6_1_">
		<rect id="_0.1.2.0.0.0.0.32.0-3_1_" x="18.7" y="27.1" class="st2" width="1.2" height="1.2"/>
		<polygon id="_0.1.2.0.0.0.0.33-3_1_" class="st3" points="20.5,28.8 19.9,28.3 18.7,28.3 18.2,28.8 		"/>
		<polygon id="_0.1.2.0.0.0.0.34-3_1_" class="st4" points="18.7,27.1 18.7,28.3 18.2,28.8 18.2,26.6 		"/>
		<polygon id="_0.1.2.0.0.0.0.35-3_1_" class="st5" points="19.9,27.1 18.7,27.1 18.2,26.6 20.5,26.6 		"/>
		<polygon id="_0.1.2.0.0.0.0.36-3_1_" class="st6" points="20.5,28.8 19.9,28.3 19.9,27.1 20.5,26.6 		"/>
	</g>
	<rect id="_0.1.2.0.0.0.0.6.0-3_1_" x="25.4" y="26.6" class="st1" width="2.3" height="2.3"/>
	<g id="spiPin4_1_">
		<rect id="_0.1.2.0.0.0.0.37.0-3_1_" x="25.9" y="27.1" class="st2" width="1.2" height="1.2"/>
		<polygon id="_0.1.2.0.0.0.0.38-3_1_" class="st3" points="27.7,28.8 27.1,28.3 25.9,28.3 25.4,28.8 		"/>
		<polygon id="_0.1.2.0.0.0.0.39-3_1_" class="st4" points="25.9,27.1 25.9,28.3 25.4,28.8 25.4,26.6 		"/>
		<polygon id="_0.1.2.0.0.0.0.40-3_1_" class="st5" points="27.1,27.1 25.9,27.1 25.4,26.6 27.7,26.6 		"/>
		<polygon id="_0.1.2.0.0.0.0.41-3_1_" class="st6" points="27.7,28.8 27.1,28.3 27.1,27.1 27.7,26.6 		"/>
	</g>
	<rect id="_0.1.2.0.0.0.0.6.0-4_1_" x="32.6" y="26.6" class="st1" width="2.3" height="2.3"/>
	<g id="spiPin2_1_">
		<rect id="_0.1.2.0.0.0.0.37.0-4_1_" x="33.1" y="27.1" class="st2" width="1.2" height="1.2"/>
		<polygon id="_0.1.2.0.0.0.0.38-4_1_" class="st3" points="34.9,28.8 34.3,28.3 33.1,28.3 32.6,28.8 		"/>
		<polygon id="_0.1.2.0.0.0.0.39-4_1_" class="st4" points="33.1,27.1 33.1,28.3 32.6,28.8 32.6,26.6 		"/>
		<polygon id="_0.1.2.0.0.0.0.40-4_1_" class="st5" points="34.3,27.1 33.1,27.1 32.6,26.6 34.9,26.6 		"/>
		<polygon id="_0.1.2.0.0.0.0.41-4_1_" class="st6" points="34.9,28.8 34.3,28.3 34.3,27.1 34.9,26.6 		"/>
	</g>
	<rect id="_0.1.2.0.0.0.0.7.0-4_1_" x="11" y="26.6" class="st1" width="2.3" height="2.3"/>
	<g id="spiPin8_1_">
		<rect id="_0.1.2.0.0.0.0.32.0-4_1_" x="11.5" y="27.1" class="st2" width="1.2" height="1.2"/>
		<polygon id="_0.1.2.0.0.0.0.33-4_1_" class="st3" points="13.3,28.8 12.7,28.3 11.6,28.3 11,28.8 		"/>
		<polygon id="_0.1.2.0.0.0.0.34-4_1_" class="st4" points="11.6,27.1 11.6,28.3 11,28.8 11,26.6 		"/>
		<polygon id="_0.1.2.0.0.0.0.35-4_1_" class="st5" points="12.7,27.1 11.6,27.1 11,26.6 13.3,26.6 		"/>
		<polygon id="_0.1.2.0.0.0.0.36-4_1_" class="st6" points="13.3,28.8 12.7,28.3 12.7,27.1 13.3,26.6 		"/>
	</g>
</g>
</svg>
