<?xml version="1.0" encoding="utf-8"?>
<!-- Generator: Adobe Illustrator 21.1.0, SVG Export Plug-In . SVG Version: 6.00 Build 0)  -->
<svg version="1.1" id="Layer_1" xmlns="http://www.w3.org/2000/svg" xmlns:xlink="http://www.w3.org/1999/xlink" x="0px" y="0px"
	 viewBox="0 0 101 49.5" style="enable-background:new 0 0 101 49.5;" xml:space="preserve">
<style type="text/css">
	.st0{fill:none;}
	.st1{font-family:'ArialMT';}
	.st2{font-size:3px;}
	.st3{font-size:2px;}
	.st4{fill:#404040;}
	.st5{fill:#8D8C8C;}
	.st6{fill:#8C8663;}
	.st7{fill:#B8AF82;}
	.st8{fill:#80795B;}
	.st9{fill:#5E5B43;}
	.st10{fill:#9A916C;}
</style>
<rect x="2" y="30.3" class="st0" width="42" height="19.2"/>
<text transform="matrix(1 0 0 1 2 32.469)"><tspan x="0" y="0" class="st1 st2">Copyright (C) </tspan><tspan x="0" y="3.6" class="st1 st2">2017 Intel Corporation.</tspan><tspan x="0" y="7.6" class="st1 st3">This document is licensed under the Creative </tspan><tspan x="0" y="10" class="st1 st3">Commons Attribution 3.0 Unported License </tspan><tspan x="0" y="12.4" class="st1 st3">(“CC-BY-3.0”):https://creativecommons.org/li</tspan><tspan x="39.5" y="12.4" class="st1 st3">-</tspan><tspan x="0" y="14.8" class="st1 st3">censes/by/3.0/legalcode</tspan></text>
<polygon id="polygon795_1_" class="st4" points="95.8,21.4 97.3,19.9 97.3,16 95.8,14.5 5.4,14.5 3.9,16 3.9,19.9 5.4,21.4 "/>
<rect id="_0.1.2.0.0.0.0.7.0-5_1_" x="13.4" y="16.8" class="st5" width="2.3" height="2.3"/>
<g id="lsePin3_1_">
	<rect id="_0.1.2.0.0.0.0.32.0-5_1_" x="13.9" y="17.3" class="st6" width="1.2" height="1.2"/>
	<polygon id="_0.1.2.0.0.0.0.33-5_1_" class="st7" points="15.7,19 15.1,18.5 13.9,18.5 13.4,19 	"/>
	<polygon id="_0.1.2.0.0.0.0.34-5_1_" class="st8" points="13.9,17.3 13.9,18.5 13.4,19 13.4,16.8 	"/>
	<polygon id="_0.1.2.0.0.0.0.35-5_1_" class="st9" points="15.1,17.3 13.9,17.3 13.4,16.8 15.7,16.8 	"/>
	<polygon id="_0.1.2.0.0.0.0.36-5_1_" class="st10" points="15.7,19 15.1,18.5 15.1,17.3 15.7,16.8 	"/>
</g>
<rect id="_0.1.2.0.0.0.0.6.0-5_1_" x="20.6" y="16.8" class="st5" width="2.3" height="2.3"/>
<g id="lsePin5_1_">
	<rect id="_0.1.2.0.0.0.0.37.0-5_1_" x="21.1" y="17.3" class="st6" width="1.2" height="1.2"/>
	<polygon id="_0.1.2.0.0.0.0.38-5_1_" class="st7" points="22.9,19 22.3,18.5 21.1,18.5 20.6,19 	"/>
	<polygon id="_0.1.2.0.0.0.0.39-5_1_" class="st8" points="21.1,17.3 21.1,18.5 20.6,19 20.6,16.8 	"/>
	<polygon id="_0.1.2.0.0.0.0.40-5_1_" class="st9" points="22.3,17.3 21.1,17.3 20.6,16.8 22.9,16.8 	"/>
	<polygon id="_0.1.2.0.0.0.0.41-5_1_" class="st10" points="22.9,19 22.3,18.5 22.3,17.3 22.9,16.8 	"/>
</g>
<rect id="_0.1.2.0.0.0.0.6.0-6_1_" x="92.6" y="16.8" class="st5" width="2.3" height="2.3"/>
<g id="lsePin25_1_">
	<rect id="_0.1.2.0.0.0.0.37.0-6_1_" x="93.1" y="17.3" class="st6" width="1.2" height="1.2"/>
	<polygon id="_0.1.2.0.0.0.0.38-6_1_" class="st7" points="94.9,19 94.3,18.5 93.1,18.5 92.6,19 	"/>
	<polygon id="_0.1.2.0.0.0.0.39-6_1_" class="st8" points="93.1,17.3 93.1,18.5 92.6,19 92.6,16.8 	"/>
	<polygon id="_0.1.2.0.0.0.0.40-6_1_" class="st9" points="94.3,17.3 93.1,17.3 92.6,16.8 94.9,16.8 	"/>
	<polygon id="_0.1.2.0.0.0.0.41-6_1_" class="st10" points="94.9,19 94.3,18.5 94.3,17.3 94.9,16.8 	"/>
</g>
<rect id="_0.1.2.0.0.0.0.7.0-6_1_" x="6.2" y="16.8" class="st5" width="2.3" height="2.3"/>
<g id="lsePin1_1_">
	<rect id="_0.1.2.0.0.0.0.32.0-6_1_" x="6.7" y="17.3" class="st6" width="1.2" height="1.2"/>
	<polygon id="_0.1.2.0.0.0.0.33-6_1_" class="st7" points="8.5,19 7.9,18.5 6.8,18.5 6.2,19 	"/>
	<polygon id="_0.1.2.0.0.0.0.34-6_1_" class="st8" points="6.8,17.3 6.8,18.5 6.2,19 6.2,16.8 	"/>
	<polygon id="_0.1.2.0.0.0.0.35-6_1_" class="st9" points="7.9,17.3 6.8,17.3 6.2,16.8 8.5,16.8 	"/>
	<polygon id="_0.1.2.0.0.0.0.36-6_1_" class="st10" points="8.5,19 7.9,18.5 7.9,17.3 8.5,16.8 	"/>
</g>
<rect id="_0.1.2.0.0.0.0.7.0-7_1_" x="27.8" y="16.8" class="st5" width="2.3" height="2.3"/>
<g id="lsePin7_1_">
	<rect id="_0.1.2.0.0.0.0.32.0-7_1_" x="28.3" y="17.3" class="st6" width="1.2" height="1.2"/>
	<polygon id="_0.1.2.0.0.0.0.33-7_1_" class="st7" points="30.1,19 29.5,18.5 28.3,18.5 27.8,19 	"/>
	<polygon id="_0.1.2.0.0.0.0.34-7_1_" class="st8" points="28.3,17.3 28.3,18.5 27.8,19 27.8,16.8 	"/>
	<polygon id="_0.1.2.0.0.0.0.35-7_1_" class="st9" points="29.5,17.3 28.3,17.3 27.8,16.8 30.1,16.8 	"/>
	<polygon id="_0.1.2.0.0.0.0.36-7_1_" class="st10" points="30.1,19 29.5,18.5 29.5,17.3 30.1,16.8 	"/>
</g>
<rect id="_0.1.2.0.0.0.0.6.0-7_1_" x="35" y="16.8" class="st5" width="2.3" height="2.3"/>
<g id="lsePin9_1_">
	<rect id="_0.1.2.0.0.0.0.37.0-7_1_" x="35.5" y="17.3" class="st6" width="1.2" height="1.2"/>
	<polygon id="_0.1.2.0.0.0.0.38-7_1_" class="st7" points="37.3,19 36.7,18.5 35.5,18.5 35,19 	"/>
	<polygon id="_0.1.2.0.0.0.0.39-7_1_" class="st8" points="35.5,17.3 35.5,18.5 35,19 35,16.8 	"/>
	<polygon id="_0.1.2.0.0.0.0.40-7_1_" class="st9" points="36.7,17.3 35.5,17.3 35,16.8 37.3,16.8 	"/>
	<polygon id="_0.1.2.0.0.0.0.41-7_1_" class="st10" points="37.3,19 36.7,18.5 36.7,17.3 37.3,16.8 	"/>
</g>
<rect id="_0.1.2.0.0.0.0.7.0-8_1_" x="42.2" y="16.8" class="st5" width="2.3" height="2.3"/>
<g id="lsePin11_1_">
	<rect id="_0.1.2.0.0.0.0.32.0-8_1_" x="42.7" y="17.3" class="st6" width="1.2" height="1.2"/>
	<polygon id="_0.1.2.0.0.0.0.33-8_1_" class="st7" points="44.5,19 43.9,18.5 42.7,18.5 42.2,19 	"/>
	<polygon id="_0.1.2.0.0.0.0.34-8_1_" class="st8" points="42.7,17.3 42.7,18.5 42.2,19 42.2,16.8 	"/>
	<polygon id="_0.1.2.0.0.0.0.35-8_1_" class="st9" points="43.9,17.3 42.7,17.3 42.2,16.8 44.5,16.8 	"/>
	<polygon id="_0.1.2.0.0.0.0.36-8_1_" class="st10" points="44.5,19 43.9,18.5 43.9,17.3 44.5,16.8 	"/>
</g>
<rect id="_0.1.2.0.0.0.0.6.0-8_1_" x="49.4" y="16.8" class="st5" width="2.3" height="2.3"/>
<g id="lsePin13_1_">
	<rect id="_0.1.2.0.0.0.0.37.0-8_1_" x="49.9" y="17.3" class="st6" width="1.2" height="1.2"/>
	<polygon id="_0.1.2.0.0.0.0.38-8_1_" class="st7" points="51.7,19 51.1,18.5 49.9,18.5 49.4,19 	"/>
	<polygon id="_0.1.2.0.0.0.0.39-8_1_" class="st8" points="49.9,17.3 49.9,18.5 49.4,19 49.4,16.8 	"/>
	<polygon id="_0.1.2.0.0.0.0.40-8_1_" class="st9" points="51.1,17.3 49.9,17.3 49.4,16.8 51.7,16.8 	"/>
	<polygon id="_0.1.2.0.0.0.0.41-8_1_" class="st10" points="51.7,19 51.1,18.5 51.1,17.3 51.7,16.8 	"/>
</g>
<rect id="_0.1.2.0.0.0.0.7.0-9_1_" x="56.6" y="16.8" class="st5" width="2.3" height="2.3"/>
<g id="lsePin15_1_">
	<rect id="_0.1.2.0.0.0.0.32.0-9_1_" x="57.1" y="17.3" class="st6" width="1.2" height="1.2"/>
	<polygon id="_0.1.2.0.0.0.0.33-9_1_" class="st7" points="58.9,19 58.3,18.5 57.1,18.5 56.6,19 	"/>
	<polygon id="_0.1.2.0.0.0.0.34-9_1_" class="st8" points="57.1,17.3 57.1,18.5 56.6,19 56.6,16.8 	"/>
	<polygon id="_0.1.2.0.0.0.0.35-9_1_" class="st9" points="58.3,17.3 57.1,17.3 56.6,16.8 58.9,16.8 	"/>
	<polygon id="_0.1.2.0.0.0.0.36-9_1_" class="st10" points="58.9,19 58.3,18.5 58.3,17.3 58.9,16.8 	"/>
</g>
<rect id="_0.1.2.0.0.0.0.6.0-9_1_" x="63.8" y="16.8" class="st5" width="2.3" height="2.3"/>
<g id="lsePin17_1_">
	<rect id="_0.1.2.0.0.0.0.37.0-9_1_" x="64.3" y="17.3" class="st6" width="1.2" height="1.2"/>
	<polygon id="_0.1.2.0.0.0.0.38-9_1_" class="st7" points="66.1,19 65.5,18.5 64.3,18.5 63.8,19 	"/>
	<polygon id="_0.1.2.0.0.0.0.39-9_1_" class="st8" points="64.3,18.4 63.8,18.9 63.8,16.7 64.3,17.2 64.3,17.2 	"/>
	<polygon id="_0.1.2.0.0.0.0.40-9_1_" class="st9" points="65.5,17.3 64.3,17.3 63.8,16.8 66.1,16.8 	"/>
	<polygon id="_0.1.2.0.0.0.0.41-9_1_" class="st10" points="66.1,19 65.5,18.5 65.5,17.3 66.1,16.8 	"/>
</g>
<rect id="_0.1.2.0.0.0.0.7.0-10_1_" x="71" y="16.8" class="st5" width="2.3" height="2.3"/>
<g id="lsePin19_1_">
	<rect id="_0.1.2.0.0.0.0.32.0-10_1_" x="71.5" y="17.3" class="st6" width="1.2" height="1.2"/>
	<polygon id="_0.1.2.0.0.0.0.33-10_1_" class="st7" points="73.3,19 72.7,18.5 71.5,18.5 71,19 	"/>
	<polygon id="_0.1.2.0.0.0.0.34-10_1_" class="st8" points="71.5,17.3 71.5,18.5 71,19 71,16.8 	"/>
	<polygon id="_0.1.2.0.0.0.0.35-10_1_" class="st9" points="72.7,17.3 71.5,17.3 71,16.8 73.3,16.8 	"/>
	<polygon id="_0.1.2.0.0.0.0.36-10_1_" class="st10" points="73.3,19 72.7,18.5 72.7,17.3 73.3,16.8 	"/>
</g>
<rect id="_0.1.2.0.0.0.0.6.0-10_1_" x="78.2" y="16.8" class="st5" width="2.3" height="2.3"/>
<g id="lsePin21_1_">
	<rect id="_0.1.2.0.0.0.0.37.0-10_1_" x="78.7" y="17.3" class="st6" width="1.2" height="1.2"/>
	<polygon id="_0.1.2.0.0.0.0.38-10_1_" class="st7" points="80.5,19 79.9,18.5 78.7,18.5 78.2,19 	"/>
	<polygon id="_0.1.2.0.0.0.0.39-10_1_" class="st8" points="78.7,17.3 78.7,18.5 78.2,19 78.2,16.8 	"/>
	<polygon id="_0.1.2.0.0.0.0.40-10_1_" class="st9" points="79.9,17.3 78.7,17.3 78.2,16.8 80.5,16.8 	"/>
	<polygon id="_0.1.2.0.0.0.0.41-10_1_" class="st10" points="80.5,19 79.9,18.5 79.9,17.3 80.5,16.8 	"/>
</g>
<rect id="_0.1.2.0.0.0.0.7.0-11_1_" x="85.4" y="16.8" class="st5" width="2.3" height="2.3"/>
<g id="lsePin23_1_">
	<rect id="_0.1.2.0.0.0.0.32.0-11_1_" x="85.9" y="17.3" class="st6" width="1.2" height="1.2"/>
	<polygon id="_0.1.2.0.0.0.0.33-11_1_" class="st7" points="87.7,19 87.1,18.5 85.9,18.5 85.4,19 	"/>
	<polygon id="_0.1.2.0.0.0.0.34-11_1_" class="st8" points="85.9,17.3 85.9,18.5 85.4,19 85.4,16.8 	"/>
	<polygon id="_0.1.2.0.0.0.0.35-11_1_" class="st9" points="87.1,17.3 85.9,17.3 85.4,16.8 87.7,16.8 	"/>
	<polygon id="_0.1.2.0.0.0.0.36-11_1_" class="st10" points="87.7,19 87.1,18.5 87.1,17.3 87.7,16.8 	"/>
</g>
<polygon id="polygon875_1_" class="st4" points="95.8,14.2 97.3,12.7 97.3,8.8 95.8,7.3 5.4,7.3 3.9,8.8 3.9,12.7 5.4,14.2 "/>
<rect id="_0.1.2.0.0.0.0.7.0-12_1_" x="13.4" y="9.6" class="st5" width="2.3" height="2.3"/>
<g id="lsePin4_1_">
	<rect id="_0.1.2.0.0.0.0.32.0-12_1_" x="13.9" y="10.1" class="st6" width="1.2" height="1.2"/>
	<polygon id="_0.1.2.0.0.0.0.33-12_1_" class="st7" points="15.7,11.8 15.1,11.3 13.9,11.3 13.4,11.8 	"/>
	<polygon id="_0.1.2.0.0.0.0.34-12_1_" class="st8" points="13.9,10.1 13.9,11.3 13.4,11.8 13.4,9.6 	"/>
	<polygon id="_0.1.2.0.0.0.0.35-12_1_" class="st9" points="15.1,10.1 13.9,10.1 13.4,9.6 15.7,9.6 	"/>
	<polygon id="_0.1.2.0.0.0.0.36-12_1_" class="st10" points="15.7,11.8 15.1,11.3 15.1,10.1 15.7,9.6 	"/>
</g>
<rect id="_0.1.2.0.0.0.0.6.0-11_1_" x="20.6" y="9.6" class="st5" width="2.3" height="2.3"/>
<g id="lsePin6_1_">
	<rect id="_0.1.2.0.0.0.0.37.0-11_1_" x="21.1" y="10.1" class="st6" width="1.2" height="1.2"/>
	<polygon id="_0.1.2.0.0.0.0.38-11_1_" class="st7" points="22.9,11.8 22.3,11.3 21.1,11.3 20.6,11.8 	"/>
	<polygon id="_0.1.2.0.0.0.0.39-11_1_" class="st8" points="21.1,10.1 21.1,11.3 20.6,11.8 20.6,9.6 	"/>
	<polygon id="_0.1.2.0.0.0.0.40-11_1_" class="st9" points="22.3,10.1 21.1,10.1 20.6,9.6 22.9,9.6 	"/>
	<polygon id="_0.1.2.0.0.0.0.41-11_1_" class="st10" points="22.9,11.8 22.3,11.3 22.3,10.1 22.9,9.6 	"/>
</g>
<rect id="_0.1.2.0.0.0.0.6.0-12_1_" x="92.6" y="9.6" class="st5" width="2.3" height="2.3"/>
<g id="lsePin26_1_">
	<rect id="_0.1.2.0.0.0.0.37.0-12_1_" x="93.1" y="10.1" class="st6" width="1.2" height="1.2"/>
	<polygon id="_0.1.2.0.0.0.0.38-12_1_" class="st7" points="94.9,11.8 94.3,11.3 93.1,11.3 92.6,11.8 	"/>
	<polygon id="_0.1.2.0.0.0.0.39-12_1_" class="st8" points="93.1,10.1 93.1,11.3 92.6,11.8 92.6,9.6 	"/>
	<polygon id="_0.1.2.0.0.0.0.40-12_1_" class="st9" points="94.3,10.1 93.1,10.1 92.6,9.6 94.9,9.6 	"/>
	<polygon id="_0.1.2.0.0.0.0.41-12_1_" class="st10" points="94.9,11.8 94.3,11.3 94.3,10.1 94.9,9.6 	"/>
</g>
<rect id="_0.1.2.0.0.0.0.7.0-13_1_" x="6.2" y="9.6" class="st5" width="2.3" height="2.3"/>
<g id="lsePin2_1_">
	<rect id="_0.1.2.0.0.0.0.32.0-13_1_" x="6.7" y="10.1" class="st6" width="1.2" height="1.2"/>
	<polygon id="_0.1.2.0.0.0.0.33-13_1_" class="st7" points="8.5,11.8 7.9,11.3 6.8,11.3 6.2,11.8 	"/>
	<polygon id="_0.1.2.0.0.0.0.34-13_1_" class="st8" points="6.8,10.1 6.8,11.3 6.2,11.8 6.2,9.6 	"/>
	<polygon id="_0.1.2.0.0.0.0.35-13_1_" class="st9" points="7.9,10.1 6.8,10.1 6.2,9.6 8.5,9.6 	"/>
	<polygon id="_0.1.2.0.0.0.0.36-13_1_" class="st10" points="8.5,11.8 7.9,11.3 7.9,10.1 8.5,9.6 	"/>
</g>
<rect id="_0.1.2.0.0.0.0.7.0-14_1_" x="27.8" y="9.6" class="st5" width="2.3" height="2.3"/>
<g id="lsePin8_1_">
	<rect id="_0.1.2.0.0.0.0.32.0-14_1_" x="28.3" y="10.1" class="st6" width="1.2" height="1.2"/>
	<polygon id="_0.1.2.0.0.0.0.33-14_1_" class="st7" points="30.1,11.8 29.5,11.3 28.3,11.3 27.8,11.8 	"/>
	<polygon id="_0.1.2.0.0.0.0.34-14_1_" class="st8" points="28.3,10.1 28.3,11.3 27.8,11.8 27.8,9.6 	"/>
	<polygon id="_0.1.2.0.0.0.0.35-14_1_" class="st9" points="29.5,10.1 28.3,10.1 27.8,9.6 30.1,9.6 	"/>
	<polygon id="_0.1.2.0.0.0.0.36-14_1_" class="st10" points="30.1,11.8 29.5,11.3 29.5,10.1 30.1,9.6 	"/>
</g>
<rect id="_0.1.2.0.0.0.0.6.0-13_1_" x="35" y="9.6" class="st5" width="2.3" height="2.3"/>
<g id="lsePin10_1_">
	<rect id="_0.1.2.0.0.0.0.37.0-13_1_" x="35.5" y="10.1" class="st6" width="1.2" height="1.2"/>
	<polygon id="_0.1.2.0.0.0.0.38-13_1_" class="st7" points="37.3,11.8 36.7,11.3 35.5,11.3 35,11.8 	"/>
	<polygon id="_0.1.2.0.0.0.0.39-13_1_" class="st8" points="35.5,10.1 35.5,11.3 35,11.8 35,9.6 	"/>
	<polygon id="_0.1.2.0.0.0.0.40-13_1_" class="st9" points="36.7,10.1 35.5,10.1 35,9.6 37.3,9.6 	"/>
	<polygon id="_0.1.2.0.0.0.0.41-13_1_" class="st10" points="37.3,11.8 36.7,11.3 36.7,10.1 37.3,9.6 	"/>
</g>
<rect id="_0.1.2.0.0.0.0.7.0-15_1_" x="42.2" y="9.6" class="st5" width="2.3" height="2.3"/>
<g id="lsePin12_1_">
	<rect id="_0.1.2.0.0.0.0.32.0-15_1_" x="42.7" y="10.1" class="st6" width="1.2" height="1.2"/>
	<polygon id="_0.1.2.0.0.0.0.33-15_1_" class="st7" points="44.5,11.8 43.9,11.3 42.7,11.3 42.2,11.8 	"/>
	<polygon id="_0.1.2.0.0.0.0.34-15_1_" class="st8" points="42.7,10.1 42.7,11.3 42.2,11.8 42.2,9.6 	"/>
	<polygon id="_0.1.2.0.0.0.0.35-15_1_" class="st9" points="43.9,10.1 42.7,10.1 42.2,9.6 44.5,9.6 	"/>
	<polygon id="_0.1.2.0.0.0.0.36-15_1_" class="st10" points="44.5,11.8 43.9,11.3 43.9,10.1 44.5,9.6 	"/>
</g>
<rect id="_0.1.2.0.0.0.0.6.0-14_1_" x="49.4" y="9.6" class="st5" width="2.3" height="2.3"/>
<g id="lsePin14_1_">
	<rect id="_0.1.2.0.0.0.0.37.0-14_1_" x="49.9" y="10.1" class="st6" width="1.2" height="1.2"/>
	<polygon id="_0.1.2.0.0.0.0.38-14_1_" class="st7" points="51.7,11.8 51.1,11.3 49.9,11.3 49.4,11.8 	"/>
	<polygon id="_0.1.2.0.0.0.0.39-14_1_" class="st8" points="49.9,10.1 49.9,11.3 49.4,11.8 49.4,9.6 	"/>
	<polygon id="_0.1.2.0.0.0.0.40-14_1_" class="st9" points="51.1,10.1 49.9,10.1 49.4,9.6 51.7,9.6 	"/>
	<polygon id="_0.1.2.0.0.0.0.41-14_1_" class="st10" points="51.7,11.8 51.1,11.3 51.1,10.1 51.7,9.6 	"/>
</g>
<rect id="_0.1.2.0.0.0.0.7.0-16_1_" x="56.6" y="9.6" class="st5" width="2.3" height="2.3"/>
<g id="lsePin16_1_">
	<rect id="_0.1.2.0.0.0.0.32.0-16_1_" x="57.1" y="10.1" class="st6" width="1.2" height="1.2"/>
	<polygon id="_0.1.2.0.0.0.0.33-16_1_" class="st7" points="58.9,11.8 58.3,11.3 57.1,11.3 56.6,11.8 	"/>
	<polygon id="_0.1.2.0.0.0.0.34-16_1_" class="st8" points="57.1,10.1 57.1,11.3 56.6,11.8 56.6,9.6 	"/>
	<polygon id="_0.1.2.0.0.0.0.35-16_1_" class="st9" points="58.3,10.1 57.1,10.1 56.6,9.6 58.9,9.6 	"/>
	<polygon id="_0.1.2.0.0.0.0.36-16_1_" class="st10" points="58.9,11.8 58.3,11.3 58.3,10.1 58.9,9.6 	"/>
</g>
<rect id="_0.1.2.0.0.0.0.6.0-15_1_" x="63.8" y="9.6" class="st5" width="2.3" height="2.3"/>
<g id="lsePin18_1_">
	<rect id="_0.1.2.0.0.0.0.37.0-15_1_" x="64.3" y="10.1" class="st6" width="1.2" height="1.2"/>
	<polygon id="_0.1.2.0.0.0.0.38-15_1_" class="st7" points="66.1,11.8 65.5,11.3 64.3,11.3 63.8,11.8 	"/>
	<polygon id="_0.1.2.0.0.0.0.39-15_1_" class="st8" points="64.3,10.1 64.3,11.3 63.8,11.8 63.8,9.6 	"/>
	<polygon id="_0.1.2.0.0.0.0.40-15_1_" class="st9" points="65.5,10.1 64.3,10.1 63.8,9.6 66.1,9.6 	"/>
	<polygon id="_0.1.2.0.0.0.0.41-15_1_" class="st10" points="66.1,11.8 65.5,11.3 65.5,10.1 66.1,9.6 	"/>
</g>
<rect id="_0.1.2.0.0.0.0.7.0-17_1_" x="71" y="9.6" class="st5" width="2.3" height="2.3"/>
<g id="lsePin20_1_">
	<rect id="_0.1.2.0.0.0.0.32.0-17_1_" x="71.5" y="10.1" class="st6" width="1.2" height="1.2"/>
	<polygon id="_0.1.2.0.0.0.0.33-17_1_" class="st7" points="73.3,11.8 72.7,11.3 71.5,11.3 71,11.8 	"/>
	<polygon id="_0.1.2.0.0.0.0.34-17_1_" class="st8" points="71.5,10.1 71.5,11.3 71,11.8 71,9.6 	"/>
	<polygon id="_0.1.2.0.0.0.0.35-17_1_" class="st9" points="72.7,10.1 71.5,10.1 71,9.6 73.3,9.6 	"/>
	<polygon id="_0.1.2.0.0.0.0.36-17_1_" class="st10" points="73.3,11.8 72.7,11.3 72.7,10.1 73.3,9.6 	"/>
</g>
<rect id="_0.1.2.0.0.0.0.6.0-16_1_" x="78.2" y="9.6" class="st5" width="2.3" height="2.3"/>
<g id="lsePin22_1_">
	<rect id="_0.1.2.0.0.0.0.37.0-16_1_" x="78.7" y="10.1" class="st6" width="1.2" height="1.2"/>
	<polygon id="_0.1.2.0.0.0.0.38-16_1_" class="st7" points="80.5,11.8 79.9,11.3 78.7,11.3 78.2,11.8 	"/>
	<polygon id="_0.1.2.0.0.0.0.39-16_1_" class="st8" points="78.7,10.1 78.7,11.3 78.2,11.8 78.2,9.6 	"/>
	<polygon id="_0.1.2.0.0.0.0.40-16_1_" class="st9" points="79.9,10.1 78.7,10.1 78.2,9.6 80.5,9.6 	"/>
	<polygon id="_0.1.2.0.0.0.0.41-16_1_" class="st10" points="80.5,11.8 79.9,11.3 79.9,10.1 80.5,9.6 	"/>
</g>
<rect id="_0.1.2.0.0.0.0.7.0-18_1_" x="85.4" y="9.6" class="st5" width="2.3" height="2.3"/>
<g id="lsePin24_1_" transform="translate(0.04404062,-0.02202031)">
	<rect id="_0.1.2.0.0.0.0.32.0-18_1_" x="85.9" y="10.1" class="st6" width="1.2" height="1.2"/>
	<polygon id="_0.1.2.0.0.0.0.33-18_1_" class="st7" points="87.1,11.3 85.9,11.3 85.4,11.8 87.7,11.8 87.7,11.8 	"/>
	<polygon id="_0.1.2.0.0.0.0.34-18_1_" class="st8" points="85.9,11.3 85.4,11.8 85.4,9.6 85.9,10.1 85.9,10.1 	"/>
	<polygon id="_0.1.2.0.0.0.0.35-18_1_" class="st9" points="85.9,10.1 85.4,9.6 87.7,9.6 87.1,10.1 87.1,10.1 	"/>
	<polygon id="_0.1.2.0.0.0.0.36-18_1_" class="st10" points="87.1,11.3 87.1,10.1 87.7,9.6 87.7,11.8 87.7,11.8 	"/>
</g>
</svg>
