<?xml version="1.0" encoding="utf-8"?>
<!-- Generator: Adobe Illustrator 21.1.0, SVG Export Plug-In . SVG Version: 6.00 Build 0)  -->
<svg version="1.1" id="Layer_1" xmlns="http://www.w3.org/2000/svg" xmlns:xlink="http://www.w3.org/1999/xlink" x="0px" y="0px"
	 viewBox="0 0 56 63" style="enable-background:new 0 0 56 63;" xml:space="preserve">
<style type="text/css">
	.st0{fill:none;}
	.st1{font-family:'ArialMT';}
	.st2{font-size:3px;}
	.st3{font-size:2px;}
	.st4{fill:#333333;}
	.st5{fill:#404040;}
	.st6{fill:#474747;}
	.st7{fill:#704533;}
	.st8{fill:#B3B3B3;}
</style>
<rect x="2" y="43.8" class="st0" width="42" height="19.2"/>
<text transform="matrix(1 0 0 1 2 45.9814)"><tspan x="0" y="0" class="st1 st2">Copyright (C) </tspan><tspan x="0" y="3.6" class="st1 st2">2017 Intel Corporation.</tspan><tspan x="0" y="7.6" class="st1 st3">This document is licensed under the Creative </tspan><tspan x="0" y="10" class="st1 st3">Commons Attribution 3.0 Unported License </tspan><tspan x="0" y="12.4" class="st1 st3">(“CC-BY-3.0”):https://creativecommons.org/li</tspan><tspan x="39.5" y="12.4" class="st1 st3">-</tspan><tspan x="0" y="14.8" class="st1 st3">censes/by/3.0/legalcode</tspan></text>
<g id="sata_2_">
	<rect id="rect955_2_" x="3.7" y="4.1" class="st4" width="47.1" height="18.7"/>
	<rect id="rect957_2_" x="3.7" y="22.8" class="st5" width="10.8" height="14.2"/>
	<rect id="rect959_2_" x="6.4" y="22.8" class="st6" width="5.4" height="14.2"/>
	<rect id="rect963_2_" x="40" y="22.8" class="st5" width="10.8" height="14.2"/>
	<rect id="rect965_2_" x="42.7" y="22.8" class="st6" width="5.4" height="14.2"/>
	<rect id="rect969_2_" x="14.4" y="25.9" class="st6" width="25.6" height="5.5"/>
	<rect id="rect971_2_" x="16.1" y="20" class="st5" width="5.9" height="2.8"/>
	<rect id="rect973_2_" x="13" y="5.7" class="st7" width="28.4" height="14.3"/>
	<rect id="rect975_2_" x="32.4" y="20" class="st5" width="5.9" height="2.8"/>
	<rect id="rect979_2_" x="15.4" y="25.9" class="st8" width="1.3" height="11.2"/>
	<rect id="rect981_2_" x="8.4" y="22.8" class="st8" width="1.3" height="9.7"/>
	<rect id="rect985_2_" x="19.1" y="25.9" class="st8" width="1.3" height="11.2"/>
	<rect id="rect987_2_" x="22.9" y="25.9" class="st8" width="1.3" height="11.2"/>
	<rect id="rect989_2_" x="26.6" y="25.9" class="st8" width="1.3" height="11.2"/>
	<rect id="rect991_2_" x="30.3" y="25.9" class="st8" width="1.3" height="11.2"/>
	<rect id="rect993_2_" x="34" y="25.9" class="st8" width="1.3" height="11.2"/>
	<rect id="rect995_2_" x="37.7" y="25.9" class="st8" width="1.3" height="11.2"/>
	<polygon id="polygon997_2_" class="st6" points="52.8,34 50.8,37 50.8,4.1 52.8,4.1 	"/>
</g>
</svg>
