<?xml version="1.0" encoding="utf-8"?>
<!-- Generator: Adobe Illustrator 21.0.2, SVG Export Plug-In . SVG Version: 6.00 Build 0)  -->
<!-- Copyright (C) 2017 Intel Corporation. These files are licensed under the Creative Commons Attribution 3.0 Unported License (CC-BY-3.0) -->
<svg version="1.1" id="Layer_1" xmlns="http://www.w3.org/2000/svg" xmlns:xlink="http://www.w3.org/1999/xlink" x="0px" y="0px"
	 viewBox="0 0 51 63" style="enable-background:new 0 0 51 63;" xml:space="preserve">
		 <metadata id="license"
		xmlns:rdf="http://www.w3.org/1999/02/22-rdf-syntax-ns#"
		xmlns:dc="http://purl.org/dc/elements/1.1/"
    xmlns:cc="http://creativecommons.org/ns#">
	  <rdf:RDF>
	    <cc:Work rdf:about="">
	    	<cc:license rdf:resource="https://creativecommons.org/licenses/by/3.0/" />
			</cc:Work>
	    <cc:License rdf:about="https://creativecommons.org/licenses/by/3.0/">
	    </cc:License>
	  </rdf:RDF>
	</metadata>
<style type="text/css">
	.st0{fill:#404040;}
	.st1{fill:#B8AF82;}
	.st2{fill:none;}
	.st3{fill:#E2D6A1;}
	.st4{opacity:0.2;fill:#FFFFFF;enable-background:new    ;}
	.st5{opacity:0.1;enable-background:new    ;}
	.st6{fill:#9A916C;}
	.st7{fill:#474747;}
	.st8{fill:#373737;}
</style>
<g id="UARTO_PIN">
	<polygon id="polygon1002_1_" class="st0" points="45.1,49.2 46.6,47.7 46.6,43.8 45.1,42.3 5,42.3 3.5,43.8 3.5,47.7 5,49.2 	"/>
	<g id="ftdiPin1_1_">
		<g id="_0.2.0.0_1_">
			<rect id="_0.2.0.0.0_1_" x="3.4" y="35.8" width="7.2" height="6"/>
			<g id="_0.2.0.0.1_1_">
				<polygon id="connector64pin_1_" class="st1" points="5.9,16.3 6.4,14 7.6,14 8.2,16.3 8.2,37.2 5.9,37.2 				"/>
				<rect id="connector64terminal_1_" x="7" y="15.6" class="st2" width="0" height="0.1"/>
				<polygon id="_0.2.0.0.1.1_1_" class="st3" points="6.4,14 6.3,14.7 7.8,14.7 7.6,14 				"/>
				<polygon id="_0.2.0.0.1.2_1_" class="st4" points="7.9,37.2 7.9,16.3 7.3,14 7.6,14 8.2,16.3 8.2,37.2 				"/>
				<polygon id="_0.2.0.0.1.3_1_" class="st5" points="5.8,37.2 5.8,16.3 6.4,14 6.7,14 6.1,16.3 6.1,37.2 				"/>
			</g>
			<polygon id="_0.2.0.0.5_1_" class="st1" points="5.9,46.9 8.2,46.9 8.2,39.6 5.9,39.6 			"/>
			<polygon id="_0.2.0.0.6_1_" class="st6" points="5.9,46.9 8.2,46.9 8.2,46.5 5.9,46.5 			"/>
			<polygon id="_0.2.0.0.7_1_" class="st3" points="5.9,46.4 8.2,46.4 8.2,45.8 5.9,45.8 			"/>
			<rect id="_0.2.0.0.8_1_" x="4.4" y="35.8" class="st0" width="5.1" height="6"/>
			<polygon id="_0.2.0.0.9_1_" class="st7" points="4.4,35.8 3.4,35.8 3.4,41.8 4.4,41.8 			"/>
			<polygon id="_0.2.0.0.10_1_" class="st8" points="9.6,41.8 10.6,41.8 10.6,35.8 9.6,35.8 			"/>
			<polygon id="_0.2.0.0.11_1_" class="st4" points="8.2,41.8 8.2,46.9 7.9,46.9 7.9,41.8 			"/>
			<polygon id="_0.2.0.0.12_1_" class="st5" points="6.1,41.8 6.1,46.9 5.8,46.9 5.8,41.8 			"/>
		</g>
	</g>
	<g id="ftdiPin2_1_">
		<g id="_0.2.1.0_1_">
			<rect id="_0.2.1.0.0_1_" x="10.6" y="35.8" width="7.2" height="6"/>
			<g id="_0.2.1.0.1_1_">
				<polygon id="connector63pin_1_" class="st1" points="13.1,16.3 13.6,14 14.8,14 15.4,16.3 15.4,37.2 13.1,37.2 				"/>
				<rect id="connector63terminal_1_" x="14.2" y="15.6" class="st2" width="0" height="0.1"/>
				<polygon id="_0.2.1.0.1.1_1_" class="st3" points="13.6,14 13.5,14.7 15,14.7 14.8,14 				"/>
				<polygon id="_0.2.1.0.1.2_1_" class="st4" points="15.1,37.2 15.1,16.3 14.5,14 14.8,14 15.4,16.3 15.4,37.2 				"/>
				<polygon id="_0.2.1.0.1.3_1_" class="st5" points="13,37.2 13,16.3 13.6,14 13.9,14 13.3,16.3 13.3,37.2 				"/>
			</g>
			<polygon id="_0.2.1.0.5_1_" class="st1" points="13.1,46.9 15.4,46.9 15.4,39.6 13.1,39.6 			"/>
			<polygon id="_0.2.1.0.6_1_" class="st6" points="13.1,46.9 15.4,46.9 15.4,46.5 13.1,46.5 			"/>
			<polygon id="_0.2.1.0.7_1_" class="st3" points="13.1,46.4 15.4,46.4 15.4,45.8 13.1,45.8 			"/>
			<rect id="_0.2.1.0.8_1_" x="11.6" y="35.8" class="st0" width="5.1" height="6"/>
			<polygon id="_0.2.1.0.9_1_" class="st7" points="11.6,35.8 10.6,35.8 10.6,41.8 11.6,41.8 			"/>
			<polygon id="_0.2.1.0.10_1_" class="st8" points="16.8,41.8 17.8,41.8 17.8,35.8 16.8,35.8 			"/>
			<polygon id="_0.2.1.0.11_1_" class="st4" points="15.4,41.8 15.4,46.9 15.1,46.9 15.1,41.8 			"/>
			<polygon id="_0.2.1.0.12_1_" class="st5" points="13.3,41.8 13.3,46.9 13,46.9 13,41.8 			"/>
		</g>
	</g>
	<g id="ftdiPin3_1_">
		<g id="_0.2.2.0_1_">
			<rect id="_0.2.2.0.0_1_" x="17.8" y="35.8" width="7.2" height="6"/>
			<g id="_0.2.2.0.1_1_">
				<polygon id="connector62pin_1_" class="st1" points="20.3,16.3 20.8,14 22,14 22.6,16.3 22.6,37.2 20.3,37.2 				"/>
				<rect id="connector62terminal_1_" x="21.4" y="15.6" class="st2" width="0" height="0.1"/>
				<polygon id="_0.2.2.0.1.1_1_" class="st3" points="20.8,14 20.7,14.7 22.2,14.7 22,14 				"/>
				<polygon id="_0.2.2.0.1.2_1_" class="st4" points="22.3,37.2 22.3,16.3 21.7,14 22,14 22.6,16.3 22.6,37.2 				"/>
				<polygon id="_0.2.2.0.1.3_1_" class="st5" points="20.2,37.2 20.2,16.3 20.8,14 21.1,14 20.5,16.3 20.5,37.2 				"/>
			</g>
			<polygon id="_0.2.2.0.5_1_" class="st1" points="20.3,46.9 22.6,46.9 22.6,39.6 20.3,39.6 			"/>
			<polygon id="_0.2.2.0.6_1_" class="st6" points="20.3,46.9 22.6,46.9 22.6,46.5 20.3,46.5 			"/>
			<polygon id="_0.2.2.0.7_1_" class="st3" points="20.3,46.4 22.6,46.4 22.6,45.8 20.3,45.8 			"/>
			<rect id="_0.2.2.0.8_1_" x="18.8" y="35.8" class="st0" width="5.1" height="6"/>
			<polygon id="_0.2.2.0.9_1_" class="st7" points="18.8,35.8 17.8,35.8 17.8,41.8 18.8,41.8 			"/>
			<polygon id="_0.2.2.0.10_1_" class="st8" points="24,41.8 25,41.8 25,35.8 24,35.8 			"/>
			<polygon id="_0.2.2.0.11_1_" class="st4" points="22.6,41.8 22.6,46.9 22.3,46.9 22.3,41.8 			"/>
			<polygon id="_0.2.2.0.12_1_" class="st5" points="20.5,41.8 20.5,46.9 20.2,46.9 20.2,41.8 			"/>
		</g>
	</g>
	<g id="ftdiPin4_1_">
		<g id="_0.2.3.0_1_">
			<rect id="_0.2.3.0.0_1_" x="25" y="35.8" width="7.2" height="6"/>
			<g id="_0.2.3.0.1_1_">
				<polygon id="connector61pin_1_" class="st1" points="27.5,16.3 28,14 29.2,14 29.8,16.3 29.8,37.2 27.5,37.2 				"/>
				<rect id="connector61terminal_1_" x="28.6" y="15.6" class="st2" width="0" height="0.1"/>
				<polygon id="_0.2.3.0.1.1_1_" class="st3" points="28,14 27.9,14.7 29.4,14.7 29.2,14 				"/>
				<polygon id="_0.2.3.0.1.2_1_" class="st4" points="29.5,37.2 29.5,16.3 28.9,14 29.2,14 29.8,16.3 29.8,37.2 				"/>
				<polygon id="_0.2.3.0.1.3_1_" class="st5" points="27.4,37.2 27.4,16.3 28,14 28.3,14 27.7,16.3 27.7,37.2 				"/>
			</g>
			<polygon id="_0.2.3.0.5_1_" class="st1" points="27.5,46.9 29.8,46.9 29.8,39.6 27.5,39.6 			"/>
			<polygon id="_0.2.3.0.6_1_" class="st6" points="27.5,46.9 29.8,46.9 29.8,46.5 27.5,46.5 			"/>
			<polygon id="_0.2.3.0.7_1_" class="st3" points="27.5,46.4 29.8,46.4 29.8,45.8 27.5,45.8 			"/>
			<rect id="_0.2.3.0.8_1_" x="26" y="35.8" class="st0" width="5.1" height="6"/>
			<polygon id="_0.2.3.0.9_1_" class="st7" points="26,35.8 25,35.8 25,41.8 26,41.8 			"/>
			<polygon id="_0.2.3.0.10_1_" class="st8" points="31.2,41.8 32.2,41.8 32.2,35.8 31.2,35.8 			"/>
			<polygon id="_0.2.3.0.11_1_" class="st4" points="29.8,41.8 29.8,46.9 29.5,46.9 29.5,41.8 			"/>
			<polygon id="_0.2.3.0.12_1_" class="st5" points="27.7,41.8 27.7,46.9 27.4,46.9 27.4,41.8 			"/>
		</g>
	</g>
	<g id="ftdiPin5_1_">
		<g id="_0.2.4.0_1_">
			<rect id="_0.2.4.0.0_1_" x="32.2" y="35.8" width="7.2" height="6"/>
			<g id="_0.2.4.0.1_1_">
				<polygon id="connector60pin_1_" class="st1" points="34.7,16.3 35.2,14 36.4,14 37,16.3 37,37.2 34.7,37.2 				"/>
				<rect id="connector60terminal_1_" x="35.8" y="15.6" class="st2" width="0" height="0.1"/>
				<polygon id="_0.2.4.0.1.1_1_" class="st3" points="35.2,14 35.1,14.7 36.6,14.7 36.4,14 				"/>
				<polygon id="_0.2.4.0.1.2_1_" class="st4" points="36.7,37.2 36.7,16.3 36.1,14 36.4,14 37,16.3 37,37.2 				"/>
				<polygon id="_0.2.4.0.1.3_1_" class="st5" points="34.6,37.2 34.6,16.3 35.2,14 35.5,14 34.9,16.3 34.9,37.2 				"/>
			</g>
			<polygon id="_0.2.4.0.5_1_" class="st1" points="34.7,46.9 37,46.9 37,39.6 34.7,39.6 			"/>
			<polygon id="_0.2.4.0.6_1_" class="st6" points="34.7,46.9 37,46.9 37,46.5 34.7,46.5 			"/>
			<polygon id="_0.2.4.0.7_1_" class="st3" points="34.7,46.4 37,46.4 37,45.8 34.7,45.8 			"/>
			<rect id="_0.2.4.0.8_1_" x="33.2" y="35.8" class="st0" width="5.1" height="6"/>
			<polygon id="_0.2.4.0.9_1_" class="st7" points="33.2,35.8 32.2,35.8 32.2,41.8 33.2,41.8 			"/>
			<polygon id="_0.2.4.0.10_1_" class="st8" points="38.4,41.8 39.4,41.8 39.4,35.8 38.4,35.8 			"/>
			<polygon id="_0.2.4.0.11_1_" class="st4" points="37,41.8 37,46.9 36.7,46.9 36.7,41.8 			"/>
			<polygon id="_0.2.4.0.12_1_" class="st5" points="34.9,41.8 34.9,46.9 34.6,46.9 34.6,41.8 			"/>
		</g>
	</g>
	<g id="ftdiPin6_1_">
		<g id="_0.2.5.0_1_">
			<rect id="_0.2.5.0.0_1_" x="39.4" y="35.8" width="7.2" height="6"/>
			<g id="_0.2.5.0.1_1_">
				<polygon id="connector59pin_1_" class="st1" points="41.9,16.3 42.4,14 43.6,14 44.2,16.3 44.2,37.2 41.9,37.2 				"/>
				<rect id="connector59terminal_1_" x="43" y="15.6" class="st2" width="0" height="0.1"/>
				<polygon id="_0.2.5.0.1.1_1_" class="st3" points="42.4,14 42.3,14.7 43.8,14.7 43.6,14 				"/>
				<polygon id="_0.2.5.0.1.2_1_" class="st4" points="43.9,37.2 43.9,16.3 43.3,14 43.6,14 44.2,16.3 44.2,37.2 				"/>
				<polygon id="_0.2.5.0.1.3_1_" class="st5" points="41.8,37.2 41.8,16.3 42.4,14 42.7,14 42.1,16.3 42.1,37.2 				"/>
			</g>
			<polygon id="_0.2.5.0.5_1_" class="st1" points="41.9,46.9 44.2,46.9 44.2,39.6 41.9,39.6 			"/>
			<polygon id="_0.2.5.0.6_1_" class="st6" points="41.9,46.9 44.2,46.9 44.2,46.5 41.9,46.5 			"/>
			<polygon id="_0.2.5.0.7_1_" class="st3" points="41.9,46.4 44.2,46.4 44.2,45.8 41.9,45.8 			"/>
			<rect id="_0.2.5.0.8_1_" x="40.4" y="35.8" class="st0" width="5.1" height="6"/>
			<polygon id="_0.2.5.0.9_1_" class="st7" points="40.4,35.8 39.4,35.8 39.4,41.8 40.4,41.8 			"/>
			<polygon id="_0.2.5.0.10_1_" class="st8" points="45.6,41.8 46.6,41.8 46.6,35.8 45.6,35.8 			"/>
			<polygon id="_0.2.5.0.11_1_" class="st4" points="44.2,41.8 44.2,46.9 43.9,46.9 43.9,41.8 			"/>
			<polygon id="_0.2.5.0.12_1_" class="st5" points="42.1,41.8 42.1,46.9 41.8,46.9 41.8,41.8 			"/>
		</g>
	</g>
</g>
</svg>
