<?xml version="1.0" encoding="utf-8"?>
<!-- Generator: Adobe Illustrator 21.0.2, SVG Export Plug-In . SVG Version: 6.00 Build 0)  -->
<svg version="1.1" id="Layer_1" xmlns="http://www.w3.org/2000/svg" xmlns:xlink="http://www.w3.org/1999/xlink" x="0px" y="0px"
	 viewBox="0 0 56 63" style="enable-background:new 0 0 56 63;" xml:space="preserve">
<style type="text/css">
	.st0{fill:#333333;}
	.st1{fill:#404040;}
	.st2{fill:#474747;}
	.st3{fill:#704533;}
	.st4{fill:#B3B3B3;}
</style>
<g id="sata_2_">
	<rect id="rect955_2_" x="3.7" y="16.8" class="st0" width="47.1" height="18.7"/>
	<rect id="rect957_2_" x="3.7" y="35.5" class="st1" width="10.8" height="14.2"/>
	<rect id="rect959_2_" x="6.4" y="35.5" class="st2" width="5.4" height="14.2"/>
	<rect id="rect963_2_" x="40" y="35.5" class="st1" width="10.8" height="14.2"/>
	<rect id="rect965_2_" x="42.7" y="35.5" class="st2" width="5.4" height="14.2"/>
	<rect id="rect969_2_" x="14.4" y="38.6" class="st2" width="25.6" height="5.5"/>
	<rect id="rect971_2_" x="16.1" y="32.7" class="st1" width="5.9" height="2.8"/>
	<rect id="rect973_2_" x="13" y="18.4" class="st3" width="28.4" height="14.3"/>
	<rect id="rect975_2_" x="32.4" y="32.7" class="st1" width="5.9" height="2.8"/>
	<rect id="rect979_2_" x="15.4" y="38.6" class="st4" width="1.3" height="11.2"/>
	<rect id="rect981_2_" x="8.4" y="35.5" class="st4" width="1.3" height="9.7"/>
	<rect id="rect985_2_" x="19.1" y="38.6" class="st4" width="1.3" height="11.2"/>
	<rect id="rect987_2_" x="22.9" y="38.6" class="st4" width="1.3" height="11.2"/>
	<rect id="rect989_2_" x="26.6" y="38.6" class="st4" width="1.3" height="11.2"/>
	<rect id="rect991_2_" x="30.3" y="38.6" class="st4" width="1.3" height="11.2"/>
	<rect id="rect993_2_" x="34" y="38.6" class="st4" width="1.3" height="11.2"/>
	<rect id="rect995_2_" x="37.7" y="38.6" class="st4" width="1.3" height="11.2"/>
	<polygon id="polygon997_2_" class="st2" points="52.8,46.7 50.8,49.7 50.8,16.8 52.8,16.8 	"/>
</g>
</svg>
