<?xml version="1.0" encoding="utf-8"?>
<!-- Generator: Adobe Illustrator 21.1.0, SVG Export Plug-In . SVG Version: 6.00 Build 0)  -->
<svg version="1.1" id="Layer_1" xmlns="http://www.w3.org/2000/svg" xmlns:xlink="http://www.w3.org/1999/xlink" x="0px" y="0px"
	 viewBox="0 0 46 49.5" style="enable-background:new 0 0 46 49.5;" xml:space="preserve">
<style type="text/css">
	.st0{fill:#404040;}
	.st1{fill:#8D8C8C;}
	.st2{fill:#8C8663;}
	.st3{fill:#B8AF82;}
	.st4{fill:#80795B;}
	.st5{fill:#5E5B43;}
	.st6{fill:#9A916C;}
	.st7{fill:none;}
	.st8{font-family:'ArialMT';}
	.st9{font-size:3px;}
	.st10{font-size:2px;}
</style>
<g id="PIN">
	<polygon id="polygon729_1_" class="st0" points="35.8,15.6 37.3,14.1 37.3,10.2 35.8,8.7 10.2,8.7 8.7,10.2 8.7,14.1 10.2,15.6 	
		"/>
	<rect id="_0.1.2.0.0.0.0.7.0_1_" x="18.2" y="11" class="st1" width="2.3" height="2.3"/>
	<g id="spiPin5_1_">
		<rect id="_0.1.2.0.0.0.0.32.0_1_" x="18.7" y="11.5" class="st2" width="1.2" height="1.2"/>
		<polygon id="_0.1.2.0.0.0.0.33_1_" class="st3" points="20.5,13.2 19.9,12.7 18.7,12.7 18.2,13.2 		"/>
		<polygon id="_0.1.2.0.0.0.0.34_1_" class="st4" points="18.7,11.5 18.7,12.7 18.2,13.2 18.2,11 		"/>
		<polygon id="_0.1.2.0.0.0.0.35_1_" class="st5" points="19.9,11.5 18.7,11.5 18.2,11 20.5,11 		"/>
		<polygon id="_0.1.2.0.0.0.0.36_1_" class="st6" points="20.5,13.2 19.9,12.7 19.9,11.5 20.5,11 		"/>
	</g>
	<rect id="_0.1.2.0.0.0.0.6.0_1_" x="25.4" y="11" class="st1" width="2.3" height="2.3"/>
	<g id="spiPin3_1_">
		<rect id="_0.1.2.0.0.0.0.37.0_1_" x="25.9" y="11.5" class="st2" width="1.2" height="1.2"/>
		<polygon id="_0.1.2.0.0.0.0.38_1_" class="st3" points="27.7,13.2 27.1,12.7 25.9,12.7 25.4,13.2 		"/>
		<polygon id="_0.1.2.0.0.0.0.39_1_" class="st4" points="25.9,11.5 25.9,12.7 25.4,13.2 25.4,11 		"/>
		<polygon id="_0.1.2.0.0.0.0.40_1_" class="st5" points="27.1,11.5 25.9,11.5 25.4,11 27.7,11 		"/>
		<polygon id="_0.1.2.0.0.0.0.41_1_" class="st6" points="27.7,13.2 27.1,12.7 27.1,11.5 27.7,11 		"/>
	</g>
	<rect id="_0.1.2.0.0.0.0.6.0-2_1_" x="32.6" y="11" class="st1" width="2.3" height="2.3"/>
	<g id="spiPin1_1_">
		<rect id="_0.1.2.0.0.0.0.37.0-2_1_" x="33.1" y="11.5" class="st2" width="1.2" height="1.2"/>
		<polygon id="_0.1.2.0.0.0.0.38-2_1_" class="st3" points="34.9,13.2 34.3,12.7 33.1,12.7 32.6,13.2 		"/>
		<polygon id="_0.1.2.0.0.0.0.39-2_1_" class="st4" points="33.1,11.5 33.1,12.7 32.6,13.2 32.6,11 		"/>
		<polygon id="_0.1.2.0.0.0.0.40-2_1_" class="st5" points="34.3,11.5 33.1,11.5 32.6,11 34.9,11 		"/>
		<polygon id="_0.1.2.0.0.0.0.41-2_1_" class="st6" points="34.9,13.2 34.3,12.7 34.3,11.5 34.9,11 		"/>
	</g>
	<rect id="_0.1.2.0.0.0.0.7.0-2_1_" x="11" y="11" class="st1" width="2.3" height="2.3"/>
	<g id="spiPin7_1_">
		<rect id="_0.1.2.0.0.0.0.32.0-2_1_" x="11.5" y="11.5" class="st2" width="1.2" height="1.2"/>
		<polygon id="_0.1.2.0.0.0.0.33-2_1_" class="st3" points="13.3,13.2 12.7,12.7 11.6,12.7 11,13.2 		"/>
		<polygon id="_0.1.2.0.0.0.0.34-2_1_" class="st4" points="11.6,11.5 11.6,12.7 11,13.2 11,11 		"/>
		<polygon id="_0.1.2.0.0.0.0.35-2_1_" class="st5" points="12.7,11.5 11.6,11.5 11,11 13.3,11 		"/>
		<polygon id="_0.1.2.0.0.0.0.36-2_1_" class="st6" points="13.3,13.2 12.7,12.7 12.7,11.5 13.3,11 		"/>
	</g>
	<polygon id="polygon755_1_" class="st0" points="35.8,22.8 37.3,21.3 37.3,17.4 35.8,15.9 10.2,15.9 8.7,17.4 8.7,21.3 10.2,22.8 	
		"/>
	<rect id="_0.1.2.0.0.0.0.7.0-3_1_" x="18.2" y="18.2" class="st1" width="2.3" height="2.3"/>
	<g id="spiPin6_1_">
		<rect id="_0.1.2.0.0.0.0.32.0-3_1_" x="18.7" y="18.7" class="st2" width="1.2" height="1.2"/>
		<polygon id="_0.1.2.0.0.0.0.33-3_1_" class="st3" points="20.5,20.4 19.9,19.9 18.7,19.9 18.2,20.4 		"/>
		<polygon id="_0.1.2.0.0.0.0.34-3_1_" class="st4" points="18.7,18.7 18.7,19.9 18.2,20.4 18.2,18.2 		"/>
		<polygon id="_0.1.2.0.0.0.0.35-3_1_" class="st5" points="19.9,18.7 18.7,18.7 18.2,18.2 20.5,18.2 		"/>
		<polygon id="_0.1.2.0.0.0.0.36-3_1_" class="st6" points="20.5,20.4 19.9,19.9 19.9,18.7 20.5,18.2 		"/>
	</g>
	<rect id="_0.1.2.0.0.0.0.6.0-3_1_" x="25.4" y="18.2" class="st1" width="2.3" height="2.3"/>
	<g id="spiPin4_1_">
		<rect id="_0.1.2.0.0.0.0.37.0-3_1_" x="25.9" y="18.7" class="st2" width="1.2" height="1.2"/>
		<polygon id="_0.1.2.0.0.0.0.38-3_1_" class="st3" points="27.7,20.4 27.1,19.9 25.9,19.9 25.4,20.4 		"/>
		<polygon id="_0.1.2.0.0.0.0.39-3_1_" class="st4" points="25.9,18.7 25.9,19.9 25.4,20.4 25.4,18.2 		"/>
		<polygon id="_0.1.2.0.0.0.0.40-3_1_" class="st5" points="27.1,18.7 25.9,18.7 25.4,18.2 27.7,18.2 		"/>
		<polygon id="_0.1.2.0.0.0.0.41-3_1_" class="st6" points="27.7,20.4 27.1,19.9 27.1,18.7 27.7,18.2 		"/>
	</g>
	<rect id="_0.1.2.0.0.0.0.6.0-4_1_" x="32.6" y="18.2" class="st1" width="2.3" height="2.3"/>
	<g id="spiPin2_1_">
		<rect id="_0.1.2.0.0.0.0.37.0-4_1_" x="33.1" y="18.7" class="st2" width="1.2" height="1.2"/>
		<polygon id="_0.1.2.0.0.0.0.38-4_1_" class="st3" points="34.9,20.4 34.3,19.9 33.1,19.9 32.6,20.4 		"/>
		<polygon id="_0.1.2.0.0.0.0.39-4_1_" class="st4" points="33.1,18.7 33.1,19.9 32.6,20.4 32.6,18.2 		"/>
		<polygon id="_0.1.2.0.0.0.0.40-4_1_" class="st5" points="34.3,18.7 33.1,18.7 32.6,18.2 34.9,18.2 		"/>
		<polygon id="_0.1.2.0.0.0.0.41-4_1_" class="st6" points="34.9,20.4 34.3,19.9 34.3,18.7 34.9,18.2 		"/>
	</g>
	<rect id="_0.1.2.0.0.0.0.7.0-4_1_" x="11" y="18.2" class="st1" width="2.3" height="2.3"/>
	<g id="spiPin8_1_">
		<rect id="_0.1.2.0.0.0.0.32.0-4_1_" x="11.5" y="18.7" class="st2" width="1.2" height="1.2"/>
		<polygon id="_0.1.2.0.0.0.0.33-4_1_" class="st3" points="13.3,20.4 12.7,19.9 11.6,19.9 11,20.4 		"/>
		<polygon id="_0.1.2.0.0.0.0.34-4_1_" class="st4" points="11.6,18.7 11.6,19.9 11,20.4 11,18.2 		"/>
		<polygon id="_0.1.2.0.0.0.0.35-4_1_" class="st5" points="12.7,18.7 11.6,18.7 11,18.2 13.3,18.2 		"/>
		<polygon id="_0.1.2.0.0.0.0.36-4_1_" class="st6" points="13.3,20.4 12.7,19.9 12.7,18.7 13.3,18.2 		"/>
	</g>
</g>
<rect x="2" y="30.3" class="st7" width="42" height="19.2"/>
<text transform="matrix(1 0 0 1 2 32.469)"><tspan x="0" y="0" class="st8 st9">Copyright (C) </tspan><tspan x="0" y="3.6" class="st8 st9">2017 Intel Corporation.</tspan><tspan x="0" y="7.6" class="st8 st10">This document is licensed under the Creative </tspan><tspan x="0" y="10" class="st8 st10">Commons Attribution 3.0 Unported License </tspan><tspan x="0" y="12.4" class="st8 st10">(“CC-BY-3.0”):https://creativecommons.org/li</tspan><tspan x="39.5" y="12.4" class="st8 st10">-</tspan><tspan x="0" y="14.8" class="st8 st10">censes/by/3.0/legalcode</tspan></text>
</svg>
