<?xml version="1.0" encoding="utf-8"?>
<!-- Generator: Adobe Illustrator 21.0.2, SVG Export Plug-In . SVG Version: 6.00 Build 0)  -->
<!-- Copyright (C) 2017 Intel Corporation. These files are licensed under the Creative Commons Attribution 3.0 Unported License (CC-BY-3.0) -->
<svg version="1.1" id="Layer_1" xmlns="http://www.w3.org/2000/svg" xmlns:xlink="http://www.w3.org/1999/xlink" x="0px" y="0px"
	 viewBox="0 0 154 49.5" style="enable-background:new 0 0 154 49.5;" xml:space="preserve">
		 <metadata id="license"
		xmlns:rdf="http://www.w3.org/1999/02/22-rdf-syntax-ns#"
		xmlns:dc="http://purl.org/dc/elements/1.1/"
    xmlns:cc="http://creativecommons.org/ns#">
	  <rdf:RDF>
	    <cc:Work rdf:about="">
	    	<cc:license rdf:resource="https://creativecommons.org/licenses/by/3.0/" />
			</cc:Work>
	    <cc:License rdf:about="https://creativecommons.org/licenses/by/3.0/">
	    </cc:License>
	  </rdf:RDF>
	</metadata>
<style type="text/css">
	.st0{fill:#404040;}
	.st1{fill:#2A2A29;}
	.st2{fill:#474747;}
	.st3{fill:#595959;}
	.st4{fill:#373737;}
</style>
<g id="_x30_.1.17_1_" transform="matrix(1, 0, 0, 1, 67.6403, 3.60123)">
	<g id="_x31_x10_1_">
		<rect id="_x30_.1.17.0.0_1_" x="-62.7" y="11.3" class="st0" width="144.1" height="14.3"/>
		<g>
			<rect id="_x30_.1.17.0.1_2_" x="-60.6" y="14" width="3.9" height="1.9"/>
			<polygon id="_x30_.1.17.0.2_2_" class="st1" points="-61.2,12.7 -60.1,13.6 -57.5,13.6 -56.4,12.7 			"/>
			<polygon id="_x30_.1.17.0.3_2_" class="st2" points="-56.4,12.7 -57.5,13.6 -57.5,16.4 -56.4,17.4 			"/>
			<polygon id="_x30_.1.17.0.4_2_" class="st3" points="-56.4,17.4 -57.5,16.4 -60.1,16.4 -61.2,17.4 			"/>
			<polygon id="_x30_.1.17.0.5_2_" class="st4" points="-61.2,17.4 -60.1,16.4 -60.1,13.6 -61.2,12.7 			"/>
		</g>
		<g>
			<rect id="_x30_.1.17.0.6_2_" x="-53.5" y="14" width="3.9" height="1.9"/>
			<polygon id="_x30_.1.17.0.7_2_" class="st1" points="-54.1,12.7 -53,13.6 -50.4,13.6 -49.3,12.7 			"/>
			<polygon id="_x30_.1.17.0.8_2_" class="st2" points="-49.3,12.7 -50.4,13.6 -50.4,16.4 -49.3,17.4 			"/>
			<polygon id="_x30_.1.17.0.9_2_" class="st3" points="-49.3,17.4 -50.4,16.4 -53,16.4 -54.1,17.4 			"/>
			<polygon id="_x30_.1.17.0.10_2_" class="st4" points="-54.1,17.4 -53,16.4 -53,13.6 -54.1,12.7 			"/>
		</g>
		<g>
			<rect id="_x30_.1.17.0.11_2_" x="-46.3" y="14" width="3.9" height="1.9"/>
			<polygon id="_x30_.1.17.0.12_2_" class="st1" points="-46.9,12.7 -45.8,13.6 -43.1,13.6 -42,12.7 			"/>
			<polygon id="_x30_.1.17.0.13_2_" class="st2" points="-42,12.7 -43.1,13.6 -43.1,16.4 -42,17.4 			"/>
			<polygon id="_x30_.1.17.0.14_2_" class="st3" points="-42,17.4 -43.1,16.4 -45.8,16.4 -46.9,17.4 			"/>
			<polygon id="_x30_.1.17.0.15_2_" class="st4" points="-46.9,17.4 -45.8,16.4 -45.8,13.6 -46.9,12.7 			"/>
		</g>
		<g>
			<rect id="_x30_.1.17.0.16_2_" x="-39.1" y="14" width="3.9" height="1.9"/>
			<polygon id="_x30_.1.17.0.17_2_" class="st1" points="-39.7,12.7 -38.6,13.6 -36,13.6 -34.9,12.7 			"/>
			<polygon id="_x30_.1.17.0.18_2_" class="st2" points="-34.9,12.7 -36,13.6 -36,16.4 -34.9,17.4 			"/>
			<polygon id="_x30_.1.17.0.19_2_" class="st3" points="-34.9,17.4 -36,16.4 -38.6,16.4 -39.7,17.4 			"/>
			<polygon id="_x30_.1.17.0.20_2_" class="st4" points="-39.7,17.4 -38.6,16.4 -38.6,13.6 -39.7,12.7 			"/>
		</g>
		<g>
			<rect id="_x30_.1.17.0.21_2_" x="-32" y="14" width="3.9" height="1.9"/>
			<polygon id="_x30_.1.17.0.22_2_" class="st1" points="-32.5,12.7 -31.4,13.6 -28.8,13.6 -27.7,12.7 			"/>
			<polygon id="_x30_.1.17.0.23_2_" class="st2" points="-27.7,12.7 -28.8,13.6 -28.8,16.4 -27.7,17.4 			"/>
			<polygon id="_x30_.1.17.0.24_2_" class="st3" points="-27.7,17.4 -28.8,16.4 -31.4,16.4 -32.5,17.4 			"/>
			<polygon id="_x30_.1.17.0.25_2_" class="st4" points="-32.5,17.4 -31.4,16.4 -31.4,13.6 -32.5,12.7 			"/>
		</g>
		<g>
			<rect id="_x30_.1.17.0.26_2_" x="-24.8" y="14" width="3.9" height="1.9"/>
			<polygon id="_x30_.1.17.0.27_2_" class="st1" points="-25.3,12.7 -24.3,13.6 -21.6,13.6 -20.5,12.7 			"/>
			<polygon id="_x30_.1.17.0.28_2_" class="st2" points="-20.5,12.7 -21.6,13.6 -21.6,16.4 -20.5,17.4 			"/>
			<polygon id="_x30_.1.17.0.29_2_" class="st3" points="-20.5,17.4 -21.6,16.4 -24.3,16.4 -25.3,17.4 			"/>
			<polygon id="_x30_.1.17.0.30_2_" class="st4" points="-25.3,17.4 -24.3,16.4 -24.3,13.6 -25.3,12.7 			"/>
		</g>
		<g>
			<rect id="_x30_.1.17.0.31_2_" x="-17.6" y="14" width="3.9" height="1.9"/>
			<polygon id="_x30_.1.17.0.32_2_" class="st1" points="-18.2,12.7 -17.1,13.6 -14.5,13.6 -13.4,12.7 			"/>
			<polygon id="_x30_.1.17.0.33_2_" class="st2" points="-13.4,12.7 -14.5,13.6 -14.5,16.4 -13.4,17.4 			"/>
			<polygon id="_x30_.1.17.0.34_2_" class="st3" points="-13.4,17.4 -14.5,16.4 -17.1,16.4 -18.2,17.4 			"/>
			<polygon id="_x30_.1.17.0.35_2_" class="st4" points="-18.2,17.4 -17.1,16.4 -17.1,13.6 -18.2,12.7 			"/>
		</g>
		<g>
			<rect id="_x30_.1.17.0.36_2_" x="-10.5" y="14" width="3.9" height="1.9"/>
			<polygon id="_x30_.1.17.0.37_2_" class="st1" points="-11,12.7 -9.9,13.6 -7.3,13.6 -6.2,12.7 			"/>
			<polygon id="_x30_.1.17.0.38_2_" class="st2" points="-6.2,12.7 -7.3,13.6 -7.3,16.4 -6.2,17.4 			"/>
			<polygon id="_x30_.1.17.0.39_2_" class="st3" points="-6.2,17.4 -7.3,16.4 -9.9,16.4 -11,17.4 			"/>
			<polygon id="_x30_.1.17.0.40_2_" class="st4" points="-11,17.4 -9.9,16.4 -9.9,13.6 -11,12.7 			"/>
		</g>
		<g>
			<rect id="_x30_.1.17.0.41_2_" x="-3.3" y="14" width="3.9" height="1.9"/>
			<polygon id="_x30_.1.17.0.42_2_" class="st1" points="-3.8,12.7 -2.8,13.6 -0.1,13.6 0.9,12.7 			"/>
			<polygon id="_x30_.1.17.0.43_2_" class="st2" points="0.9,12.7 -0.1,13.6 -0.1,16.4 0.9,17.4 			"/>
			<polygon id="_x30_.1.17.0.44_2_" class="st3" points="0.9,17.4 -0.1,16.4 -2.8,16.4 -3.8,17.4 			"/>
			<polygon id="_x30_.1.17.0.45_2_" class="st4" points="-3.8,17.4 -2.8,16.4 -2.8,13.6 -3.8,12.7 			"/>
		</g>
		<g>
			<rect id="_x30_.1.17.0.46_22_" x="3.8" y="14" width="3.9" height="1.9"/>
			<polygon id="_x30_.1.17.0.47_22_" class="st1" points="3.3,12.7 4.4,13.6 7,13.6 8.1,12.7 			"/>
			<polygon id="_x30_.1.17.0.48_22_" class="st2" points="8.1,12.7 7,13.6 7,16.4 8.1,17.4 			"/>
			<polygon id="_x30_.1.17.0.49_22_" class="st3" points="8.1,17.4 7,16.4 4.4,16.4 3.3,17.4 			"/>
			<polygon id="_x30_.1.17.0.50_22_" class="st4" points="3.3,17.4 4.4,16.4 4.4,13.6 3.3,12.7 			"/>
		</g>
		<g>
			<rect id="_x30_.1.17.0.46_21_" x="75.5" y="14" width="3.9" height="1.9"/>
			<polygon id="_x30_.1.17.0.47_21_" class="st1" points="74.9,12.7 76,13.6 78.7,13.6 79.7,12.7 			"/>
			<polygon id="_x30_.1.17.0.48_21_" class="st2" points="79.7,12.7 78.7,13.6 78.7,16.4 79.7,17.4 			"/>
			<polygon id="_x30_.1.17.0.49_21_" class="st3" points="79.7,17.4 78.7,16.4 76,16.4 74.9,17.4 			"/>
			<polygon id="_x30_.1.17.0.50_21_" class="st4" points="74.9,17.4 76,16.4 76,13.6 74.9,12.7 			"/>
		</g>
		<g>
			<rect id="_x30_.1.17.0.46_20_" x="68.3" y="14" width="3.9" height="1.9"/>
			<polygon id="_x30_.1.17.0.47_20_" class="st1" points="67.8,12.7 68.9,13.6 71.5,13.6 72.6,12.7 			"/>
			<polygon id="_x30_.1.17.0.48_20_" class="st2" points="72.6,12.7 71.5,13.6 71.5,16.4 72.6,17.4 			"/>
			<polygon id="_x30_.1.17.0.49_20_" class="st3" points="72.6,17.4 71.5,16.4 68.9,16.4 67.8,17.4 			"/>
			<polygon id="_x30_.1.17.0.50_20_" class="st4" points="67.8,17.4 68.9,16.4 68.9,13.6 67.8,12.7 			"/>
		</g>
		<g>
			<rect id="_x30_.1.17.0.46_19_" x="61.2" y="14" width="3.9" height="1.9"/>
			<polygon id="_x30_.1.17.0.47_19_" class="st1" points="60.6,12.7 61.7,13.6 64.4,13.6 65.4,12.7 			"/>
			<polygon id="_x30_.1.17.0.48_19_" class="st2" points="65.4,12.7 64.4,13.6 64.4,16.4 65.4,17.4 			"/>
			<polygon id="_x30_.1.17.0.49_19_" class="st3" points="65.4,17.4 64.4,16.4 61.7,16.4 60.6,17.4 			"/>
			<polygon id="_x30_.1.17.0.50_19_" class="st4" points="60.6,17.4 61.7,16.4 61.7,13.6 60.6,12.7 			"/>
		</g>
		<g>
			<rect id="_x30_.1.17.0.46_18_" x="54" y="14" width="3.9" height="1.9"/>
			<polygon id="_x30_.1.17.0.47_18_" class="st1" points="53.4,12.7 54.5,13.6 57.2,13.6 58.3,12.7 			"/>
			<polygon id="_x30_.1.17.0.48_18_" class="st2" points="58.3,12.7 57.2,13.6 57.2,16.4 58.3,17.4 			"/>
			<polygon id="_x30_.1.17.0.49_18_" class="st3" points="58.3,17.4 57.2,16.4 54.5,16.4 53.4,17.4 			"/>
			<polygon id="_x30_.1.17.0.50_18_" class="st4" points="53.4,17.4 54.5,16.4 54.5,13.6 53.4,12.7 			"/>
		</g>
		<g>
			<rect id="_x30_.1.17.0.46_17_" x="46.8" y="14" width="3.9" height="1.9"/>
			<polygon id="_x30_.1.17.0.47_17_" class="st1" points="46.3,12.7 47.4,13.6 50,13.6 51.1,12.7 			"/>
			<polygon id="_x30_.1.17.0.48_17_" class="st2" points="51.1,12.7 50,13.6 50,16.4 51.1,17.4 			"/>
			<polygon id="_x30_.1.17.0.49_17_" class="st3" points="51.1,17.4 50,16.4 47.4,16.4 46.3,17.4 			"/>
			<polygon id="_x30_.1.17.0.50_17_" class="st4" points="46.3,17.4 47.4,16.4 47.4,13.6 46.3,12.7 			"/>
		</g>
		<g>
			<rect id="_x30_.1.17.0.46_16_" x="39.6" y="14" width="3.9" height="1.9"/>
			<polygon id="_x30_.1.17.0.47_16_" class="st1" points="39.1,12.7 40.2,13.6 42.8,13.6 43.9,12.7 			"/>
			<polygon id="_x30_.1.17.0.48_16_" class="st2" points="43.9,12.7 42.8,13.6 42.8,16.4 43.9,17.4 			"/>
			<polygon id="_x30_.1.17.0.49_16_" class="st3" points="43.9,17.4 42.8,16.4 40.2,16.4 39.1,17.4 			"/>
			<polygon id="_x30_.1.17.0.50_16_" class="st4" points="39.1,17.4 40.2,16.4 40.2,13.6 39.1,12.7 			"/>
		</g>
		<g>
			<rect id="_x30_.1.17.0.46_15_" x="32.5" y="14" width="3.9" height="1.9"/>
			<polygon id="_x30_.1.17.0.47_15_" class="st1" points="31.9,12.7 33,13.6 35.7,13.6 36.7,12.7 			"/>
			<polygon id="_x30_.1.17.0.48_15_" class="st2" points="36.7,12.7 35.7,13.6 35.7,16.4 36.7,17.4 			"/>
			<polygon id="_x30_.1.17.0.49_15_" class="st3" points="36.7,17.4 35.7,16.4 33,16.4 31.9,17.4 			"/>
			<polygon id="_x30_.1.17.0.50_15_" class="st4" points="31.9,17.4 33,16.4 33,13.6 31.9,12.7 			"/>
		</g>
		<g>
			<rect id="_x30_.1.17.0.46_14_" x="25.3" y="14" width="3.9" height="1.9"/>
			<polygon id="_x30_.1.17.0.47_14_" class="st1" points="24.8,12.7 25.8,13.6 28.5,13.6 29.6,12.7 			"/>
			<polygon id="_x30_.1.17.0.48_14_" class="st2" points="29.6,12.7 28.5,13.6 28.5,16.4 29.6,17.4 			"/>
			<polygon id="_x30_.1.17.0.49_14_" class="st3" points="29.6,17.4 28.5,16.4 25.8,16.4 24.8,17.4 			"/>
			<polygon id="_x30_.1.17.0.50_14_" class="st4" points="24.8,17.4 25.8,16.4 25.8,13.6 24.8,12.7 			"/>
		</g>
		<g>
			<rect id="_x30_.1.17.0.46_13_" x="18.1" y="14" width="3.9" height="1.9"/>
			<polygon id="_x30_.1.17.0.47_13_" class="st1" points="17.6,12.7 18.7,13.6 21.3,13.6 22.4,12.7 			"/>
			<polygon id="_x30_.1.17.0.48_13_" class="st2" points="22.4,12.7 21.3,13.6 21.3,16.4 22.4,17.4 			"/>
			<polygon id="_x30_.1.17.0.49_13_" class="st3" points="22.4,17.4 21.3,16.4 18.7,16.4 17.6,17.4 			"/>
			<polygon id="_x30_.1.17.0.50_13_" class="st4" points="17.6,17.4 18.7,16.4 18.7,13.6 17.6,12.7 			"/>
		</g>
		<g>
			<rect id="_x30_.1.17.0.46_12_" x="11" y="14" width="3.9" height="1.9"/>
			<polygon id="_x30_.1.17.0.47_12_" class="st1" points="10.4,12.7 11.5,13.6 14.1,13.6 15.2,12.7 			"/>
			<polygon id="_x30_.1.17.0.48_12_" class="st2" points="15.2,12.7 14.1,13.6 14.1,16.4 15.2,17.4 			"/>
			<polygon id="_x30_.1.17.0.49_12_" class="st3" points="15.2,17.4 14.1,16.4 11.5,16.4 10.4,17.4 			"/>
			<polygon id="_x30_.1.17.0.50_12_" class="st4" points="10.4,17.4 11.5,16.4 11.5,13.6 10.4,12.7 			"/>
		</g>
		<rect x="73.4" y="14.7" class="st1" width="0.8" height="6.8"/>
		<rect x="66.2" y="14.7" class="st1" width="0.8" height="6.8"/>
		<rect x="59.1" y="14.7" class="st1" width="0.8" height="6.8"/>
		<rect x="51.9" y="14.7" class="st1" width="0.8" height="6.8"/>
		<rect x="44.7" y="14.7" class="st1" width="0.8" height="6.8"/>
		<rect x="37.5" y="14.7" class="st1" width="0.8" height="6.8"/>
		<rect x="30.4" y="14.7" class="st1" width="0.8" height="6.8"/>
		<rect x="23.2" y="14.7" class="st1" width="0.8" height="6.8"/>
		<rect x="16" y="14.7" class="st1" width="0.8" height="6.8"/>
		<rect x="8.9" y="14.7" class="st1" width="0.8" height="6.8"/>
		<rect x="1.7" y="14.7" class="st1" width="0.8" height="6.8"/>
		<rect x="-5.4" y="14.7" class="st1" width="0.8" height="6.8"/>
		<rect x="-12.6" y="14.7" class="st1" width="0.8" height="6.8"/>
		<rect x="-19.7" y="14.7" class="st1" width="0.8" height="6.8"/>
		<rect x="-26.9" y="14.7" class="st1" width="0.8" height="6.8"/>
		<rect x="-34.1" y="14.7" class="st1" width="0.8" height="6.8"/>
		<rect x="-41.2" y="14.7" class="st1" width="0.8" height="6.8"/>
		<rect x="-48.4" y="14.7" class="st1" width="0.8" height="6.8"/>
		<rect x="-55.6" y="14.7" class="st1" width="0.8" height="6.8"/>
		<g>
			<rect id="_x30_.1.17.0.1_1_" x="-60.6" y="20.9" width="3.9" height="1.9"/>
			<polygon id="_x30_.1.17.0.2_1_" class="st1" points="-61.2,19.5 -60.1,20.4 -57.5,20.4 -56.4,19.5 			"/>
			<polygon id="_x30_.1.17.0.3_1_" class="st2" points="-56.4,19.5 -57.5,20.4 -57.5,23.2 -56.4,24.2 			"/>
			<polygon id="_x30_.1.17.0.4_1_" class="st3" points="-56.4,24.2 -57.5,23.2 -60.1,23.2 -61.2,24.2 			"/>
			<polygon id="_x30_.1.17.0.5_1_" class="st4" points="-61.2,24.2 -60.1,23.2 -60.1,20.4 -61.2,19.5 			"/>
		</g>
		<g>
			<rect id="_x30_.1.17.0.6_1_" x="-53.5" y="20.9" width="3.9" height="1.9"/>
			<polygon id="_x30_.1.17.0.7_1_" class="st1" points="-54.1,19.5 -53,20.4 -50.4,20.4 -49.3,19.5 			"/>
			<polygon id="_x30_.1.17.0.8_1_" class="st2" points="-49.3,19.5 -50.4,20.4 -50.4,23.2 -49.3,24.2 			"/>
			<polygon id="_x30_.1.17.0.9_1_" class="st3" points="-49.3,24.2 -50.4,23.2 -53,23.2 -54.1,24.2 			"/>
			<polygon id="_x30_.1.17.0.10_1_" class="st4" points="-54.1,24.2 -53,23.2 -53,20.4 -54.1,19.5 			"/>
		</g>
		<g>
			<rect id="_x30_.1.17.0.11_1_" x="-46.3" y="20.9" width="3.9" height="1.9"/>
			<polygon id="_x30_.1.17.0.12_1_" class="st1" points="-46.9,19.5 -45.8,20.4 -43.1,20.4 -42,19.5 			"/>
			<polygon id="_x30_.1.17.0.13_1_" class="st2" points="-42,19.5 -43.1,20.4 -43.1,23.2 -42,24.2 			"/>
			<polygon id="_x30_.1.17.0.14_1_" class="st3" points="-42,24.2 -43.1,23.2 -45.8,23.2 -46.9,24.2 			"/>
			<polygon id="_x30_.1.17.0.15_1_" class="st4" points="-46.9,24.2 -45.8,23.2 -45.8,20.4 -46.9,19.5 			"/>
		</g>
		<g>
			<rect id="_x30_.1.17.0.16_1_" x="-39.1" y="20.9" width="3.9" height="1.9"/>
			<polygon id="_x30_.1.17.0.17_1_" class="st1" points="-39.7,19.5 -38.6,20.4 -36,20.4 -34.9,19.5 			"/>
			<polygon id="_x30_.1.17.0.18_1_" class="st2" points="-34.9,19.5 -36,20.4 -36,23.2 -34.9,24.2 			"/>
			<polygon id="_x30_.1.17.0.19_1_" class="st3" points="-34.9,24.2 -36,23.2 -38.6,23.2 -39.7,24.2 			"/>
			<polygon id="_x30_.1.17.0.20_1_" class="st4" points="-39.7,24.2 -38.6,23.2 -38.6,20.4 -39.7,19.5 			"/>
		</g>
		<g>
			<rect id="_x30_.1.17.0.21_1_" x="-32" y="20.9" width="3.9" height="1.9"/>
			<polygon id="_x30_.1.17.0.22_1_" class="st1" points="-32.5,19.5 -31.4,20.4 -28.8,20.4 -27.7,19.5 			"/>
			<polygon id="_x30_.1.17.0.23_1_" class="st2" points="-27.7,19.5 -28.8,20.4 -28.8,23.2 -27.7,24.2 			"/>
			<polygon id="_x30_.1.17.0.24_1_" class="st3" points="-27.7,24.2 -28.8,23.2 -31.4,23.2 -32.5,24.2 			"/>
			<polygon id="_x30_.1.17.0.25_1_" class="st4" points="-32.5,24.2 -31.4,23.2 -31.4,20.4 -32.5,19.5 			"/>
		</g>
		<g>
			<rect id="_x30_.1.17.0.26_1_" x="-24.8" y="20.9" width="3.9" height="1.9"/>
			<polygon id="_x30_.1.17.0.27_1_" class="st1" points="-25.3,19.5 -24.3,20.4 -21.6,20.4 -20.5,19.5 			"/>
			<polygon id="_x30_.1.17.0.28_1_" class="st2" points="-20.5,19.5 -21.6,20.4 -21.6,23.2 -20.5,24.2 			"/>
			<polygon id="_x30_.1.17.0.29_1_" class="st3" points="-20.5,24.2 -21.6,23.2 -24.3,23.2 -25.3,24.2 			"/>
			<polygon id="_x30_.1.17.0.30_1_" class="st4" points="-25.3,24.2 -24.3,23.2 -24.3,20.4 -25.3,19.5 			"/>
		</g>
		<g>
			<rect id="_x30_.1.17.0.31_1_" x="-17.6" y="20.9" width="3.9" height="1.9"/>
			<polygon id="_x30_.1.17.0.32_1_" class="st1" points="-18.2,19.5 -17.1,20.4 -14.5,20.4 -13.4,19.5 			"/>
			<polygon id="_x30_.1.17.0.33_1_" class="st2" points="-13.4,19.5 -14.5,20.4 -14.5,23.2 -13.4,24.2 			"/>
			<polygon id="_x30_.1.17.0.34_1_" class="st3" points="-13.4,24.2 -14.5,23.2 -17.1,23.2 -18.2,24.2 			"/>
			<polygon id="_x30_.1.17.0.35_1_" class="st4" points="-18.2,24.2 -17.1,23.2 -17.1,20.4 -18.2,19.5 			"/>
		</g>
		<g>
			<rect id="_x30_.1.17.0.36_1_" x="-10.5" y="20.9" width="3.9" height="1.9"/>
			<polygon id="_x30_.1.17.0.37_1_" class="st1" points="-11,19.5 -9.9,20.4 -7.3,20.4 -6.2,19.5 			"/>
			<polygon id="_x30_.1.17.0.38_1_" class="st2" points="-6.2,19.5 -7.3,20.4 -7.3,23.2 -6.2,24.2 			"/>
			<polygon id="_x30_.1.17.0.39_1_" class="st3" points="-6.2,24.2 -7.3,23.2 -9.9,23.2 -11,24.2 			"/>
			<polygon id="_x30_.1.17.0.40_1_" class="st4" points="-11,24.2 -9.9,23.2 -9.9,20.4 -11,19.5 			"/>
		</g>
		<g>
			<rect id="_x30_.1.17.0.41_1_" x="-3.3" y="20.9" width="3.9" height="1.9"/>
			<polygon id="_x30_.1.17.0.42_1_" class="st1" points="-3.8,19.5 -2.8,20.4 -0.1,20.4 0.9,19.5 			"/>
			<polygon id="_x30_.1.17.0.43_1_" class="st2" points="0.9,19.5 -0.1,20.4 -0.1,23.2 0.9,24.2 			"/>
			<polygon id="_x30_.1.17.0.44_1_" class="st3" points="0.9,24.2 -0.1,23.2 -2.8,23.2 -3.8,24.2 			"/>
			<polygon id="_x30_.1.17.0.45_1_" class="st4" points="-3.8,24.2 -2.8,23.2 -2.8,20.4 -3.8,19.5 			"/>
		</g>
		<g>
			<rect id="_x30_.1.17.0.46_11_" x="3.8" y="20.9" width="3.9" height="1.9"/>
			<polygon id="_x30_.1.17.0.47_11_" class="st1" points="3.3,19.5 4.4,20.4 7,20.4 8.1,19.5 			"/>
			<polygon id="_x30_.1.17.0.48_11_" class="st2" points="8.1,19.5 7,20.4 7,23.2 8.1,24.2 			"/>
			<polygon id="_x30_.1.17.0.49_11_" class="st3" points="8.1,24.2 7,23.2 4.4,23.2 3.3,24.2 			"/>
			<polygon id="_x30_.1.17.0.50_11_" class="st4" points="3.3,24.2 4.4,23.2 4.4,20.4 3.3,19.5 			"/>
		</g>
		<g>
			<rect id="_x30_.1.17.0.46_10_" x="75.5" y="21.2" width="3.9" height="1.9"/>
			<polygon id="_x30_.1.17.0.47_10_" class="st1" points="74.9,19.8 76,20.8 78.7,20.8 79.7,19.8 			"/>
			<polygon id="_x30_.1.17.0.48_10_" class="st2" points="79.7,19.8 78.7,20.8 78.7,23.5 79.7,24.5 			"/>
			<polygon id="_x30_.1.17.0.49_10_" class="st3" points="79.7,24.5 78.7,23.5 76,23.5 74.9,24.5 			"/>
			<polygon id="_x30_.1.17.0.50_10_" class="st4" points="74.9,24.5 76,23.5 76,20.8 74.9,19.8 			"/>
		</g>
		<g>
			<rect id="_x30_.1.17.0.46_9_" x="68.3" y="20.9" width="3.9" height="1.9"/>
			<polygon id="_x30_.1.17.0.47_9_" class="st1" points="67.8,19.5 68.9,20.4 71.5,20.4 72.6,19.5 			"/>
			<polygon id="_x30_.1.17.0.48_9_" class="st2" points="72.6,19.5 71.5,20.4 71.5,23.2 72.6,24.2 			"/>
			<polygon id="_x30_.1.17.0.49_9_" class="st3" points="72.6,24.2 71.5,23.2 68.9,23.2 67.8,24.2 			"/>
			<polygon id="_x30_.1.17.0.50_9_" class="st4" points="67.8,24.2 68.9,23.2 68.9,20.4 67.8,19.5 			"/>
		</g>
		<g>
			<rect id="_x30_.1.17.0.46_8_" x="61.2" y="20.9" width="3.9" height="1.9"/>
			<polygon id="_x30_.1.17.0.47_8_" class="st1" points="60.6,19.5 61.7,20.4 64.4,20.4 65.4,19.5 			"/>
			<polygon id="_x30_.1.17.0.48_8_" class="st2" points="65.4,19.5 64.4,20.4 64.4,23.2 65.4,24.2 			"/>
			<polygon id="_x30_.1.17.0.49_8_" class="st3" points="65.4,24.2 64.4,23.2 61.7,23.2 60.6,24.2 			"/>
			<polygon id="_x30_.1.17.0.50_8_" class="st4" points="60.6,24.2 61.7,23.2 61.7,20.4 60.6,19.5 			"/>
		</g>
		<g>
			<rect id="_x30_.1.17.0.46_7_" x="54" y="20.9" width="3.9" height="1.9"/>
			<polygon id="_x30_.1.17.0.47_7_" class="st1" points="53.4,19.5 54.5,20.4 57.2,20.4 58.3,19.5 			"/>
			<polygon id="_x30_.1.17.0.48_7_" class="st2" points="58.3,19.5 57.2,20.4 57.2,23.2 58.3,24.2 			"/>
			<polygon id="_x30_.1.17.0.49_7_" class="st3" points="58.3,24.2 57.2,23.2 54.5,23.2 53.4,24.2 			"/>
			<polygon id="_x30_.1.17.0.50_7_" class="st4" points="53.4,24.2 54.5,23.2 54.5,20.4 53.4,19.5 			"/>
		</g>
		<g>
			<rect id="_x30_.1.17.0.46_6_" x="46.8" y="20.9" width="3.9" height="1.9"/>
			<polygon id="_x30_.1.17.0.47_6_" class="st1" points="46.3,19.5 47.4,20.4 50,20.4 51.1,19.5 			"/>
			<polygon id="_x30_.1.17.0.48_6_" class="st2" points="51.1,19.5 50,20.4 50,23.2 51.1,24.2 			"/>
			<polygon id="_x30_.1.17.0.49_6_" class="st3" points="51.1,24.2 50,23.2 47.4,23.2 46.3,24.2 			"/>
			<polygon id="_x30_.1.17.0.50_6_" class="st4" points="46.3,24.2 47.4,23.2 47.4,20.4 46.3,19.5 			"/>
		</g>
		<g>
			<rect id="_x30_.1.17.0.46_5_" x="39.6" y="20.9" width="3.9" height="1.9"/>
			<polygon id="_x30_.1.17.0.47_5_" class="st1" points="39.1,19.5 40.2,20.4 42.8,20.4 43.9,19.5 			"/>
			<polygon id="_x30_.1.17.0.48_5_" class="st2" points="43.9,19.5 42.8,20.4 42.8,23.2 43.9,24.2 			"/>
			<polygon id="_x30_.1.17.0.49_5_" class="st3" points="43.9,24.2 42.8,23.2 40.2,23.2 39.1,24.2 			"/>
			<polygon id="_x30_.1.17.0.50_5_" class="st4" points="39.1,24.2 40.2,23.2 40.2,20.4 39.1,19.5 			"/>
		</g>
		<g>
			<rect id="_x30_.1.17.0.46_4_" x="32.5" y="20.9" width="3.9" height="1.9"/>
			<polygon id="_x30_.1.17.0.47_4_" class="st1" points="31.9,19.5 33,20.4 35.7,20.4 36.7,19.5 			"/>
			<polygon id="_x30_.1.17.0.48_4_" class="st2" points="36.7,19.5 35.7,20.4 35.7,23.2 36.7,24.2 			"/>
			<polygon id="_x30_.1.17.0.49_4_" class="st3" points="36.7,24.2 35.7,23.2 33,23.2 31.9,24.2 			"/>
			<polygon id="_x30_.1.17.0.50_4_" class="st4" points="31.9,24.2 33,23.2 33,20.4 31.9,19.5 			"/>
		</g>
		<g>
			<rect id="_x30_.1.17.0.46_3_" x="25.3" y="20.9" width="3.9" height="1.9"/>
			<polygon id="_x30_.1.17.0.47_3_" class="st1" points="24.8,19.5 25.8,20.4 28.5,20.4 29.6,19.5 			"/>
			<polygon id="_x30_.1.17.0.48_3_" class="st2" points="29.6,19.5 28.5,20.4 28.5,23.2 29.6,24.2 			"/>
			<polygon id="_x30_.1.17.0.49_3_" class="st3" points="29.6,24.2 28.5,23.2 25.8,23.2 24.8,24.2 			"/>
			<polygon id="_x30_.1.17.0.50_3_" class="st4" points="24.8,24.2 25.8,23.2 25.8,20.4 24.8,19.5 			"/>
		</g>
		<g>
			<rect id="_x30_.1.17.0.46_2_" x="18.1" y="20.9" width="3.9" height="1.9"/>
			<polygon id="_x30_.1.17.0.47_2_" class="st1" points="17.6,19.5 18.7,20.4 21.3,20.4 22.4,19.5 			"/>
			<polygon id="_x30_.1.17.0.48_2_" class="st2" points="22.4,19.5 21.3,20.4 21.3,23.2 22.4,24.2 			"/>
			<polygon id="_x30_.1.17.0.49_2_" class="st3" points="22.4,24.2 21.3,23.2 18.7,23.2 17.6,24.2 			"/>
			<polygon id="_x30_.1.17.0.50_2_" class="st4" points="17.6,24.2 18.7,23.2 18.7,20.4 17.6,19.5 			"/>
		</g>
		<g>
			<rect id="_x30_.1.17.0.46_1_" x="11" y="20.9" width="3.9" height="1.9"/>
			<polygon id="_x30_.1.17.0.47_1_" class="st1" points="10.4,19.5 11.5,20.4 14.1,20.4 15.2,19.5 			"/>
			<polygon id="_x30_.1.17.0.48_1_" class="st2" points="15.2,19.5 14.1,20.4 14.1,23.2 15.2,24.2 			"/>
			<polygon id="_x30_.1.17.0.49_1_" class="st3" points="15.2,24.2 14.1,23.2 11.5,23.2 10.4,24.2 			"/>
			<polygon id="_x30_.1.17.0.50_1_" class="st4" points="10.4,24.2 11.5,23.2 11.5,20.4 10.4,19.5 			"/>
		</g>
	</g>
</g>
</svg>
