<?xml version="1.0" encoding="utf-8"?>
<!-- Generator: Adobe Illustrator 21.1.0, SVG Export Plug-In . SVG Version: 6.00 Build 0)  -->
<svg version="1.1" id="Layer_1" xmlns="http://www.w3.org/2000/svg" xmlns:xlink="http://www.w3.org/1999/xlink" x="0px" y="0px"
	 viewBox="0 0 154 49.5" style="enable-background:new 0 0 154 49.5;" xml:space="preserve">
<style type="text/css">
	.st0{fill:none;}
	.st1{font-family:'ArialMT';}
	.st2{font-size:3px;}
	.st3{font-size:2px;}
	.st4{fill:#404040;}
	.st5{fill:#2A2A29;}
	.st6{fill:#474747;}
	.st7{fill:#595959;}
	.st8{fill:#373737;}
</style>
<rect x="2" y="30.3" class="st0" width="42" height="19.2"/>
<text transform="matrix(1 0 0 1 2 32.469)"><tspan x="0" y="0" class="st1 st2">Copyright (C) </tspan><tspan x="0" y="3.6" class="st1 st2">2017 Intel Corporation.</tspan><tspan x="0" y="7.6" class="st1 st3">This document is licensed under the Creative </tspan><tspan x="0" y="10" class="st1 st3">Commons Attribution 3.0 Unported License </tspan><tspan x="0" y="12.4" class="st1 st3">(“CC-BY-3.0”):https://creativecommons.org/li</tspan><tspan x="39.5" y="12.4" class="st1 st3">-</tspan><tspan x="0" y="14.8" class="st1 st3">censes/by/3.0/legalcode</tspan></text>
<g id="_x30_.1.17_1_" transform="matrix(1, 0, 0, 1, 67.6403, 3.60123)">
	<g id="_x31_x10_1_">
		<rect id="_x30_.1.17.0.0_1_" x="-62.7" y="2.5" class="st4" width="144.1" height="14.3"/>
		<g>
			<rect id="_x30_.1.17.0.1_2_" x="-60.6" y="5.2" width="3.9" height="1.9"/>
			<polygon id="_x30_.1.17.0.2_2_" class="st5" points="-61.2,3.9 -60.1,4.8 -57.5,4.8 -56.4,3.9 			"/>
			<polygon id="_x30_.1.17.0.3_2_" class="st6" points="-56.4,3.9 -57.5,4.8 -57.5,7.6 -56.4,8.6 			"/>
			<polygon id="_x30_.1.17.0.4_2_" class="st7" points="-56.4,8.6 -57.5,7.6 -60.1,7.6 -61.2,8.6 			"/>
			<polygon id="_x30_.1.17.0.5_2_" class="st8" points="-61.2,8.6 -60.1,7.6 -60.1,4.8 -61.2,3.9 			"/>
		</g>
		<g>
			<rect id="_x30_.1.17.0.6_2_" x="-53.5" y="5.2" width="3.9" height="1.9"/>
			<polygon id="_x30_.1.17.0.7_2_" class="st5" points="-54.1,3.9 -53,4.8 -50.4,4.8 -49.3,3.9 			"/>
			<polygon id="_x30_.1.17.0.8_2_" class="st6" points="-49.3,3.9 -50.4,4.8 -50.4,7.6 -49.3,8.6 			"/>
			<polygon id="_x30_.1.17.0.9_2_" class="st7" points="-49.3,8.6 -50.4,7.6 -53,7.6 -54.1,8.6 			"/>
			<polygon id="_x30_.1.17.0.10_2_" class="st8" points="-54.1,8.6 -53,7.6 -53,4.8 -54.1,3.9 			"/>
		</g>
		<g>
			<rect id="_x30_.1.17.0.11_2_" x="-46.3" y="5.2" width="3.9" height="1.9"/>
			<polygon id="_x30_.1.17.0.12_2_" class="st5" points="-46.9,3.9 -45.8,4.8 -43.1,4.8 -42,3.9 			"/>
			<polygon id="_x30_.1.17.0.13_2_" class="st6" points="-42,3.9 -43.1,4.8 -43.1,7.6 -42,8.6 			"/>
			<polygon id="_x30_.1.17.0.14_2_" class="st7" points="-42,8.6 -43.1,7.6 -45.8,7.6 -46.9,8.6 			"/>
			<polygon id="_x30_.1.17.0.15_2_" class="st8" points="-46.9,8.6 -45.8,7.6 -45.8,4.8 -46.9,3.9 			"/>
		</g>
		<g>
			<rect id="_x30_.1.17.0.16_2_" x="-39.1" y="5.2" width="3.9" height="1.9"/>
			<polygon id="_x30_.1.17.0.17_2_" class="st5" points="-39.7,3.9 -38.6,4.8 -36,4.8 -34.9,3.9 			"/>
			<polygon id="_x30_.1.17.0.18_2_" class="st6" points="-34.9,3.9 -36,4.8 -36,7.6 -34.9,8.6 			"/>
			<polygon id="_x30_.1.17.0.19_2_" class="st7" points="-34.9,8.6 -36,7.6 -38.6,7.6 -39.7,8.6 			"/>
			<polygon id="_x30_.1.17.0.20_2_" class="st8" points="-39.7,8.6 -38.6,7.6 -38.6,4.8 -39.7,3.9 			"/>
		</g>
		<g>
			<rect id="_x30_.1.17.0.21_2_" x="-32" y="5.2" width="3.9" height="1.9"/>
			<polygon id="_x30_.1.17.0.22_2_" class="st5" points="-32.5,3.9 -31.4,4.8 -28.8,4.8 -27.7,3.9 			"/>
			<polygon id="_x30_.1.17.0.23_2_" class="st6" points="-27.7,3.9 -28.8,4.8 -28.8,7.6 -27.7,8.6 			"/>
			<polygon id="_x30_.1.17.0.24_2_" class="st7" points="-27.7,8.6 -28.8,7.6 -31.4,7.6 -32.5,8.6 			"/>
			<polygon id="_x30_.1.17.0.25_2_" class="st8" points="-32.5,8.6 -31.4,7.6 -31.4,4.8 -32.5,3.9 			"/>
		</g>
		<g>
			<rect id="_x30_.1.17.0.26_2_" x="-24.8" y="5.2" width="3.9" height="1.9"/>
			<polygon id="_x30_.1.17.0.27_2_" class="st5" points="-25.3,3.9 -24.3,4.8 -21.6,4.8 -20.5,3.9 			"/>
			<polygon id="_x30_.1.17.0.28_2_" class="st6" points="-20.5,3.9 -21.6,4.8 -21.6,7.6 -20.5,8.6 			"/>
			<polygon id="_x30_.1.17.0.29_2_" class="st7" points="-20.5,8.6 -21.6,7.6 -24.3,7.6 -25.3,8.6 			"/>
			<polygon id="_x30_.1.17.0.30_2_" class="st8" points="-25.3,8.6 -24.3,7.6 -24.3,4.8 -25.3,3.9 			"/>
		</g>
		<g>
			<rect id="_x30_.1.17.0.31_2_" x="-17.6" y="5.2" width="3.9" height="1.9"/>
			<polygon id="_x30_.1.17.0.32_2_" class="st5" points="-18.2,3.9 -17.1,4.8 -14.5,4.8 -13.4,3.9 			"/>
			<polygon id="_x30_.1.17.0.33_2_" class="st6" points="-13.4,3.9 -14.5,4.8 -14.5,7.6 -13.4,8.6 			"/>
			<polygon id="_x30_.1.17.0.34_2_" class="st7" points="-13.4,8.6 -14.5,7.6 -17.1,7.6 -18.2,8.6 			"/>
			<polygon id="_x30_.1.17.0.35_2_" class="st8" points="-18.2,8.6 -17.1,7.6 -17.1,4.8 -18.2,3.9 			"/>
		</g>
		<g>
			<rect id="_x30_.1.17.0.36_2_" x="-10.5" y="5.2" width="3.9" height="1.9"/>
			<polygon id="_x30_.1.17.0.37_2_" class="st5" points="-11,3.9 -9.9,4.8 -7.3,4.8 -6.2,3.9 			"/>
			<polygon id="_x30_.1.17.0.38_2_" class="st6" points="-6.2,3.9 -7.3,4.8 -7.3,7.6 -6.2,8.6 			"/>
			<polygon id="_x30_.1.17.0.39_2_" class="st7" points="-6.2,8.6 -7.3,7.6 -9.9,7.6 -11,8.6 			"/>
			<polygon id="_x30_.1.17.0.40_2_" class="st8" points="-11,8.6 -9.9,7.6 -9.9,4.8 -11,3.9 			"/>
		</g>
		<g>
			<rect id="_x30_.1.17.0.41_2_" x="-3.3" y="5.2" width="3.9" height="1.9"/>
			<polygon id="_x30_.1.17.0.42_2_" class="st5" points="-3.8,3.9 -2.8,4.8 -0.1,4.8 0.9,3.9 			"/>
			<polygon id="_x30_.1.17.0.43_2_" class="st6" points="0.9,3.9 -0.1,4.8 -0.1,7.6 0.9,8.6 			"/>
			<polygon id="_x30_.1.17.0.44_2_" class="st7" points="0.9,8.6 -0.1,7.6 -2.8,7.6 -3.8,8.6 			"/>
			<polygon id="_x30_.1.17.0.45_2_" class="st8" points="-3.8,8.6 -2.8,7.6 -2.8,4.8 -3.8,3.9 			"/>
		</g>
		<g>
			<rect id="_x30_.1.17.0.46_22_" x="3.8" y="5.2" width="3.9" height="1.9"/>
			<polygon id="_x30_.1.17.0.47_22_" class="st5" points="3.3,3.9 4.4,4.8 7,4.8 8.1,3.9 			"/>
			<polygon id="_x30_.1.17.0.48_22_" class="st6" points="8.1,3.9 7,4.8 7,7.6 8.1,8.6 			"/>
			<polygon id="_x30_.1.17.0.49_22_" class="st7" points="8.1,8.6 7,7.6 4.4,7.6 3.3,8.6 			"/>
			<polygon id="_x30_.1.17.0.50_22_" class="st8" points="3.3,8.6 4.4,7.6 4.4,4.8 3.3,3.9 			"/>
		</g>
		<g>
			<rect id="_x30_.1.17.0.46_21_" x="75.5" y="5.2" width="3.9" height="1.9"/>
			<polygon id="_x30_.1.17.0.47_21_" class="st5" points="74.9,3.9 76,4.8 78.7,4.8 79.7,3.9 			"/>
			<polygon id="_x30_.1.17.0.48_21_" class="st6" points="79.7,3.9 78.7,4.8 78.7,7.6 79.7,8.6 			"/>
			<polygon id="_x30_.1.17.0.49_21_" class="st7" points="79.7,8.6 78.7,7.6 76,7.6 74.9,8.6 			"/>
			<polygon id="_x30_.1.17.0.50_21_" class="st8" points="74.9,8.6 76,7.6 76,4.8 74.9,3.9 			"/>
		</g>
		<g>
			<rect id="_x30_.1.17.0.46_20_" x="68.3" y="5.2" width="3.9" height="1.9"/>
			<polygon id="_x30_.1.17.0.47_20_" class="st5" points="67.8,3.9 68.9,4.8 71.5,4.8 72.6,3.9 			"/>
			<polygon id="_x30_.1.17.0.48_20_" class="st6" points="72.6,3.9 71.5,4.8 71.5,7.6 72.6,8.6 			"/>
			<polygon id="_x30_.1.17.0.49_20_" class="st7" points="72.6,8.6 71.5,7.6 68.9,7.6 67.8,8.6 			"/>
			<polygon id="_x30_.1.17.0.50_20_" class="st8" points="67.8,8.6 68.9,7.6 68.9,4.8 67.8,3.9 			"/>
		</g>
		<g>
			<rect id="_x30_.1.17.0.46_19_" x="61.2" y="5.2" width="3.9" height="1.9"/>
			<polygon id="_x30_.1.17.0.47_19_" class="st5" points="60.6,3.9 61.7,4.8 64.4,4.8 65.4,3.9 			"/>
			<polygon id="_x30_.1.17.0.48_19_" class="st6" points="65.4,3.9 64.4,4.8 64.4,7.6 65.4,8.6 			"/>
			<polygon id="_x30_.1.17.0.49_19_" class="st7" points="65.4,8.6 64.4,7.6 61.7,7.6 60.6,8.6 			"/>
			<polygon id="_x30_.1.17.0.50_19_" class="st8" points="60.6,8.6 61.7,7.6 61.7,4.8 60.6,3.9 			"/>
		</g>
		<g>
			<rect id="_x30_.1.17.0.46_18_" x="54" y="5.2" width="3.9" height="1.9"/>
			<polygon id="_x30_.1.17.0.47_18_" class="st5" points="53.4,3.9 54.5,4.8 57.2,4.8 58.3,3.9 			"/>
			<polygon id="_x30_.1.17.0.48_18_" class="st6" points="58.3,3.9 57.2,4.8 57.2,7.6 58.3,8.6 			"/>
			<polygon id="_x30_.1.17.0.49_18_" class="st7" points="58.3,8.6 57.2,7.6 54.5,7.6 53.4,8.6 			"/>
			<polygon id="_x30_.1.17.0.50_18_" class="st8" points="53.4,8.6 54.5,7.6 54.5,4.8 53.4,3.9 			"/>
		</g>
		<g>
			<rect id="_x30_.1.17.0.46_17_" x="46.8" y="5.2" width="3.9" height="1.9"/>
			<polygon id="_x30_.1.17.0.47_17_" class="st5" points="46.3,3.9 47.4,4.8 50,4.8 51.1,3.9 			"/>
			<polygon id="_x30_.1.17.0.48_17_" class="st6" points="51.1,3.9 50,4.8 50,7.6 51.1,8.6 			"/>
			<polygon id="_x30_.1.17.0.49_17_" class="st7" points="51.1,8.6 50,7.6 47.4,7.6 46.3,8.6 			"/>
			<polygon id="_x30_.1.17.0.50_17_" class="st8" points="46.3,8.6 47.4,7.6 47.4,4.8 46.3,3.9 			"/>
		</g>
		<g>
			<rect id="_x30_.1.17.0.46_16_" x="39.6" y="5.2" width="3.9" height="1.9"/>
			<polygon id="_x30_.1.17.0.47_16_" class="st5" points="39.1,3.9 40.2,4.8 42.8,4.8 43.9,3.9 			"/>
			<polygon id="_x30_.1.17.0.48_16_" class="st6" points="43.9,3.9 42.8,4.8 42.8,7.6 43.9,8.6 			"/>
			<polygon id="_x30_.1.17.0.49_16_" class="st7" points="43.9,8.6 42.8,7.6 40.2,7.6 39.1,8.6 			"/>
			<polygon id="_x30_.1.17.0.50_16_" class="st8" points="39.1,8.6 40.2,7.6 40.2,4.8 39.1,3.9 			"/>
		</g>
		<g>
			<rect id="_x30_.1.17.0.46_15_" x="32.5" y="5.2" width="3.9" height="1.9"/>
			<polygon id="_x30_.1.17.0.47_15_" class="st5" points="31.9,3.9 33,4.8 35.7,4.8 36.7,3.9 			"/>
			<polygon id="_x30_.1.17.0.48_15_" class="st6" points="36.7,3.9 35.7,4.8 35.7,7.6 36.7,8.6 			"/>
			<polygon id="_x30_.1.17.0.49_15_" class="st7" points="36.7,8.6 35.7,7.6 33,7.6 31.9,8.6 			"/>
			<polygon id="_x30_.1.17.0.50_15_" class="st8" points="31.9,8.6 33,7.6 33,4.8 31.9,3.9 			"/>
		</g>
		<g>
			<rect id="_x30_.1.17.0.46_14_" x="25.3" y="5.2" width="3.9" height="1.9"/>
			<polygon id="_x30_.1.17.0.47_14_" class="st5" points="24.8,3.9 25.8,4.8 28.5,4.8 29.6,3.9 			"/>
			<polygon id="_x30_.1.17.0.48_14_" class="st6" points="29.6,3.9 28.5,4.8 28.5,7.6 29.6,8.6 			"/>
			<polygon id="_x30_.1.17.0.49_14_" class="st7" points="29.6,8.6 28.5,7.6 25.8,7.6 24.8,8.6 			"/>
			<polygon id="_x30_.1.17.0.50_14_" class="st8" points="24.8,8.6 25.8,7.6 25.8,4.8 24.8,3.9 			"/>
		</g>
		<g>
			<rect id="_x30_.1.17.0.46_13_" x="18.1" y="5.2" width="3.9" height="1.9"/>
			<polygon id="_x30_.1.17.0.47_13_" class="st5" points="17.6,3.9 18.7,4.8 21.3,4.8 22.4,3.9 			"/>
			<polygon id="_x30_.1.17.0.48_13_" class="st6" points="22.4,3.9 21.3,4.8 21.3,7.6 22.4,8.6 			"/>
			<polygon id="_x30_.1.17.0.49_13_" class="st7" points="22.4,8.6 21.3,7.6 18.7,7.6 17.6,8.6 			"/>
			<polygon id="_x30_.1.17.0.50_13_" class="st8" points="17.6,8.6 18.7,7.6 18.7,4.8 17.6,3.9 			"/>
		</g>
		<g>
			<rect id="_x30_.1.17.0.46_12_" x="11" y="5.2" width="3.9" height="1.9"/>
			<polygon id="_x30_.1.17.0.47_12_" class="st5" points="10.4,3.9 11.5,4.8 14.1,4.8 15.2,3.9 			"/>
			<polygon id="_x30_.1.17.0.48_12_" class="st6" points="15.2,3.9 14.1,4.8 14.1,7.6 15.2,8.6 			"/>
			<polygon id="_x30_.1.17.0.49_12_" class="st7" points="15.2,8.6 14.1,7.6 11.5,7.6 10.4,8.6 			"/>
			<polygon id="_x30_.1.17.0.50_12_" class="st8" points="10.4,8.6 11.5,7.6 11.5,4.8 10.4,3.9 			"/>
		</g>
		<rect x="73.4" y="5.9" class="st5" width="0.8" height="6.8"/>
		<rect x="66.2" y="5.9" class="st5" width="0.8" height="6.8"/>
		<rect x="59.1" y="5.9" class="st5" width="0.8" height="6.8"/>
		<rect x="51.9" y="5.9" class="st5" width="0.8" height="6.8"/>
		<rect x="44.7" y="5.9" class="st5" width="0.8" height="6.8"/>
		<rect x="37.5" y="5.9" class="st5" width="0.8" height="6.8"/>
		<rect x="30.4" y="5.9" class="st5" width="0.8" height="6.8"/>
		<rect x="23.2" y="5.9" class="st5" width="0.8" height="6.8"/>
		<rect x="16" y="5.9" class="st5" width="0.8" height="6.8"/>
		<rect x="8.9" y="5.9" class="st5" width="0.8" height="6.8"/>
		<rect x="1.7" y="5.9" class="st5" width="0.8" height="6.8"/>
		<rect x="-5.4" y="5.9" class="st5" width="0.8" height="6.8"/>
		<rect x="-12.6" y="5.9" class="st5" width="0.8" height="6.8"/>
		<rect x="-19.7" y="5.9" class="st5" width="0.8" height="6.8"/>
		<rect x="-26.9" y="5.9" class="st5" width="0.8" height="6.8"/>
		<rect x="-34.1" y="5.9" class="st5" width="0.8" height="6.8"/>
		<rect x="-41.2" y="5.9" class="st5" width="0.8" height="6.8"/>
		<rect x="-48.4" y="5.9" class="st5" width="0.8" height="6.8"/>
		<rect x="-55.6" y="5.9" class="st5" width="0.8" height="6.8"/>
		<g>
			<rect id="_x30_.1.17.0.1_1_" x="-60.6" y="12.1" width="3.9" height="1.9"/>
			<polygon id="_x30_.1.17.0.2_1_" class="st5" points="-61.2,10.7 -60.1,11.6 -57.5,11.6 -56.4,10.7 			"/>
			<polygon id="_x30_.1.17.0.3_1_" class="st6" points="-56.4,10.7 -57.5,11.6 -57.5,14.4 -56.4,15.4 			"/>
			<polygon id="_x30_.1.17.0.4_1_" class="st7" points="-56.4,15.4 -57.5,14.4 -60.1,14.4 -61.2,15.4 			"/>
			<polygon id="_x30_.1.17.0.5_1_" class="st8" points="-61.2,15.4 -60.1,14.4 -60.1,11.6 -61.2,10.7 			"/>
		</g>
		<g>
			<rect id="_x30_.1.17.0.6_1_" x="-53.5" y="12.1" width="3.9" height="1.9"/>
			<polygon id="_x30_.1.17.0.7_1_" class="st5" points="-54.1,10.7 -53,11.6 -50.4,11.6 -49.3,10.7 			"/>
			<polygon id="_x30_.1.17.0.8_1_" class="st6" points="-49.3,10.7 -50.4,11.6 -50.4,14.4 -49.3,15.4 			"/>
			<polygon id="_x30_.1.17.0.9_1_" class="st7" points="-49.3,15.4 -50.4,14.4 -53,14.4 -54.1,15.4 			"/>
			<polygon id="_x30_.1.17.0.10_1_" class="st8" points="-54.1,15.4 -53,14.4 -53,11.6 -54.1,10.7 			"/>
		</g>
		<g>
			<rect id="_x30_.1.17.0.11_1_" x="-46.3" y="12.1" width="3.9" height="1.9"/>
			<polygon id="_x30_.1.17.0.12_1_" class="st5" points="-46.9,10.7 -45.8,11.6 -43.1,11.6 -42,10.7 			"/>
			<polygon id="_x30_.1.17.0.13_1_" class="st6" points="-42,10.7 -43.1,11.6 -43.1,14.4 -42,15.4 			"/>
			<polygon id="_x30_.1.17.0.14_1_" class="st7" points="-42,15.4 -43.1,14.4 -45.8,14.4 -46.9,15.4 			"/>
			<polygon id="_x30_.1.17.0.15_1_" class="st8" points="-46.9,15.4 -45.8,14.4 -45.8,11.6 -46.9,10.7 			"/>
		</g>
		<g>
			<rect id="_x30_.1.17.0.16_1_" x="-39.1" y="12.1" width="3.9" height="1.9"/>
			<polygon id="_x30_.1.17.0.17_1_" class="st5" points="-39.7,10.7 -38.6,11.6 -36,11.6 -34.9,10.7 			"/>
			<polygon id="_x30_.1.17.0.18_1_" class="st6" points="-34.9,10.7 -36,11.6 -36,14.4 -34.9,15.4 			"/>
			<polygon id="_x30_.1.17.0.19_1_" class="st7" points="-34.9,15.4 -36,14.4 -38.6,14.4 -39.7,15.4 			"/>
			<polygon id="_x30_.1.17.0.20_1_" class="st8" points="-39.7,15.4 -38.6,14.4 -38.6,11.6 -39.7,10.7 			"/>
		</g>
		<g>
			<rect id="_x30_.1.17.0.21_1_" x="-32" y="12.1" width="3.9" height="1.9"/>
			<polygon id="_x30_.1.17.0.22_1_" class="st5" points="-32.5,10.7 -31.4,11.6 -28.8,11.6 -27.7,10.7 			"/>
			<polygon id="_x30_.1.17.0.23_1_" class="st6" points="-27.7,10.7 -28.8,11.6 -28.8,14.4 -27.7,15.4 			"/>
			<polygon id="_x30_.1.17.0.24_1_" class="st7" points="-27.7,15.4 -28.8,14.4 -31.4,14.4 -32.5,15.4 			"/>
			<polygon id="_x30_.1.17.0.25_1_" class="st8" points="-32.5,15.4 -31.4,14.4 -31.4,11.6 -32.5,10.7 			"/>
		</g>
		<g>
			<rect id="_x30_.1.17.0.26_1_" x="-24.8" y="12.1" width="3.9" height="1.9"/>
			<polygon id="_x30_.1.17.0.27_1_" class="st5" points="-25.3,10.7 -24.3,11.6 -21.6,11.6 -20.5,10.7 			"/>
			<polygon id="_x30_.1.17.0.28_1_" class="st6" points="-20.5,10.7 -21.6,11.6 -21.6,14.4 -20.5,15.4 			"/>
			<polygon id="_x30_.1.17.0.29_1_" class="st7" points="-20.5,15.4 -21.6,14.4 -24.3,14.4 -25.3,15.4 			"/>
			<polygon id="_x30_.1.17.0.30_1_" class="st8" points="-25.3,15.4 -24.3,14.4 -24.3,11.6 -25.3,10.7 			"/>
		</g>
		<g>
			<rect id="_x30_.1.17.0.31_1_" x="-17.6" y="12.1" width="3.9" height="1.9"/>
			<polygon id="_x30_.1.17.0.32_1_" class="st5" points="-18.2,10.7 -17.1,11.6 -14.5,11.6 -13.4,10.7 			"/>
			<polygon id="_x30_.1.17.0.33_1_" class="st6" points="-13.4,10.7 -14.5,11.6 -14.5,14.4 -13.4,15.4 			"/>
			<polygon id="_x30_.1.17.0.34_1_" class="st7" points="-13.4,15.4 -14.5,14.4 -17.1,14.4 -18.2,15.4 			"/>
			<polygon id="_x30_.1.17.0.35_1_" class="st8" points="-18.2,15.4 -17.1,14.4 -17.1,11.6 -18.2,10.7 			"/>
		</g>
		<g>
			<rect id="_x30_.1.17.0.36_1_" x="-10.5" y="12.1" width="3.9" height="1.9"/>
			<polygon id="_x30_.1.17.0.37_1_" class="st5" points="-11,10.7 -9.9,11.6 -7.3,11.6 -6.2,10.7 			"/>
			<polygon id="_x30_.1.17.0.38_1_" class="st6" points="-6.2,10.7 -7.3,11.6 -7.3,14.4 -6.2,15.4 			"/>
			<polygon id="_x30_.1.17.0.39_1_" class="st7" points="-6.2,15.4 -7.3,14.4 -9.9,14.4 -11,15.4 			"/>
			<polygon id="_x30_.1.17.0.40_1_" class="st8" points="-11,15.4 -9.9,14.4 -9.9,11.6 -11,10.7 			"/>
		</g>
		<g>
			<rect id="_x30_.1.17.0.41_1_" x="-3.3" y="12.1" width="3.9" height="1.9"/>
			<polygon id="_x30_.1.17.0.42_1_" class="st5" points="-3.8,10.7 -2.8,11.6 -0.1,11.6 0.9,10.7 			"/>
			<polygon id="_x30_.1.17.0.43_1_" class="st6" points="0.9,10.7 -0.1,11.6 -0.1,14.4 0.9,15.4 			"/>
			<polygon id="_x30_.1.17.0.44_1_" class="st7" points="0.9,15.4 -0.1,14.4 -2.8,14.4 -3.8,15.4 			"/>
			<polygon id="_x30_.1.17.0.45_1_" class="st8" points="-3.8,15.4 -2.8,14.4 -2.8,11.6 -3.8,10.7 			"/>
		</g>
		<g>
			<rect id="_x30_.1.17.0.46_11_" x="3.8" y="12.1" width="3.9" height="1.9"/>
			<polygon id="_x30_.1.17.0.47_11_" class="st5" points="3.3,10.7 4.4,11.6 7,11.6 8.1,10.7 			"/>
			<polygon id="_x30_.1.17.0.48_11_" class="st6" points="8.1,10.7 7,11.6 7,14.4 8.1,15.4 			"/>
			<polygon id="_x30_.1.17.0.49_11_" class="st7" points="8.1,15.4 7,14.4 4.4,14.4 3.3,15.4 			"/>
			<polygon id="_x30_.1.17.0.50_11_" class="st8" points="3.3,15.4 4.4,14.4 4.4,11.6 3.3,10.7 			"/>
		</g>
		<g>
			<rect id="_x30_.1.17.0.46_10_" x="75.5" y="12.4" width="3.9" height="1.9"/>
			<polygon id="_x30_.1.17.0.47_10_" class="st5" points="74.9,11 76,12 78.7,12 79.7,11 			"/>
			<polygon id="_x30_.1.17.0.48_10_" class="st6" points="79.7,11 78.7,12 78.7,14.7 79.7,15.7 			"/>
			<polygon id="_x30_.1.17.0.49_10_" class="st7" points="79.7,15.7 78.7,14.7 76,14.7 74.9,15.7 			"/>
			<polygon id="_x30_.1.17.0.50_10_" class="st8" points="74.9,15.7 76,14.7 76,12 74.9,11 			"/>
		</g>
		<g>
			<rect id="_x30_.1.17.0.46_9_" x="68.3" y="12.1" width="3.9" height="1.9"/>
			<polygon id="_x30_.1.17.0.47_9_" class="st5" points="67.8,10.7 68.9,11.6 71.5,11.6 72.6,10.7 			"/>
			<polygon id="_x30_.1.17.0.48_9_" class="st6" points="72.6,10.7 71.5,11.6 71.5,14.4 72.6,15.4 			"/>
			<polygon id="_x30_.1.17.0.49_9_" class="st7" points="72.6,15.4 71.5,14.4 68.9,14.4 67.8,15.4 			"/>
			<polygon id="_x30_.1.17.0.50_9_" class="st8" points="67.8,15.4 68.9,14.4 68.9,11.6 67.8,10.7 			"/>
		</g>
		<g>
			<rect id="_x30_.1.17.0.46_8_" x="61.2" y="12.1" width="3.9" height="1.9"/>
			<polygon id="_x30_.1.17.0.47_8_" class="st5" points="60.6,10.7 61.7,11.6 64.4,11.6 65.4,10.7 			"/>
			<polygon id="_x30_.1.17.0.48_8_" class="st6" points="65.4,10.7 64.4,11.6 64.4,14.4 65.4,15.4 			"/>
			<polygon id="_x30_.1.17.0.49_8_" class="st7" points="65.4,15.4 64.4,14.4 61.7,14.4 60.6,15.4 			"/>
			<polygon id="_x30_.1.17.0.50_8_" class="st8" points="60.6,15.4 61.7,14.4 61.7,11.6 60.6,10.7 			"/>
		</g>
		<g>
			<rect id="_x30_.1.17.0.46_7_" x="54" y="12.1" width="3.9" height="1.9"/>
			<polygon id="_x30_.1.17.0.47_7_" class="st5" points="53.4,10.7 54.5,11.6 57.2,11.6 58.3,10.7 			"/>
			<polygon id="_x30_.1.17.0.48_7_" class="st6" points="58.3,10.7 57.2,11.6 57.2,14.4 58.3,15.4 			"/>
			<polygon id="_x30_.1.17.0.49_7_" class="st7" points="58.3,15.4 57.2,14.4 54.5,14.4 53.4,15.4 			"/>
			<polygon id="_x30_.1.17.0.50_7_" class="st8" points="53.4,15.4 54.5,14.4 54.5,11.6 53.4,10.7 			"/>
		</g>
		<g>
			<rect id="_x30_.1.17.0.46_6_" x="46.8" y="12.1" width="3.9" height="1.9"/>
			<polygon id="_x30_.1.17.0.47_6_" class="st5" points="46.3,10.7 47.4,11.6 50,11.6 51.1,10.7 			"/>
			<polygon id="_x30_.1.17.0.48_6_" class="st6" points="51.1,10.7 50,11.6 50,14.4 51.1,15.4 			"/>
			<polygon id="_x30_.1.17.0.49_6_" class="st7" points="51.1,15.4 50,14.4 47.4,14.4 46.3,15.4 			"/>
			<polygon id="_x30_.1.17.0.50_6_" class="st8" points="46.3,15.4 47.4,14.4 47.4,11.6 46.3,10.7 			"/>
		</g>
		<g>
			<rect id="_x30_.1.17.0.46_5_" x="39.6" y="12.1" width="3.9" height="1.9"/>
			<polygon id="_x30_.1.17.0.47_5_" class="st5" points="39.1,10.7 40.2,11.6 42.8,11.6 43.9,10.7 			"/>
			<polygon id="_x30_.1.17.0.48_5_" class="st6" points="43.9,10.7 42.8,11.6 42.8,14.4 43.9,15.4 			"/>
			<polygon id="_x30_.1.17.0.49_5_" class="st7" points="43.9,15.4 42.8,14.4 40.2,14.4 39.1,15.4 			"/>
			<polygon id="_x30_.1.17.0.50_5_" class="st8" points="39.1,15.4 40.2,14.4 40.2,11.6 39.1,10.7 			"/>
		</g>
		<g>
			<rect id="_x30_.1.17.0.46_4_" x="32.5" y="12.1" width="3.9" height="1.9"/>
			<polygon id="_x30_.1.17.0.47_4_" class="st5" points="31.9,10.7 33,11.6 35.7,11.6 36.7,10.7 			"/>
			<polygon id="_x30_.1.17.0.48_4_" class="st6" points="36.7,10.7 35.7,11.6 35.7,14.4 36.7,15.4 			"/>
			<polygon id="_x30_.1.17.0.49_4_" class="st7" points="36.7,15.4 35.7,14.4 33,14.4 31.9,15.4 			"/>
			<polygon id="_x30_.1.17.0.50_4_" class="st8" points="31.9,15.4 33,14.4 33,11.6 31.9,10.7 			"/>
		</g>
		<g>
			<rect id="_x30_.1.17.0.46_3_" x="25.3" y="12.1" width="3.9" height="1.9"/>
			<polygon id="_x30_.1.17.0.47_3_" class="st5" points="24.8,10.7 25.8,11.6 28.5,11.6 29.6,10.7 			"/>
			<polygon id="_x30_.1.17.0.48_3_" class="st6" points="29.6,10.7 28.5,11.6 28.5,14.4 29.6,15.4 			"/>
			<polygon id="_x30_.1.17.0.49_3_" class="st7" points="29.6,15.4 28.5,14.4 25.8,14.4 24.8,15.4 			"/>
			<polygon id="_x30_.1.17.0.50_3_" class="st8" points="24.8,15.4 25.8,14.4 25.8,11.6 24.8,10.7 			"/>
		</g>
		<g>
			<rect id="_x30_.1.17.0.46_2_" x="18.1" y="12.1" width="3.9" height="1.9"/>
			<polygon id="_x30_.1.17.0.47_2_" class="st5" points="17.6,10.7 18.7,11.6 21.3,11.6 22.4,10.7 			"/>
			<polygon id="_x30_.1.17.0.48_2_" class="st6" points="22.4,10.7 21.3,11.6 21.3,14.4 22.4,15.4 			"/>
			<polygon id="_x30_.1.17.0.49_2_" class="st7" points="22.4,15.4 21.3,14.4 18.7,14.4 17.6,15.4 			"/>
			<polygon id="_x30_.1.17.0.50_2_" class="st8" points="17.6,15.4 18.7,14.4 18.7,11.6 17.6,10.7 			"/>
		</g>
		<g>
			<rect id="_x30_.1.17.0.46_1_" x="11" y="12.1" width="3.9" height="1.9"/>
			<polygon id="_x30_.1.17.0.47_1_" class="st5" points="10.4,10.7 11.5,11.6 14.1,11.6 15.2,10.7 			"/>
			<polygon id="_x30_.1.17.0.48_1_" class="st6" points="15.2,10.7 14.1,11.6 14.1,14.4 15.2,15.4 			"/>
			<polygon id="_x30_.1.17.0.49_1_" class="st7" points="15.2,15.4 14.1,14.4 11.5,14.4 10.4,15.4 			"/>
			<polygon id="_x30_.1.17.0.50_1_" class="st8" points="10.4,15.4 11.5,14.4 11.5,11.6 10.4,10.7 			"/>
		</g>
	</g>
</g>
</svg>
