<?xml version="1.0" encoding="utf-8"?>
<!-- Generator: Adobe Illustrator 21.1.0, SVG Export Plug-In . SVG Version: 6.00 Build 0)  -->
<svg version="1.1" id="Layer_1" xmlns="http://www.w3.org/2000/svg" xmlns:xlink="http://www.w3.org/1999/xlink" x="0px" y="0px"
	 viewBox="0 0 44 57" style="enable-background:new 0 0 44 57;" xml:space="preserve">
<style type="text/css">
	.st0{fill:none;}
	.st1{font-family:'ArialMT';}
	.st2{font-size:3px;}
	.st3{font-size:2px;}
	.st4{fill:#FDBE10;}
	.st5{fill:#FFFFFF;}
	.st6{font-family:'OCRA';}
	.st7{font-size:6.7915px;}
</style>
<rect x="2" y="37.8" class="st0" width="42" height="19.2"/>
<text transform="matrix(1 0 0 1 2 39.9814)"><tspan x="0" y="0" class="st1 st2">Copyright (C) </tspan><tspan x="0" y="3.6" class="st1 st2">2017 Intel Corporation.</tspan><tspan x="0" y="7.6" class="st1 st3">This document is licensed under the Creative </tspan><tspan x="0" y="10" class="st1 st3">Commons Attribution 3.0 Unported License </tspan><tspan x="0" y="12.4" class="st1 st3">(“CC-BY-3.0”):https://creativecommons.org/ </tspan><tspan x="0" y="14.8" class="st1 st3">licenses/by/3.0/legalcode</tspan></text>
<g>
	<g>
		<rect x="20.7" y="7.6" class="st4" width="8.1" height="8.1"/>
		<circle class="st5" cx="24.8" cy="11.7" r="3.1"/>
	</g>
	<g>
		<rect x="20.7" y="21.2" class="st4" width="8.1" height="8.1"/>
		<circle class="st5" cx="24.8" cy="25.3" r="3.1"/>
	</g>
	<g>
		<rect x="7.1" y="21.2" class="st4" width="8.1" height="8.1"/>
		<circle class="st5" cx="11.2" cy="25.3" r="3.1"/>
	</g>
	<g>
		<rect x="7.1" y="7.6" class="st4" width="8.1" height="8.1"/>
		<circle class="st5" cx="11.2" cy="11.7" r="3.1"/>
	</g>
	<text id="_x30_.1.0.2.21.0.0.0_1_" transform="matrix(1 0 0 1 31.9886 14.6362)" class="st4 st6 st7">+</text>
	<g>
		<path class="st4" d="M35.7,24.9c0.1,0,0.2,0,0.3,0.1c0.1,0.1,0.1,0.2,0.1,0.3c0,0.1,0,0.3-0.1,0.3c-0.1,0.1-0.2,0.1-0.3,0.1h-2.5
			c-0.1,0-0.2,0-0.3-0.1c-0.1-0.1-0.1-0.2-0.1-0.3c0-0.1,0-0.3,0.1-0.3c0.1-0.1,0.2-0.1,0.3-0.1H35.7z"/>
	</g>
</g>
</svg>
