<?xml version="1.0" encoding="utf-8"?>
<!-- Generator: Adobe Illustrator 21.0.2, SVG Export Plug-In . SVG Version: 6.00 Build 0)  -->
<!-- Copyright (C) 2017 Intel Corporation. These files are licensed under the Creative Commons Attribution 3.0 Unported License (CC-BY-3.0) -->
<svg version="1.1" id="Layer_1" xmlns="http://www.w3.org/2000/svg" xmlns:xlink="http://www.w3.org/1999/xlink" x="0px" y="0px"
	 viewBox="0 0 44 36.2" style="enable-background:new 0 0 44 36.2;" xml:space="preserve">
	<metadata id="license"
		xmlns:rdf="http://www.w3.org/1999/02/22-rdf-syntax-ns#"
		xmlns:dc="http://purl.org/dc/elements/1.1/"
    xmlns:cc="http://creativecommons.org/ns#">
	  <rdf:RDF>
	    <cc:Work rdf:about="">
	    	<cc:license rdf:resource="https://creativecommons.org/licenses/by/3.0/" />
			</cc:Work>
	    <cc:License rdf:about="https://creativecommons.org/licenses/by/3.0/">
	    </cc:License>
	  </rdf:RDF>
	</metadata>
<style type="text/css">
	.st0{fill:#FDBE10;}
	.st1{fill:#FFFFFF;}
	.st2{font-family:'OCRA';}
	.st3{font-size:6.7915px;}
</style>
<g>
	<g>
		<rect x="20.7" y="7.6" class="st0" width="8.1" height="8.1"/>
		<circle class="st1" cx="24.8" cy="11.7" r="3.1"/>
	</g>
	<g>
		<rect x="20.7" y="21.2" class="st0" width="8.1" height="8.1"/>
		<circle class="st1" cx="24.8" cy="25.3" r="3.1"/>
	</g>
	<g>
		<rect x="7.1" y="21.2" class="st0" width="8.1" height="8.1"/>
		<circle class="st1" cx="11.2" cy="25.3" r="3.1"/>
	</g>
	<g>
		<rect x="7.1" y="7.6" class="st0" width="8.1" height="8.1"/>
		<circle class="st1" cx="11.2" cy="11.7" r="3.1"/>
	</g>
	<text id="_x30_.1.0.2.21.0.0.0_1_" transform="matrix(1 0 0 1 31.9886 14.6362)" class="st0 st2 st3">+</text>
	<g>
		<path class="st0" d="M35.7,24.9c0.1,0,0.2,0,0.3,0.1s0.1,0.2,0.1,0.3c0,0.1,0,0.3-0.1,0.3c-0.1,0.1-0.2,0.1-0.3,0.1h-2.5
			c-0.1,0-0.2,0-0.3-0.1s-0.1-0.2-0.1-0.3c0-0.1,0-0.3,0.1-0.3c0.1-0.1,0.2-0.1,0.3-0.1H35.7z"/>
	</g>
</g>
</svg>
