<?xml version="1.0" encoding="utf-8"?>
<!-- Generator: Adobe Illustrator 21.1.0, SVG Export Plug-In . SVG Version: 6.00 Build 0)  -->
<svg version="1.1" id="Layer_1" xmlns="http://www.w3.org/2000/svg" xmlns:xlink="http://www.w3.org/1999/xlink" x="0px" y="0px"
	 viewBox="0 0 44 49" style="enable-background:new 0 0 44 49;" xml:space="preserve">
<style type="text/css">
	.st0{fill:none;}
	.st1{font-family:'ArialMT';}
	.st2{font-size:3px;}
	.st3{font-size:2px;}
	.st4{fill:#B3B3B3;}
	.st5{fill:#333333;}
</style>
<rect x="2" y="29.8" class="st0" width="42" height="19.2"/>
<text transform="matrix(1 0 0 1 2 31.9814)"><tspan x="0" y="0" class="st1 st2">Copyright (C) </tspan><tspan x="0" y="3.6" class="st1 st2">2017 Intel Corporation.</tspan><tspan x="0" y="7.6" class="st1 st3">This document is licensed under the Creative </tspan><tspan x="0" y="10" class="st1 st3">Commons Attribution 3.0 Unported License </tspan><tspan x="0" y="12.4" class="st1 st3">(“CC-BY-3.0”):https://creativecommons.org/ </tspan><tspan x="0" y="14.8" class="st1 st3">licenses/by/3.0/legalcode</tspan></text>
<g id="g5012">
	<g id="g5012_1_">
		<g id="g5014_1_">
			<rect id="rect5016_1_" x="28.6" y="21.2" class="st4" width="1" height="5.4"/>
			<rect id="rect5018_1_" x="28.6" y="3.4" class="st4" width="1" height="5.4"/>
			<rect id="rect5020_1_" x="26.5" y="21.2" class="st4" width="1" height="5.4"/>
			<rect id="rect5022_1_" x="14.7" y="3.4" class="st4" width="1" height="5.4"/>
			<rect id="rect5024_1_" x="24.6" y="21.2" class="st4" width="1" height="5.4"/>
			<rect id="rect5026_1_" x="14.7" y="21.2" class="st4" width="1" height="5.4"/>
			<rect id="rect5028_1_" x="16.6" y="21.2" class="st4" width="1" height="5.4"/>
			<rect id="rect5030_1_" x="18.7" y="21.2" class="st4" width="1" height="5.4"/>
			<rect id="rect5032_1_" x="20.6" y="21.2" class="st4" width="1" height="5.4"/>
			<rect id="rect5034_1_" x="22.5" y="21.2" class="st4" width="1" height="5.4"/>
			<rect id="rect5036_1_" x="16.6" y="3.4" class="st4" width="1" height="5.4"/>
			<rect id="rect5038_1_" x="22.5" y="3.4" class="st4" width="1" height="5.4"/>
			<rect id="rect5040_1_" x="26.5" y="3.4" class="st4" width="1" height="5.4"/>
			<rect id="rect5042_1_" x="20.6" y="3.4" class="st4" width="1" height="5.4"/>
			<rect id="rect5044_1_" x="24.6" y="3.4" class="st4" width="1" height="5.4"/>
			<rect id="rect5046_1_" x="18.7" y="3.4" class="st4" width="1" height="5.4"/>
		</g>
		<rect id="rect5048_1_" x="14.2" y="8.8" class="st5" width="15.8" height="12.4"/>
	</g>
</g>
</svg>
