<?xml version="1.0" encoding="utf-8"?>
<!-- Generator: Adobe Illustrator 21.1.0, SVG Export Plug-In . SVG Version: 6.00 Build 0)  -->
<svg version="1.1" id="Layer_1" xmlns="http://www.w3.org/2000/svg" xmlns:xlink="http://www.w3.org/1999/xlink" x="0px" y="0px"
	 viewBox="0 0 47 49" style="enable-background:new 0 0 47 49;" xml:space="preserve">
<style type="text/css">
	.st0{fill:none;}
	.st1{font-family:'ArialMT';}
	.st2{font-size:3px;}
	.st3{font-size:2px;}
	.st4{fill:#B3B3B3;}
	.st5{fill:#333333;}
</style>
<rect x="2" y="29.8" class="st0" width="42" height="19.2"/>
<text transform="matrix(1 0 0 1 2 31.9814)"><tspan x="0" y="0" class="st1 st2">Copyright (C) </tspan><tspan x="0" y="3.6" class="st1 st2">2017 Intel Corporation.</tspan><tspan x="0" y="7.6" class="st1 st3">This document is licensed under the Creative </tspan><tspan x="0" y="10" class="st1 st3">Commons Attribution 3.0 Unported License </tspan><tspan x="0" y="12.4" class="st1 st3">(“CC-BY-3.0”):https://creativecommons.org/ </tspan><tspan x="0" y="14.8" class="st1 st3">licenses/by/3.0/legalcode</tspan></text>
<g>
	<rect id="rect623_2_" x="11.9" y="3.8" class="st4" width="21.8" height="1.3"/>
	<rect id="rect625_2_" x="11.9" y="5.6" class="st4" width="21.8" height="1.3"/>
	<rect id="rect627_2_" x="11.9" y="7.5" class="st4" width="21.8" height="1.3"/>
	<rect id="rect629_2_" x="11.9" y="9.4" class="st4" width="21.8" height="1.3"/>
	<rect id="rect631_2_" x="11.9" y="11.2" class="st4" width="21.8" height="1.3"/>
	<rect id="rect633_2_" x="11.9" y="13.1" class="st4" width="21.8" height="1.3"/>
	<rect id="rect635_2_" x="11.9" y="15" class="st4" width="21.8" height="1.3"/>
	<rect id="rect637_2_" x="11.9" y="16.8" class="st4" width="21.8" height="1.3"/>
	<rect id="rect639_2_" x="11.9" y="18.7" class="st4" width="21.8" height="1.3"/>
	<rect id="rect641_2_" x="11.9" y="20.6" class="st4" width="21.8" height="1.3"/>
	<rect id="rect643_2_" x="11.9" y="22.5" class="st4" width="21.8" height="1.3"/>
	<rect id="rect645_2_" x="11.9" y="24.3" class="st4" width="21.8" height="1.3"/>
	<rect id="rect647_2_" x="16.7" y="3.8" class="st5" width="12.2" height="21.8"/>
</g>
</svg>
