<?xml version="1.0" encoding="utf-8"?>
<!-- Generator: Adobe Illustrator 21.0.2, SVG Export Plug-In . SVG Version: 6.00 Build 0)  -->
<!-- Copyright (C) 2017 Intel Corporation. These files are licensed under the Creative Commons Attribution 3.0 Unported License (CC-BY-3.0) -->
<svg version="1.1" id="Layer_1" xmlns="http://www.w3.org/2000/svg" xmlns:xlink="http://www.w3.org/1999/xlink" x="0px" y="0px"
	 viewBox="0 0 44 29.8" style="enable-background:new 0 0 44 29.8;" xml:space="preserve">
		 <metadata id="license"
		xmlns:rdf="http://www.w3.org/1999/02/22-rdf-syntax-ns#"
		xmlns:dc="http://purl.org/dc/elements/1.1/"
    xmlns:cc="http://creativecommons.org/ns#">
	  <rdf:RDF>
	    <cc:Work rdf:about="">
	    	<cc:license rdf:resource="https://creativecommons.org/licenses/by/3.0/" />
			</cc:Work>
	    <cc:License rdf:about="https://creativecommons.org/licenses/by/3.0/">
	    </cc:License>
	  </rdf:RDF>
	</metadata>
<style type="text/css">
	.st0{fill:#B3B3B3;}
	.st1{fill:#333333;}
	.st2{fill:#8D8C8C;}
	.st3{fill:#8C8663;}
	.st4{fill:#B8AF82;}
	.st5{fill:#80795B;}
	.st6{fill:#5E5B43;}
	.st7{fill:#9A916C;}
</style>
<g id="BV_J10_1_">
	<g id="g5090_1_">
		<rect id="rect5092_1_" x="11.6" y="6.1" class="st0" width="8.5" height="2.3"/>
		<rect id="rect5094_1_" x="11.6" y="21.6" class="st0" width="8.5" height="2.3"/>
		<rect id="rect5096_1_" x="11.6" y="9.9" class="st0" width="8.5" height="2.3"/>
		<rect id="rect5098_1_" x="11.6" y="13.8" class="st0" width="8.5" height="2.3"/>
		<rect id="rect5100_1_" x="24" y="21.6" class="st0" width="8.5" height="2.3"/>
		<rect id="rect5102_1_" x="24" y="13.8" class="st0" width="8.5" height="2.3"/>
		<rect id="rect5104_1_" x="24" y="17.7" class="st0" width="8.5" height="2.3"/>
		<rect id="rect5106_1_" x="11.6" y="17.7" class="st0" width="8.5" height="2.3"/>
		<rect id="rect5108_1_" x="24" y="6.1" class="st0" width="8.5" height="2.3"/>
		<rect id="rect5110_1_" x="24" y="9.9" class="st0" width="8.5" height="2.3"/>
	</g>
	<rect id="rect5112_1_" x="16.7" y="5.2" class="st1" width="10.9" height="19.4"/>
	<g id="g5114_1_">
		<rect id="_x30_.1.2.0.0.0.0.7.0_24_" x="18.8" y="6.3" class="st2" width="1.8" height="1.8"/>
		<rect id="_x30_.1.2.0.0.0.0.32.0_24_" x="19.2" y="6.7" class="st3" width="1" height="1"/>
		<polygon id="_x30_.1.2.0.0.0.0.33_24_" class="st4" points="19.2,6.8 18.9,6.3 18.9,8.1 19.2,7.7 		"/>
		<polygon id="_x30_.1.2.0.0.0.0.34_24_" class="st5" points="18.9,6.3 20.7,6.3 20.2,6.8 19.2,6.8 		"/>
		<polygon id="_x30_.1.2.0.0.0.0.35_24_" class="st6" points="20.7,6.3 20.7,8.1 20.2,7.7 20.2,6.8 		"/>
		<polygon id="_x30_.1.2.0.0.0.0.36_24_" class="st7" points="20.2,7.7 20.7,8.1 18.9,8.1 19.2,7.7 		"/>
	</g>
	<g id="g5122_1_">
		<rect id="_x30_.1.2.0.0.0.0.7.0_23_" x="18.8" y="21.8" class="st2" width="1.8" height="1.8"/>
		<rect id="_x30_.1.2.0.0.0.0.32.0_23_" x="19.2" y="22.1" class="st3" width="1" height="1"/>
		<polygon id="_x30_.1.2.0.0.0.0.33_23_" class="st4" points="19.2,22.2 18.9,21.8 18.9,23.6 19.2,23.1 		"/>
		<polygon id="_x30_.1.2.0.0.0.0.34_23_" class="st5" points="18.9,21.8 20.7,21.8 20.2,22.2 19.2,22.2 		"/>
		<polygon id="_x30_.1.2.0.0.0.0.35_23_" class="st6" points="20.7,21.8 20.7,23.6 20.2,23.1 20.2,22.2 		"/>
		<polygon id="_x30_.1.2.0.0.0.0.36_23_" class="st7" points="20.2,23.1 20.7,23.6 18.9,23.6 19.2,23.1 		"/>
	</g>
	<g id="g5130_1_">
		<rect id="_x30_.1.2.0.0.0.0.7.0_22_" x="18.8" y="17.9" class="st2" width="1.8" height="1.8"/>
		<rect id="_x30_.1.2.0.0.0.0.32.0_22_" x="19.2" y="18.4" class="st3" width="1" height="1"/>
		<polygon id="_x30_.1.2.0.0.0.0.33_22_" class="st4" points="19.2,18.4 18.9,17.9 18.9,19.8 19.2,19.2 		"/>
		<polygon id="_x30_.1.2.0.0.0.0.34_22_" class="st5" points="18.9,17.9 20.7,17.9 20.2,18.4 19.2,18.4 		"/>
		<polygon id="_x30_.1.2.0.0.0.0.35_22_" class="st6" points="20.7,17.9 20.7,19.8 20.2,19.2 20.2,18.4 		"/>
		<polygon id="_x30_.1.2.0.0.0.0.36_22_" class="st7" points="20.2,19.2 20.7,19.8 18.9,19.8 19.2,19.2 		"/>
	</g>
	<g id="g5138_1_">
		<rect id="_x30_.1.2.0.0.0.0.7.0_21_" x="18.8" y="14" class="st2" width="1.8" height="1.8"/>
		<rect id="_x30_.1.2.0.0.0.0.32.0_21_" x="19.2" y="14.5" class="st3" width="1" height="1"/>
		<polygon id="_x30_.1.2.0.0.0.0.33_21_" class="st4" points="19.2,14.5 18.9,14 18.9,15.9 19.2,15.4 		"/>
		<polygon id="_x30_.1.2.0.0.0.0.34_21_" class="st5" points="18.9,14 20.7,14 20.2,14.5 19.2,14.5 		"/>
		<polygon id="_x30_.1.2.0.0.0.0.35_21_" class="st6" points="20.7,14 20.7,15.9 20.2,15.4 20.2,14.5 		"/>
		<polygon id="_x30_.1.2.0.0.0.0.36_21_" class="st7" points="20.2,15.4 20.7,15.9 18.9,15.9 19.2,15.4 		"/>
	</g>
	<g id="g5146_1_">
		<rect id="_x30_.1.2.0.0.0.0.7.0_20_" x="18.8" y="10.2" class="st2" width="1.8" height="1.8"/>
		<rect id="_x30_.1.2.0.0.0.0.32.0_20_" x="19.2" y="10.6" class="st3" width="1" height="1"/>
		<polygon id="_x30_.1.2.0.0.0.0.33_20_" class="st4" points="19.2,10.7 18.9,10.2 18.9,12 19.2,11.6 		"/>
		<polygon id="_x30_.1.2.0.0.0.0.34_20_" class="st5" points="18.9,10.2 20.7,10.2 20.2,10.7 19.2,10.7 		"/>
		<polygon id="_x30_.1.2.0.0.0.0.35_20_" class="st6" points="20.7,10.2 20.7,12 20.2,11.6 20.2,10.7 		"/>
		<polygon id="_x30_.1.2.0.0.0.0.36_20_" class="st7" points="20.2,11.6 20.7,12 18.9,12 19.2,11.6 		"/>
	</g>
	<g id="g5154_1_">
		<rect id="_x30_.1.2.0.0.0.0.7.0_19_" x="23.6" y="6.3" class="st2" width="1.8" height="1.8"/>
		<rect id="_x30_.1.2.0.0.0.0.32.0_19_" x="24" y="6.7" class="st3" width="1" height="1"/>
		<polygon id="_x30_.1.2.0.0.0.0.33_19_" class="st4" points="24,6.8 23.7,6.3 23.7,8.1 24,7.7 		"/>
		<polygon id="_x30_.1.2.0.0.0.0.34_19_" class="st5" points="23.7,6.3 25.4,6.3 25,6.8 24,6.8 		"/>
		<polygon id="_x30_.1.2.0.0.0.0.35_19_" class="st6" points="25.4,6.3 25.4,8.1 25,7.7 25,6.8 		"/>
		<polygon id="_x30_.1.2.0.0.0.0.36_19_" class="st7" points="25,7.7 25.4,8.1 23.7,8.1 24,7.7 		"/>
	</g>
	<g id="g5162_1_">
		<rect id="_x30_.1.2.0.0.0.0.7.0_18_" x="23.6" y="21.8" class="st2" width="1.8" height="1.8"/>
		<rect id="_x30_.1.2.0.0.0.0.32.0_18_" x="24" y="22.1" class="st3" width="1" height="1"/>
		<polygon id="_x30_.1.2.0.0.0.0.33_18_" class="st4" points="24,22.2 23.7,21.8 23.7,23.6 24,23.1 		"/>
		<polygon id="_x30_.1.2.0.0.0.0.34_18_" class="st5" points="23.7,21.8 25.4,21.8 25,22.2 24,22.2 		"/>
		<polygon id="_x30_.1.2.0.0.0.0.35_18_" class="st6" points="25.4,21.8 25.4,23.6 25,23.1 25,22.2 		"/>
		<polygon id="_x30_.1.2.0.0.0.0.36_18_" class="st7" points="25,23.1 25.4,23.6 23.7,23.6 24,23.1 		"/>
	</g>
	<g id="g5170_1_">
		<rect id="_x30_.1.2.0.0.0.0.7.0_17_" x="23.6" y="17.9" class="st2" width="1.8" height="1.8"/>
		<rect id="_x30_.1.2.0.0.0.0.32.0_17_" x="24" y="18.4" class="st3" width="1" height="1"/>
		<polygon id="_x30_.1.2.0.0.0.0.33_17_" class="st4" points="24,18.4 23.7,17.9 23.7,19.8 24,19.2 		"/>
		<polygon id="_x30_.1.2.0.0.0.0.34_17_" class="st5" points="23.7,17.9 25.4,17.9 25,18.4 24,18.4 		"/>
		<polygon id="_x30_.1.2.0.0.0.0.35_17_" class="st6" points="25.4,17.9 25.4,19.8 25,19.2 25,18.4 		"/>
		<polygon id="_x30_.1.2.0.0.0.0.36_17_" class="st7" points="25,19.2 25.4,19.8 23.7,19.8 24,19.2 		"/>
	</g>
	<g id="g5178_1_">
		<rect id="_x30_.1.2.0.0.0.0.7.0_16_" x="23.6" y="14" class="st2" width="1.8" height="1.8"/>
		<rect id="_x30_.1.2.0.0.0.0.32.0_16_" x="24" y="14.5" class="st3" width="1" height="1"/>
		<polygon id="_x30_.1.2.0.0.0.0.33_16_" class="st4" points="24,14.5 23.7,14 23.7,15.9 24,15.4 		"/>
		<polygon id="_x30_.1.2.0.0.0.0.34_16_" class="st5" points="23.7,14 25.4,14 25,14.5 24,14.5 		"/>
		<polygon id="_x30_.1.2.0.0.0.0.35_16_" class="st6" points="25.4,14 25.4,15.9 25,15.4 25,14.5 		"/>
		<polygon id="_x30_.1.2.0.0.0.0.36_16_" class="st7" points="25,15.4 25.4,15.9 23.7,15.9 24,15.4 		"/>
	</g>
	<g id="g5186_1_">
		<rect id="_x30_.1.2.0.0.0.0.7.0_15_" x="23.6" y="10.2" class="st2" width="1.8" height="1.8"/>
		<rect id="_x30_.1.2.0.0.0.0.32.0_15_" x="24" y="10.6" class="st3" width="1" height="1"/>
		<polygon id="_x30_.1.2.0.0.0.0.33_15_" class="st4" points="24,10.7 23.7,10.2 23.7,12 24,11.6 		"/>
		<polygon id="_x30_.1.2.0.0.0.0.34_15_" class="st5" points="23.7,10.2 25.4,10.2 25,10.7 24,10.7 		"/>
		<polygon id="_x30_.1.2.0.0.0.0.35_15_" class="st6" points="25.4,10.2 25.4,12 25,11.6 25,10.7 		"/>
		<polygon id="_x30_.1.2.0.0.0.0.36_15_" class="st7" points="25,11.6 25.4,12 23.7,12 24,11.6 		"/>
	</g>
</g>
</svg>
