<?xml version="1.0" encoding="utf-8"?>
<!-- Generator: Adobe Illustrator 21.0.2, SVG Export Plug-In . SVG Version: 6.00 Build 0)  -->
<!-- Copyright (C) 2017 Intel Corporation. These files are licensed under the Creative Commons Attribution 3.0 Unported License (CC-BY-3.0) -->
<svg version="1.1" id="Layer_1" xmlns="http://www.w3.org/2000/svg" xmlns:xlink="http://www.w3.org/1999/xlink" x="0px" y="0px"
	 viewBox="0 0 60 60.2" style="enable-background:new 0 0 60 60.2;" xml:space="preserve">
		 <metadata id="license"
		xmlns:rdf="http://www.w3.org/1999/02/22-rdf-syntax-ns#"
		xmlns:dc="http://purl.org/dc/elements/1.1/"
    xmlns:cc="http://creativecommons.org/ns#">
	  <rdf:RDF>
	    <cc:Work rdf:about="">
	    	<cc:license rdf:resource="https://creativecommons.org/licenses/by/3.0/" />
			</cc:Work>
	    <cc:License rdf:about="https://creativecommons.org/licenses/by/3.0/">
	    </cc:License>
	  </rdf:RDF>
	</metadata>
<style type="text/css">
	.st0{fill:#E6E6E6;}
</style>
<g id="CHIP_TI_CC2520">
	<path id="BV_TI_CC2520" class="st0" d="M3.6,3.8v52.9h52.9V3.8H3.6L3.6,3.8z M9.7,53.2c-1.4,0-2.6-1.2-2.6-2.6
		c0-1.4,1.2-2.6,2.6-2.6s2.6,1.2,2.6,2.6C12.3,52.1,11.1,53.2,9.7,53.2z M9.7,43c-1.4,0-2.6-1.2-2.6-2.6c0-1.4,1.2-2.6,2.6-2.6
		s2.6,1.2,2.6,2.6C12.3,41.8,11.1,43,9.7,43z M9.7,32.9c-1.4,0-2.6-1.2-2.6-2.6s1.2-2.6,2.6-2.6s2.6,1.2,2.6,2.6S11.1,32.9,9.7,32.9
		z M9.7,22.6c-1.4,0-2.6-1.2-2.6-2.6s1.2-2.6,2.6-2.6s2.6,1.2,2.6,2.6C12.3,21.5,11.1,22.6,9.7,22.6z M9.7,12.5
		c-1.4,0-2.6-1.2-2.6-2.6s1.2-2.6,2.6-2.6s2.6,1.2,2.6,2.6S11.1,12.5,9.7,12.5z M19.9,53.2c-1.4,0-2.6-1.2-2.6-2.6
		c0-1.4,1.2-2.6,2.6-2.6s2.6,1.2,2.6,2.6C22.4,52.1,21.3,53.2,19.9,53.2z M19.9,43c-1.4,0-2.6-1.2-2.6-2.6c0-1.4,1.2-2.6,2.6-2.6
		s2.6,1.2,2.6,2.6C22.4,41.8,21.3,43,19.9,43z M19.9,22.6c-1.4,0-2.6-1.2-2.6-2.6s1.2-2.6,2.6-2.6s2.6,1.2,2.6,2.6
		C22.4,21.5,21.3,22.6,19.9,22.6z M19.9,12.5c-1.4,0-2.6-1.2-2.6-2.6s1.2-2.6,2.6-2.6s2.6,1.2,2.6,2.6S21.3,12.5,19.9,12.5z
		 M30.1,53.2c-1.4,0-2.6-1.2-2.6-2.6c0-1.4,1.2-2.6,2.6-2.6s2.6,1.2,2.6,2.6C32.6,52.1,31.5,53.2,30.1,53.2z M30.1,12.5
		c-1.4,0-2.6-1.2-2.6-2.6s1.2-2.6,2.6-2.6s2.6,1.2,2.6,2.6C32.6,11.3,31.5,12.5,30.1,12.5z M40.3,53.2c-1.4,0-2.6-1.2-2.6-2.6
		c0-1.4,1.2-2.6,2.6-2.6s2.6,1.2,2.6,2.6C42.8,52.1,41.7,53.2,40.3,53.2z M40.3,43c-1.4,0-2.6-1.2-2.6-2.6c0-1.4,1.2-2.6,2.6-2.6
		s2.6,1.2,2.6,2.6C42.8,41.8,41.7,43,40.3,43z M40.3,22.6c-1.4,0-2.6-1.2-2.6-2.6s1.2-2.6,2.6-2.6s2.6,1.2,2.6,2.6
		C42.8,21.5,41.7,22.6,40.3,22.6z M40.3,12.5c-1.4,0-2.6-1.2-2.6-2.6s1.2-2.6,2.6-2.6s2.6,1.2,2.6,2.6S41.7,12.5,40.3,12.5z
		 M50.4,53.2c-1.4,0-2.6-1.2-2.6-2.6c0-1.4,1.2-2.6,2.6-2.6s2.6,1.2,2.6,2.6C53,52.1,51.8,53.2,50.4,53.2z M50.4,43
		c-1.4,0-2.6-1.2-2.6-2.6c0-1.4,1.2-2.6,2.6-2.6S53,39,53,40.4C53,41.8,51.8,43,50.4,43z M50.4,32.9c-1.4,0-2.6-1.2-2.6-2.6
		s1.2-2.6,2.6-2.6s2.6,1.2,2.6,2.6S51.8,32.9,50.4,32.9z M50.4,22.6c-1.4,0-2.6-1.2-2.6-2.6s1.2-2.6,2.6-2.6S53,18.6,53,20
		C53,21.5,51.8,22.6,50.4,22.6z M50.4,12.5c-1.4,0-2.6-1.2-2.6-2.6s1.2-2.6,2.6-2.6S53,8.5,53,9.9S51.8,12.5,50.4,12.5z"/>
</g>
</svg>
